<?xml version="1.0" encoding="UTF-8"?>
<svg id="Layer_2" data-name="Layer 2" xmlns="http://www.w3.org/2000/svg" viewBox="0 0 183.95 238.58">
  <defs>
    <style>
      .cls-1 {
        fill: #e22026;
      }
    </style>
  </defs>
  <g id="Layer_1-2" data-name="Layer 1">
    <g>
      <path d="M128.5,234.24c.37,1.26.71,2.39,1.06,3.57-1.16.55-2.35.68-3.52.74-4.51.25-8.2-1.44-11.01-4.95-2.15-2.69-3.27-5.79-3.29-9.27-.07-10.93-.16-21.85-.25-32.78-.06-6.66-.14-13.31-.21-19.97,0-.34-.03-.68-.06-1.09h-28.02c-.02.44-.05.81-.05,1.18-.11,14.31-.21,28.62-.33,42.94-.03,3.46-.07,6.92-.14,10.39-.1,4.83-3.49,11.62-10.47,13.26-2.31.54-4.58.39-6.85-.21-.14-.04-.27-.13-.48-.24.35-1.18.7-2.34,1.06-3.55.64.11,1.2.21,1.76.3,3.8.58,6.8-.77,9.02-3.85,1.36-1.88,2.06-4,2.07-6.36.13-17.43.3-34.86.45-52.28,0-.5,0-.99,0-1.66-.53,0-.98,0-1.42,0-5.7,0-11.39,0-17.09,0-.45,0-.9-.03-1.5-.06,4.25-18.87,8.46-37.59,12.72-56.5-.46.12-.78.18-1.08.28-7.38,2.52-14.76,5.04-22.14,7.56-.18.06-.38.09-.55.18-.61.32-1.04.14-1.52-.33-2.26-2.2-4.56-4.36-6.85-6.53-1.39-1.33-2.78-2.66-4.18-3.98-.21-.2-.46-.37-.79-.49,2.87,8.06,5.97,16.03,8.97,24.12H0c7.32-19.15,14.61-38.22,21.99-57.53.25.59.42.96.56,1.33,2.78,7.33,5.55,14.66,8.32,22,.23.62.5,1.17,1,1.65,5.2,4.92,10.38,9.86,15.56,14.8.28.26.57.51.9.81,2.25-.77,4.5-1.54,6.74-2.31,5.63-1.93,11.26-3.86,16.9-5.77.62-.21,1.04-.45,1.2-1.18,1.5-6.79,3.03-13.57,4.58-20.45-.28-.25-.59-.53-.9-.81-5.48-4.87-8.85-10.92-9.84-18.17-2.23-16.27,8.83-30.2,23.49-33.11,16.15-3.21,31.91,7.3,34.86,23.54,1.9,10.44-1.12,19.46-8.7,26.91-.68.67-.81,1.21-.6,2.09,1.6,6.81,3.16,13.62,4.7,20.44.16.69.43,1.12,1.16,1.37,7.1,2.39,14.18,4.82,21.27,7.24.18.06.36.12.59.2.31-.29.62-.58.92-.87,5.5-5.49,10.99-11,16.51-16.47.58-.57.91-1.18,1.04-1.97.7-4.48,1.44-8.95,2.16-13.43.97-5.95,1.94-11.9,2.91-17.86.88-5.42,1.75-10.85,2.63-16.27.73-4.51,1.47-9.02,2.2-13.54.09-.52.14-1.05.23-1.7-2.66-.44-5.25-.86-7.95-1.31,5.34-11.52,10.63-22.91,15.9-34.27.11-.01.15-.03.17-.02.03.02.06.06.07.09.04.15.09.3.12.45.02.11.03.23.04.34,1.06,12.1,2.12,24.19,3.2,36.43-2.55-.14-4.99-.81-7.66-1.06-5.32,32.68-10.62,65.34-15.93,98-5.31,32.68-10.62,65.36-15.95,98.17-1.3-.03-2.51-.3-3.84-.6,6.8-41.82,13.58-83.59,20.37-125.35l-.17-.11c-.3.28-.61.54-.89.83-4.66,4.65-9.33,9.29-13.95,13.97-.75.76-1.36.94-2.39.58-6.71-2.35-13.44-4.63-20.16-6.93-.36-.12-.72-.24-1.28-.42,4.3,18.68,8.58,37.23,12.89,55.94-.59.02-1.03.06-1.48.06-5.62,0-11.24,0-16.86,0-.45,0-.91,0-1.46,0,0,.59,0,1.05,0,1.51.14,15.24.28,30.47.41,45.71.02,2.27.02,4.54.05,6.81.05,3.26,1.32,5.99,3.75,8.12,2.38,2.09,5.18,2.54,8.22,1.86.26-.06.52-.1.89-.17ZM82.03,86.44c-6.01,26.7-12.02,53.37-18.04,80.09h66.18c-6.21-26.97-12.41-53.84-18.61-80.77,6.32-4.88,10-11.25,10.49-19.23.49-8.01-2.23-14.93-8.1-20.43-10.58-9.93-27.03-9.08-36.66,1.43-10.25,11.19-8.83,29.59,4.74,38.91Z"/>
      <path class="cls-1" d="M28.72,104.94c-2.06-5.44-4.12-10.88-6.18-16.33-.11-.28-.23-.55-.42-.99-5.48,14.34-10.89,28.49-16.32,42.71h32.51c-2.23-6.01-9.43-24.93-9.6-25.39Z"/>
    </g>
  </g>
</svg>