<?xml version="1.0" encoding="UTF-8"?>
<svg id="Layer_2" data-name="Layer 2" xmlns="http://www.w3.org/2000/svg" viewBox="0 0 1026.08 456.34">
  <defs>
    <style>
      .cls-1 {
        fill: #e22026;
      }

      .cls-2, .cls-3 {
        fill: #fff;
      }

      .cls-3 {
        font-family: ArialRoundedMTBold, 'Arial Rounded MT Bold';
        font-size: 31.12px;
      }
    </style>
  </defs>
  <g id="Layer_1-2" data-name="Layer 1">
    <g>
      <path class="cls-1" d="M760.56,311.32v72.37c-1.79.48-41.91.56-44.24.12v-201.2h41.37v21c.58-.52.8-.67.95-.86,9.38-11.59,21.54-18.69,36.01-21.74,14.55-3.07,29-2.36,42.79,3.41,22.06,9.24,36.02,25.62,41.01,49.12,3.57,16.79,3.16,33.6-1.73,50.1-7.19,24.3-26.99,42.24-52.01,47.16-12.64,2.49-25.2,2.03-37.45-2.39-8.34-3.01-15.49-7.96-22.2-13.62-1.31-1.11-2.6-2.23-3.91-3.34-.05-.04-.14-.03-.61-.12ZM834.89,254.88c.09-4.58-.32-9.78-1.37-14.92-1.48-7.19-4.19-13.81-9.34-19.23-8.73-9.19-19.61-12.44-31.85-10.72-15.62,2.19-25.99,11.05-30.24,26.32-3.43,12.33-2.84,24.79.3,37.12,4.51,17.67,20.76,30.46,41.21,27.84,14.03-1.8,23.6-9.61,28.18-23.12,2.49-7.33,3.13-14.95,3.11-23.29Z"/>
      <path class="cls-2" d="M239.05,435.77c.69,2.35,1.32,4.45,1.97,6.64-2.15,1.03-4.37,1.26-6.55,1.38-8.39.46-15.26-2.67-20.48-9.2-4.01-5.01-6.09-10.77-6.13-17.25-.13-20.33-.29-40.65-.46-60.98-.11-12.38-.25-24.76-.39-37.15,0-.63-.06-1.26-.1-2.04h-52.12c-.04.81-.1,1.51-.1,2.2-.2,26.63-.4,53.25-.61,79.88-.05,6.44-.13,12.88-.26,19.32-.18,8.99-6.5,21.63-19.49,24.66-4.29,1-8.52.72-12.74-.39-.27-.07-.5-.24-.9-.44.66-2.19,1.3-4.36,1.97-6.6,1.18.2,2.23.39,3.27.56,7.07,1.09,12.65-1.43,16.78-7.15,2.53-3.5,3.83-7.44,3.86-11.83.25-32.42.55-64.84.83-97.27,0-.92,0-1.84,0-3.08-.99,0-1.82,0-2.65,0-10.6,0-21.2,0-31.8,0-.83,0-1.67-.06-2.79-.11,7.9-35.11,15.75-69.94,23.67-105.11-.86.22-1.45.34-2.01.53-13.73,4.68-27.46,9.38-41.18,14.07-.34.12-.71.17-1.02.34-1.13.6-1.94.25-2.83-.61-4.21-4.09-8.49-8.11-12.74-12.16-2.59-2.47-5.18-4.94-7.78-7.4-.4-.37-.85-.68-1.47-.91,5.34,15,11.1,29.81,16.69,44.88H0c13.61-35.62,27.17-71.11,40.9-107.04.47,1.11.78,1.78,1.04,2.48,5.17,13.64,10.33,27.28,15.48,40.92.43,1.15.93,2.18,1.86,3.06,9.67,9.16,19.3,18.35,28.95,27.53.51.49,1.05.95,1.68,1.51,4.18-1.44,8.36-2.87,12.55-4.31,10.48-3.59,20.96-7.18,31.45-10.74,1.16-.39,1.93-.84,2.23-2.19,2.78-12.63,5.64-25.25,8.51-38.05-.52-.47-1.09-.99-1.67-1.5-10.19-9.05-16.46-20.31-18.31-33.8-4.14-30.27,16.43-56.18,43.71-61.61,30.05-5.98,59.37,13.57,64.86,43.79,3.53,19.42-2.09,36.21-16.18,50.06-1.26,1.24-1.51,2.24-1.12,3.89,2.98,12.66,5.87,25.34,8.75,38.03.29,1.28.8,2.09,2.16,2.54,13.21,4.45,26.39,8.97,39.57,13.47.33.11.66.22,1.09.37.58-.55,1.15-1.07,1.7-1.62,10.23-10.22,20.45-20.46,30.71-30.65,1.07-1.06,1.69-2.19,1.93-3.67,1.31-8.33,2.67-16.65,4.02-24.98,1.8-11.07,3.61-22.15,5.41-33.22,1.64-10.09,3.26-20.18,4.9-30.26,1.36-8.39,2.74-16.79,4.1-25.18.16-.98.27-1.96.43-3.15-4.94-.81-9.77-1.61-14.79-2.43,9.94-21.42,19.78-42.62,29.58-63.75.2-.03.28-.06.32-.04.06.03.11.1.13.17.08.27.16.55.22.83.04.21.06.43.08.64,1.98,22.5,3.95,45,5.95,67.78-4.74-.25-9.29-1.51-14.25-1.97-9.9,60.79-19.76,121.56-29.63,182.32-9.88,60.8-19.76,121.59-29.68,182.63-2.42-.06-4.67-.57-7.15-1.11,12.64-77.81,25.26-155.5,37.89-233.2l-.32-.2c-.56.52-1.13,1.01-1.66,1.55-8.66,8.65-17.35,17.28-25.95,25.99-1.39,1.41-2.52,1.76-4.45,1.08-12.47-4.37-25-8.61-37.51-12.88-.67-.23-1.34-.44-2.39-.79,8.01,34.76,15.95,69.26,23.97,104.07-1.1.05-1.92.11-2.75.11-10.46,0-20.91,0-31.37,0-.84,0-1.69,0-2.71,0,0,1.11,0,1.95,0,2.8.26,28.34.51,56.69.77,85.03.04,4.22.03,8.45.1,12.67.1,6.06,2.46,11.14,6.99,15.11,4.43,3.88,9.64,4.72,15.29,3.45.48-.11.97-.19,1.65-.32ZM152.6,160.82c-11.19,49.67-22.36,99.28-33.55,149h123.11c-11.56-50.17-23.08-100.16-34.62-150.25,11.76-9.07,18.61-20.94,19.51-35.77.91-14.91-4.16-27.77-15.07-38.01-19.69-18.47-50.29-16.89-68.2,2.65-19.07,20.81-16.42,55.05,8.83,72.38Z"/>
      <path class="cls-1" d="M53.44,195.23c-3.82-10.13-7.66-20.25-11.49-30.37-.2-.52-.43-1.02-.77-1.84-10.19,26.67-20.26,53.01-30.36,79.45h60.49c-4.15-11.18-17.54-46.38-17.86-47.24Z"/>
      <path class="cls-1" d="M448.48,233.72c.26-4.6.22-9.02-1.34-13.27-1.56-4.26-4.43-7.26-8.71-8.92-3.78-1.46-7.73-2.13-11.73-2.42-5.57-.4-11.14-.54-16.72.22-8.73,1.19-15.2,5.52-19.23,13.39-.75,1.46-1.45,2.94-2.27,4.61-13.24-2.03-26.5-4.07-39.77-6.1-.04-.34-.13-.56-.07-.73,4.18-12.69,11.23-23.26,22.69-30.55,6.37-4.05,13.41-6.38,20.73-7.93,8.01-1.7,16.12-2.56,24.3-2.57,7.37,0,14.75.09,22.11.5,7.65.43,15.24,1.5,22.59,3.77,6.41,1.98,12.32,4.97,17.7,8.99,6.73,5.03,10.36,11.83,11.82,19.99,1.42,7.93,1.83,15.91,1.73,23.94-.17,14.39-.4,28.77-.54,43.16-.07,7.09.13,14.16.79,21.23.82,8.85,3.65,17.02,7.74,24.82.39.75.76,1.51,1.25,2.48h-43.88c-2.35-4.87-3.86-10.16-5.8-15.58-.75.58-1.31,1-1.84,1.43-10.29,8.36-21.86,14.06-34.93,16.56-7.21,1.38-14.47,1.77-21.8,1.25-6.96-.49-13.77-1.62-20.34-4.04-7.95-2.92-14.8-7.47-20.27-13.97-6.9-8.21-9.62-17.77-8.68-28.36,1.29-14.5,9.04-24.69,21.62-31.45,6.15-3.31,12.85-5.18,19.58-6.89,8.74-2.23,17.64-3.64,26.52-5.18,11.62-2.02,23.24-4.08,34.53-7.63.68-.21,1.35-.45,2.23-.75ZM448.69,258.76c-.83.16-1.24.22-1.65.32-2.57.62-5.12,1.32-7.71,1.86-9.16,1.89-18.36,3.61-27.49,5.65-4.37.97-8.73,2.23-12.9,3.87-4.6,1.81-8.21,5.04-9.85,9.87-1.9,5.58-.66,10.74,2.89,15.33,2.97,3.83,6.84,6.45,11.47,7.93,5.44,1.74,10.99,1.77,16.55.82,7.47-1.27,14.23-4.22,20.02-9.17,4.05-3.45,6.73-7.77,7.61-13.07.36-2.18.62-4.4.7-6.6.19-5.49.25-10.99.37-16.79Z"/>
      <path class="cls-1" d="M683.28,225.72c-14.63,2.25-29.03,4.46-43.49,6.68-.22-.7-.39-1.16-.5-1.63-2.75-11.12-9.78-17.86-20.95-20.19-7.77-1.63-15.54-1.39-23.1,1.16-11.25,3.79-18.02,11.71-20.81,23.15-1.02,4.18-1.64,8.42-1.8,12.72-.32,8.46-.16,16.89,1.74,25.19.5,2.16,1.08,4.31,1.84,6.38,4.33,11.81,13,18.54,25.16,20.86,6.9,1.31,13.82,1.1,20.58-1.1,7.02-2.28,12.22-6.68,15.58-13.26,1.73-3.39,2.94-6.98,3.89-10.66.16-.62.32-1.23.56-2.11,14.53,2.14,28.99,4.27,43.63,6.43-.15.65-.23,1.05-.33,1.44-3.58,12.88-9.67,24.28-19.74,33.31-8.22,7.38-17.88,12.01-28.51,14.7-12.1,3.07-24.41,3.87-36.85,3.15-9.7-.57-19.18-2.23-28.26-5.76-16.74-6.51-29.62-17.39-37.61-33.67-4.18-8.52-6.29-17.6-7.12-27.02-.68-7.65-.61-15.29.41-22.91,3.93-29.3,19.94-48.76,47.83-58.42,9.06-3.14,18.48-4.42,28.04-4.73,8.24-.26,16.46.01,24.63,1.26,8.82,1.34,17.35,3.65,25.28,7.83,12.26,6.45,20.86,16.3,26.65,28.75,1.05,2.27,1.92,4.62,2.86,6.94.16.39.23.82.41,1.5Z"/>
      <path class="cls-1" d="M916.43,127.06h44.04v201.27h-43.95c-.43-1.56-.54-198.52-.09-201.27Z"/>
      <path class="cls-2" d="M935.57,448h-3.29c-.51-1.52-.7-16.9-.26-21.51h3c.1.6.22,1.27.38,2.25,1.89-1.8,3.9-2.97,6.48-2.9,2.65.07,4.73.99,6.12,3.79.62-.76.99-1.38,1.51-1.84,2.43-2.18,5.27-2.43,8.22-1.4,2.07.72,3.31,2.34,3.34,4.54.1,5.5.06,11.01.06,16.51,0,.13-.11.25-.23.52h-3.04c-.05-.63-.15-1.24-.15-1.85-.01-3.57,0-7.15,0-10.72,0-.64,0-1.29-.02-1.93-.11-2.72-1.04-4-3.18-4.4-2.28-.42-4.72.9-5.48,3.14-.36,1.06-.47,2.24-.49,3.36-.06,3.36-.02,6.72-.03,10.08,0,.7,0,1.4,0,2.28h-3.62c-.04-.76-.1-1.46-.1-2.15,0-3.79,0-7.58-.01-11.37,0-.78-.04-1.58-.21-2.34-.54-2.43-2.16-3.45-4.6-2.95-2.51.51-4.04,2.15-4.22,4.96-.19,2.92-.14,5.86-.18,8.79-.02,1.63,0,3.26,0,5.15Z"/>
      <path class="cls-2" d="M356.19,426.39h3.76c1.6,5.19,2.67,10.55,4.67,15.7,1.56-5.18,3.12-10.36,4.71-15.64h3.57c-2.26,7.2-4.48,14.27-6.74,21.48h-3.88c-1.37-5.14-2.76-10.36-4.29-16.13-1.85,5.63-2.83,10.99-4.51,16.2h-3.82c-2.14-7.06-4.31-14.2-6.54-21.55.83-.06,1.44-.13,2.05-.13.56,0,1.12.06,1.8.1,1.52,5.46,3.02,10.86,4.52,16.26.1,0,.2,0,.3,0,1.45-5.37,2.91-10.73,4.41-16.28Z"/>
      <path class="cls-2" d="M474.4,447.91c-2.14-7.05-4.29-14.14-6.49-21.44h3.85c1.46,5.26,2.94,10.59,4.43,15.92l.42.06c1.45-5.31,2.9-10.62,4.37-16.02h3.83c1.39,5.29,2.78,10.57,4.17,15.86.12,0,.24.01.36.02,1.58-5.25,3.17-10.5,4.79-15.86h3.5c-2.1,7.24-4.44,14.3-6.69,21.52-.69.04-1.32.11-1.95.11-.56,0-1.12-.06-1.9-.1-1.39-5.23-2.79-10.45-4.18-15.67-.12-.01-.25-.03-.37-.04-1.38,5.16-2.75,10.33-4.17,15.65h-3.96Z"/>
      <path class="cls-2" d="M414.19,442.58c1.45-5.35,2.9-10.71,4.38-16.15h3.84c1.39,5.27,2.78,10.56,4.18,15.85.12,0,.25-.01.37-.01,1.58-5.24,3.16-10.48,4.77-15.82h3.52c-2.13,7.23-4.45,14.3-6.71,21.51h-3.85c-1.39-5.21-2.78-10.43-4.17-15.66-.12-.02-.24-.04-.35-.07-1.4,5.24-2.8,10.48-4.22,15.76h-3.91c-2.16-7.14-4.31-14.23-6.52-21.52h3.86c1.47,5.32,2.96,10.68,4.44,16.03.13.03.25.05.38.08Z"/>
      <path class="cls-2" d="M686.47,446.14v10.19h-3.57v-29.91h3.11c.08.64.15,1.26.25,2.07.39-.26.77-.41,1.01-.68,2.71-3.02,9.73-2.9,12.48,1.91,2.77,4.83,2.73,9.87-.08,14.7-2.11,3.62-8.03,5.8-12.14,2.39-.2-.17-.45-.29-1.06-.68ZM698.11,436.86c-.38-1.53-.53-3.44-1.3-5.06-1.82-3.79-6.35-4.13-8.89-.78-.51.67-.93,1.46-1.18,2.26-.83,2.65-.83,5.35-.03,8,.77,2.53,2.76,4.09,5.12,4.15,2.34.06,4.51-1.4,5.34-3.86.47-1.4.6-2.91.95-4.72Z"/>
      <path class="cls-2" d="M588.36,445.59c-1.99,1.4-3.94,2.67-6.31,2.77-1.55.07-3.17.05-4.66-.33-2.31-.6-3.85-2.19-4.22-4.64-.4-2.64.49-4.79,2.77-6.28,1.93-1.26,4.18-1.37,6.36-1.72,1.89-.3,3.78-.65,5.58-.96.72-3.25-.33-4.96-3.29-5.45-1.04-.17-2.15-.15-3.21-.02-1.66.2-2.95,1.03-3.6,2.67-.15.39-.36.76-.6,1.26-1.08-.1-2.12-.21-3.4-.33.4-2.41,1.31-4.26,3.37-5.31,3.71-1.88,7.58-1.94,11.44-.55,2.39.86,3.29,2.86,3.35,5.25.07,2.57.02,5.15.05,7.73.03,2.7-.21,5.43,1.01,8.22h-3.71c-.26-.65-.55-1.36-.94-2.33ZM588.2,437.38c-2.42.46-4.59.87-6.76,1.3-.7.14-1.41.24-2.08.48-1.57.55-2.43,1.76-2.35,3.2.07,1.34.99,2.46,2.43,2.95,4.3,1.47,8.59-1.47,8.76-6.01.02-.56,0-1.13,0-1.92Z"/>
      <path class="cls-2" d="M874.93,437.15c.23-1.48.33-2.99.72-4.42,1.09-3.97,4.32-6.53,8.41-6.82,6.78-.49,11.23,3.56,11.33,10.39.02,1.49-.08,3.01-.34,4.47-.99,5.78-6.39,8.12-10.76,7.71-5.34-.5-8.68-4-9.12-9.38-.05-.64-.07-1.28-.11-1.93-.04,0-.09-.02-.13-.02ZM891.85,437.05c-.35-1.48-.52-3.14-1.14-4.61-1-2.38-2.97-3.6-5.59-3.55-2.62.05-4.54,1.34-5.48,3.74-1.17,2.95-1.13,6.02-.05,9,.88,2.42,3.11,3.83,5.65,3.83,2.57,0,4.73-1.38,5.62-3.85.5-1.38.64-2.89.99-4.55Z"/>
      <path class="cls-2" d="M644.13,440.05c1.18.2,2.15.37,3.1.54.13,3.32-2.42,6.61-5.87,7.53-5.54,1.49-11.38-1.24-12.46-7.79-.48-2.89-.35-5.71.6-8.46,1.26-3.61,3.95-5.58,7.68-5.9,1.67-.14,3.48,0,5.06.51,2.79.91,4.37,3.05,4.9,6.15-1.15.2-2.18.38-3.33.59-.19-.4-.35-.7-.47-1.01-.84-2.15-2.34-3.38-4.72-3.35-2.54.03-4.4,1.19-5.39,3.53-.97,2.3-1.02,4.73-.65,7.17.13.84.34,1.69.66,2.47.94,2.27,2.95,3.5,5.43,3.41,2.44-.08,4.06-1.32,4.9-3.76.16-.47.31-.94.53-1.63Z"/>
      <path class="cls-2" d="M840.83,432.62c-1.15.21-2.18.39-3.32.6-.22-.44-.44-.79-.58-1.17-1.68-4.37-7.26-3.96-9.4-.84-.4.58-.73,1.24-.92,1.92-.76,2.74-.79,5.52.03,8.24.96,3.18,3.91,4.74,7.1,3.87,1.46-.4,2.52-1.34,3.13-2.71.32-.71.53-1.46.86-2.41,1.06.15,2.16.3,3.25.45-.38,4.97-4.61,8.4-9.64,7.93-4.61-.43-7.65-3.03-8.66-7.58-.7-3.12-.57-6.24.53-9.28.94-2.59,2.74-4.32,5.32-5.21,2.36-.81,4.78-.88,7.15-.06,2.88,1,4.48,3.12,5.13,6.24Z"/>
      <path class="cls-2" d="M741.74,447.97h-3.46v-29.78h3.46v29.78Z"/>
      <path class="cls-2" d="M531.76,443.98h3.88v3.95h-3.88v-3.95Z"/>
      <path class="cls-2" d="M784.74,447.93h-3.91v-3.9h3.91v3.9Z"/>
      <g>
        <path class="cls-2" d="M1000.86,147.17c-13.91,0-25.23-11.32-25.23-25.23s11.32-25.23,25.23-25.23,25.23,11.32,25.23,25.23-11.32,25.23-25.23,25.23ZM1000.86,101.9c-11.05,0-20.04,8.99-20.04,20.04s8.99,20.04,20.04,20.04,20.04-8.99,20.04-20.04-8.99-20.04-20.04-20.04Z"/>
        <text class="cls-3" transform="translate(988.86 133.4)"><tspan x="0" y="0">R</tspan></text>
      </g>
    </g>
  </g>
</svg>