<svg width="45" height="45" viewBox="0 0 45 45" fill="none" xmlns="http://www.w3.org/2000/svg">
<path d="M22.5 0C10.0736 0 0 10.0736 0 22.5C0 34.9264 10.0736 45 22.5 45C34.9264 45 45 34.9264 45 22.5C45 10.0736 34.9264 0 22.5 0ZM15.8043 6.48422C18.3767 5.40642 21.2142 4.96582 24.0098 5.2098C27.2355 5.49149 30.2855 6.6607 32.8461 8.56362L32.8215 6.93686L35.4579 6.89704L35.5463 12.7477L29.7005 13.2801L29.4614 10.6542L31.0399 10.5105C28.9178 8.99745 26.4185 8.06695 23.7804 7.83659C19.0608 7.42447 14.4005 9.32933 11.3135 12.9321L9.31131 11.2165C11.0705 9.1633 13.3158 7.52695 15.8043 6.48422ZM30.5496 16.4097L26.2826 28.5903H24.0973L28.3645 16.4097H30.5496ZM15.3301 25.5646V23.8965L19.3903 18.2458H22.041L18.3559 23.5345H20.192V21.9958H22.61V23.5345H23.9548V25.5646H22.61V27.2972H20.1144V25.5646H15.3301ZM10.4805 20.1337C9.82107 20.1337 9.22623 20.4311 8.86421 21.013L6.9634 19.9527C7.64877 18.8147 8.92881 18.0648 10.7133 18.0648C12.7951 18.0648 14.2304 19.138 14.2304 20.819C14.2304 21.6983 13.9847 22.5 12.6916 23.6896L10.9847 25.2671H14.476V27.2972H7.42896V25.6939L10.8168 22.5258C11.5409 21.8535 11.6444 21.4397 11.6444 21.0647C11.6444 20.4828 11.2564 20.1337 10.4805 20.1337ZM29.1957 38.5158C27.0848 39.4002 24.7954 39.8557 22.4968 39.8557C21.9945 39.8557 21.4917 39.834 20.9902 39.7901C17.7645 39.5084 14.7145 38.3392 12.154 36.4364L12.1785 38.0631L9.54211 38.1029L9.45369 32.2523L15.2995 31.7199L15.5386 34.3457L13.9601 34.4895C16.0822 36.0025 18.5815 36.933 21.2196 37.1634C25.9393 37.5757 30.5994 35.6707 33.6864 32.0679L35.6886 33.7835C33.9294 35.8366 31.6842 37.473 29.1957 38.5158ZM38.0365 19.8492L34.8427 27.2972H32.0497L35.1013 20.2759H32.7221V21.6724H30.5368V18.2458H38.0365V19.8492Z" fill="#00A4EF"/>
</svg>
