<svg width="45" height="45" viewBox="0 0 45 45" fill="none" xmlns="http://www.w3.org/2000/svg">
<path fill-rule="evenodd" clip-rule="evenodd" d="M10.8254 23.5952V25.5288C10.8254 26.1574 11.2075 26.7212 11.7866 26.9469L13.001 27.4205C13.2021 28.0652 13.458 28.691 13.7666 29.2897L13.2383 30.4934C12.9862 31.068 13.1093 31.7407 13.5483 32.1853L15.7625 34.4283C16.2008 34.8724 16.8637 34.9976 17.4306 34.7432L18.6216 34.2088C19.214 34.5214 19.8319 34.7815 20.4699 34.9848C20.4698 34.9848 20.9364 36.213 20.9364 36.213C21.1594 36.7996 21.7159 37.1867 22.3364 37.1867H25.4683C26.0888 37.1867 26.6453 36.7996 26.8683 36.213L27.3349 34.9847C27.972 34.7819 28.5904 34.5227 29.182 34.2096C29.1819 34.2097 30.371 34.7432 30.371 34.7432C30.9378 34.9976 31.6008 34.8724 32.0391 34.4283L32.5982 33.8619C34.3442 34.9276 35.4761 36.8647 35.4761 39.0024C35.4761 42.3005 32.8114 45 29.5536 45H5.92247C2.66475 45 0 42.3005 0 39.0024C0 36.5002 1.53347 34.344 3.69347 33.4462C3.68297 33.2637 3.67875 33.0791 3.67875 32.8944C3.67875 28.4088 6.7185 24.6421 10.8254 23.5952ZM26.2064 14.1603C27.2283 14.4063 28.2029 14.8152 29.0987 15.3744L30.9785 14.5277L33.1926 16.7707L32.36 18.675C32.9119 19.5825 33.3156 20.5699 33.5585 21.6083L35.4761 22.3559V25.5288L33.5585 26.2765C33.3156 27.3117 32.9088 28.2991 32.36 29.2064L33.1926 31.1108L30.9785 33.3538L29.0987 32.5103C28.2061 33.0695 27.2283 33.4784 26.2064 33.7245L25.4683 35.6672H22.3364L21.5983 33.7245C20.5732 33.4784 19.5986 33.0662 18.7029 32.5103L16.8231 33.3538L14.609 31.1108L15.4447 29.2064C14.8928 28.3022 14.4891 27.3117 14.2431 26.2765L12.3254 25.5288V22.3559L14.2431 21.6083C14.4891 20.5699 14.8928 19.5825 15.4447 18.675L14.609 16.7707L16.8231 14.5277L18.7029 15.3744C19.5986 14.8152 20.5732 14.4063 21.5951 14.1603L22.3364 12.2144H25.4683L26.2064 14.1603ZM23.9008 18.4066C20.8823 18.4066 18.438 20.883 18.438 23.9407C18.438 26.9986 20.8823 29.4781 23.9008 29.4781C26.9192 29.4781 29.3667 26.9986 29.3667 23.9407C29.3667 20.883 26.9192 18.4066 23.9008 18.4066ZM39.4112 3.14227L44.9037 9.69466C45.0059 9.81879 45.0289 9.9792 44.9625 10.1266C44.8961 10.2714 44.7582 10.362 44.5999 10.362H42.0412V18.9683C42.0412 19.4133 41.6838 19.7754 41.2445 19.7754H36.97C36.5308 19.7754 36.1733 19.4133 36.1733 18.9683V10.362H33.6147C33.4565 10.362 33.3185 10.2714 33.2522 10.1266C33.1858 9.9792 33.2088 9.81879 33.3109 9.69466L38.8035 3.14227C38.8826 3.0491 38.9847 3 39.1073 3C39.2273 3 39.332 3.0491 39.4112 3.14227Z" fill="#00A4EF"/>
</svg>
