<svg width="45" height="45" viewBox="0 0 45 45" fill="none" xmlns="http://www.w3.org/2000/svg">
<path d="M30.9824 18.3083C26.2978 13.5348 18.7037 13.5348 14.0192 18.3083C9.33466 23.0817 9.33466 30.8201 14.0192 35.5936C18.7037 40.3671 26.2978 40.3671 30.9824 35.5936C35.6572 30.8201 35.6572 23.0817 30.9824 18.3083ZM17.2295 39.5863C15.3673 38.7759 13.7088 37.5504 12.3898 36.0186L9.35406 41.3752L12.4383 40.881C12.7001 40.8316 12.9717 40.9205 13.1463 41.1478L15.0278 43.5L17.2295 39.5863ZM32.6118 36.0186C31.283 37.5504 29.6342 38.7759 27.7624 39.5863L29.9737 43.4901L31.8552 41.138C32.0298 40.9205 32.3014 40.8217 32.5633 40.8711L35.6475 41.3653L32.6118 36.0186ZM27.2774 22.0836C24.6393 19.3954 20.3622 19.3954 17.7241 22.0836C15.086 24.7717 15.086 29.1301 17.7241 31.8183C20.3622 34.5065 24.6393 34.5065 27.2774 31.8183C29.9155 29.1301 29.9155 24.7717 27.2774 22.0836ZM22.4959 18.5553C27.0446 18.5553 30.7399 22.3109 30.7399 26.9559C30.7399 31.591 27.0543 35.3564 22.4959 35.3564C17.9472 35.3564 14.2519 31.6009 14.2519 26.9559C14.2616 22.3109 17.9472 18.5553 22.4959 18.5553ZM18.6552 27.5093C18.4515 27.1437 18.5679 26.689 18.9268 26.4815C19.2856 26.274 19.7318 26.3926 19.9354 26.7582L21.1187 28.8435L25.1728 24.7124C25.4637 24.416 25.939 24.416 26.2203 24.7124C26.5112 25.0089 26.5112 25.4833 26.2203 25.7798L21.4872 30.6027C21.1478 30.9486 20.5659 30.8794 20.3234 30.4446L18.6552 27.5093ZM39.6143 7.55558L41.0788 10.649L44.4152 11.1135C44.9874 11.1925 45.1911 11.9041 44.7934 12.2994L42.359 14.6713L42.9604 18.0513C43.0574 18.6245 42.4657 19.0495 41.9711 18.7827L39.0033 17.1618L36.0354 18.7827C35.5505 19.0495 34.9201 18.6344 35.0558 18.0118L35.6475 14.6713L33.2131 12.2994C32.8057 11.9041 33.0288 11.1925 33.601 11.1135L36.9277 10.649L38.3922 7.55558C38.6347 7.03178 39.3621 7.04166 39.6143 7.55558ZM6.5996 7.55558L8.06412 10.649L11.4005 11.1135C11.963 11.1925 12.1764 11.9041 11.7788 12.2994L9.34436 14.6713L9.94568 18.0513C10.0427 18.6245 9.45104 19.0495 8.9661 18.7827L5.99827 17.1618L3.03044 18.7827C2.5455 19.0495 1.92478 18.6344 2.05087 18.0118L2.64249 14.6713L0.208096 12.2994C-0.199253 11.9041 0.0238194 11.1925 0.596048 11.1135L3.92273 10.649L5.38725 7.55558C5.62972 7.03178 6.35713 7.04166 6.5996 7.55558ZM23.1069 0.390414L24.5715 3.48379L27.9078 3.94829C28.4704 4.02735 28.6837 4.73893 28.2861 5.13425L25.8517 7.50616L26.453 10.8861C26.55 11.4594 25.9584 11.8843 25.4637 11.6175L22.4959 9.98679L19.5281 11.6076C19.0431 11.8744 18.4224 11.4594 18.5485 10.8367L19.1401 7.49628L16.7057 5.12436C16.2984 4.72905 16.5215 4.01747 17.0937 3.93841L20.4204 3.47391L21.8849 0.38053C22.1371 -0.133385 22.8645 -0.123502 23.1069 0.390414Z" fill="#00A4EF"/>
</svg>
