<svg width="45" height="45" viewBox="0 0 45 45" fill="none" xmlns="http://www.w3.org/2000/svg">
<path d="M8.89498 35.175C8.96997 35.19 9.04504 35.19 9.12003 35.19H10.41V28.245C10.41 26.265 11.955 24.63 13.905 24.51C14.28 20.1 18 16.62 22.5 16.62C27 16.62 30.72 20.1 31.095 24.51C33.045 24.63 34.59 26.265 34.59 28.245V35.19H35.88C35.955 35.19 36.03 35.19 36.105 35.175C41.175 34.425 45 29.97 45 24.81C45 19.275 40.68 14.73 35.235 14.34C34.92 11.4901 33.645 8.83503 31.56 6.75C29.13 4.32 25.905 3 22.5 3C15.93 3 10.5 7.965 9.76501 14.34C4.32 14.73 0 19.275 0 24.81C0 29.97 3.82498 34.425 8.89498 35.175Z" fill="#00A4EF"/>
<path d="M22.4997 18.8701C18.9896 18.8701 16.1247 21.735 16.1247 25.2451V26.7451H14.1597C13.3347 26.7451 12.6597 27.4201 12.6597 28.2451V39.81C12.6597 40.65 13.3347 41.31 14.1597 41.31H30.8397C31.6647 41.31 32.3397 40.65 32.3397 39.81V28.2451C32.3397 27.4201 31.6647 26.7451 30.8397 26.7451H28.8747V25.2451C28.8747 21.735 26.0097 18.8701 22.4997 18.8701ZM25.8747 26.7451H19.1247V25.2451C19.1247 23.3851 20.6397 21.8701 22.4997 21.8701C24.3597 21.8701 25.8747 23.3851 25.8747 25.2451V26.7451Z" fill="#00A4EF"/>
</svg>
