<svg width="20" height="18" viewBox="0 0 20 18" fill="none" xmlns="http://www.w3.org/2000/svg">
<path d="M1 12.0244C1 13.0853 1.42143 14.1027 2.17157 14.8528C2.92172 15.603 3.93913 16.0244 5 16.0244H14C14.6608 16.0244 15.3151 15.8934 15.925 15.639C16.5348 15.3846 17.0882 15.0118 17.5532 14.5422C18.0181 14.0726 18.3853 13.5155 18.6336 12.9031C18.8819 12.2907 19.0064 11.6352 18.9997 10.9744C18.9931 10.3136 18.8556 9.66069 18.5951 9.05338C18.3346 8.44607 17.9563 7.89643 17.4821 7.43622C17.0079 6.97601 16.4471 6.61438 15.8323 6.37222C15.2174 6.13006 14.5607 6.01217 13.9 6.02539C13.7734 5.37244 13.5178 4.75129 13.1483 4.19829C12.7787 3.6453 12.3026 3.17156 11.7477 2.8048C11.1928 2.43803 10.5704 2.18561 9.91682 2.0623C9.26323 1.93899 8.59162 1.94727 7.94127 2.08665C7.29092 2.22603 6.6749 2.49371 6.12924 2.87404C5.58359 3.25436 5.11927 3.73969 4.76345 4.30162C4.40763 4.86356 4.16745 5.49082 4.05696 6.14669C3.94648 6.80257 3.96791 7.4739 4.12 8.12139C3.23422 8.32134 2.44281 8.81666 1.87581 9.52596C1.30881 10.2353 0.999954 11.1163 1 12.0244Z" stroke="#00A4EF" stroke-width="2" stroke-linecap="round" stroke-linejoin="round"/>
</svg>
