<svg width="20" height="20" viewBox="0 0 20 20" fill="none" xmlns="http://www.w3.org/2000/svg">
<path d="M16.364 3.636L12.828 7.172M16.364 3.636C14.6762 1.94817 12.3869 1 10 1C7.61305 1 5.32383 1.94817 3.636 3.636M16.364 3.636C18.0518 5.32383 19 7.61305 19 10C19 11.1819 18.7672 12.3522 18.3149 13.4442C17.8626 14.5361 17.1997 15.5283 16.364 16.364M12.828 7.172C12.0779 6.42185 11.0609 6 10 6C8.93913 6 7.92215 6.42185 7.172 7.172M12.828 7.172C13.5781 7.92215 14 8.93913 14 10C14 11.0609 13.5781 12.0779 12.828 12.828M12.828 12.828L16.364 16.364M12.828 12.828C12.0779 13.5781 11.0609 14 10 14C8.93913 14 7.92215 13.5781 7.172 12.828M16.364 16.364C15.5283 17.1997 14.5361 17.8626 13.4442 18.3149C12.3522 18.7672 11.1819 19 10 19C8.8181 19 7.64778 18.7672 6.55585 18.3149C5.46392 17.8626 4.47173 17.1997 3.636 16.364M7.172 7.172L3.636 3.636M7.172 7.172C6.42185 7.92215 6 8.93913 6 10C6 11.0609 6.42185 12.0779 7.172 12.828M3.636 3.636C1.94817 5.32383 1 7.61305 1 10C1 11.1819 1.23279 12.3522 1.68508 13.4442C2.13738 14.5361 2.80027 15.5283 3.636 16.364M7.172 12.828L3.636 16.364" stroke="#00A4EF" stroke-width="2" stroke-linecap="round" stroke-linejoin="round"/>
</svg>
