<svg width="80" height="80" viewBox="0 0 80 80" fill="none" xmlns="http://www.w3.org/2000/svg">
<g clip-path="url(#clip0_777_2338)">
<path d="M80 35.7762C79.7923 36.7407 79.6587 37.7201 79.3619 38.6549C77.8632 43.3291 74.9252 46.5937 70.058 47.8846C69.6574 47.9885 69.2419 48.0627 68.8264 48.1072C68.4109 48.1518 67.9955 48.1666 67.5058 48.2111C67.4909 48.5375 67.4613 48.8343 67.4613 49.1459C67.4613 57.2182 67.4613 65.2905 67.4613 73.3628C67.4613 76.5383 65.6955 79.0015 62.8613 79.7583C62.2232 79.9363 61.5258 79.9957 60.858 79.9957C46.9541 79.9957 33.0502 79.9957 19.1463 79.9957C15.2437 79.9957 12.5579 77.3247 12.5431 73.4221C12.5282 65.3499 12.5431 57.2776 12.5431 49.2053C12.5431 48.8937 12.5431 48.5821 12.5431 48.3743C11.1482 48.0479 9.78305 47.9143 8.55143 47.4246C3.68432 45.4956 1.01335 41.7117 0.212059 36.6665C-0.574395 31.6807 0.820447 27.2884 4.50046 23.7271C5.74691 22.5104 7.23079 21.6646 8.86305 21.071C9.14499 20.9672 9.4566 20.6556 9.53079 20.3736C12.4243 10.1497 23.9541 5.90581 32.7831 11.8116C32.887 11.8858 32.9909 11.9452 33.1541 12.0491C33.3025 11.7671 33.4212 11.5297 33.5547 11.2923C36.7896 4.86709 41.9386 1.09806 49.0909 0.133543C49.2393 0.118705 49.3877 0.0445162 49.5212 0C50.6638 0 51.8064 0 52.9638 0C53.1567 0.0445162 53.3645 0.118705 53.5574 0.133543C56.1987 0.430318 58.7064 1.20192 60.9767 2.58193C67.5651 6.60323 70.9187 12.4794 70.9335 20.2401C70.9335 20.6407 70.8297 20.9968 71.3935 21.2194C75.7265 22.8962 78.2787 26.1607 79.4955 30.5381C79.7032 31.2801 79.8219 32.0517 79.9852 32.8085V35.7762H80ZM67.4613 45.0208C69.8355 45.0208 71.7942 44.2046 73.3819 42.6169C76.9136 39.0704 77.7148 34.8414 76.1123 30.182C74.9697 26.873 72.6993 24.6472 69.2271 23.7865C67.9509 23.4601 67.6393 22.911 67.6839 21.5904C67.7432 20.0916 67.8174 18.5484 67.5948 17.0794C66.378 9.39294 60.0271 3.63547 52.3554 3.13095C44.8025 2.62644 37.858 7.46388 35.5283 14.8239C34.9793 16.5452 33.8515 16.8272 32.516 15.5955C29.1179 12.4646 25.1708 11.3813 20.7489 12.7613C16.1934 14.171 13.4185 17.3613 12.4095 22.0207C12.1721 23.1039 11.6527 23.6529 10.614 23.8607C9.27853 24.1129 8.09142 24.7214 7.08238 25.5968C3.68431 28.5498 2.61594 32.3336 3.38755 36.6517C3.95142 39.7975 5.59851 42.3053 8.40303 43.9227C9.64949 44.6498 10.9998 45.0653 12.5431 44.9762C12.5431 44.635 12.5431 44.353 12.5431 44.0711C12.5431 42.4834 12.5282 40.8956 12.5431 39.3078C12.6024 36.073 14.6502 33.5949 17.7663 33.0162C18.1966 32.942 18.6418 32.9272 19.0869 32.9272C33.0354 32.9272 46.9986 32.9272 60.9471 32.9272C64.7161 32.9272 67.3871 35.5685 67.4464 39.3375C67.4761 40.8511 67.4464 42.3646 67.4464 43.8633C67.4464 44.2195 67.4464 44.5756 67.4464 44.9911L67.4613 45.0208ZM15.7185 48.6266C15.7037 48.9085 15.674 49.1014 15.674 49.3092C15.674 57.3518 15.674 65.3943 15.674 73.4369C15.674 75.5886 16.9798 76.8647 19.1463 76.8647C33.0205 76.8647 46.8948 76.8647 60.769 76.8647C63.0838 76.8647 64.3303 75.6034 64.3303 73.2886C64.3303 65.3499 64.3303 57.4111 64.3303 49.4724C64.3303 49.1904 64.3006 48.9233 64.2858 48.6266H15.7037H15.7185ZM15.7037 45.4214H64.2858C64.2858 43.1956 64.3748 40.9995 64.2561 38.833C64.1671 37.1711 62.8019 36.073 61.1251 36.073C47.0432 36.073 32.9612 36.073 18.8644 36.073C17.1727 36.073 15.8224 37.1711 15.7334 38.833C15.6147 40.9995 15.7037 43.1956 15.7037 45.4214Z" fill="#00A4EF"/>
<path d="M24.3108 62.753C26.7147 64.9343 29.0295 67.0562 31.374 69.1633C31.8637 69.6085 32.3386 70.113 32.116 70.7659C31.9527 71.2556 31.5373 71.7304 31.1069 72.0124C30.5431 72.3685 29.9495 72.0866 29.4747 71.6562C27.6347 69.9943 25.8095 68.3323 23.9843 66.6704C23.0346 65.8098 22.0998 64.964 21.1501 64.0885C20.1856 63.1981 20.1559 62.293 21.1056 61.4175C23.8508 58.9098 26.6108 56.402 29.3708 53.9091C30.1869 53.1671 31.0921 53.1523 31.7302 53.82C32.3979 54.5175 32.3089 55.4523 31.4631 56.224C29.2966 58.2123 27.1153 60.1859 24.934 62.1595C24.7411 62.3375 24.563 62.5156 24.3108 62.753Z" fill="#00A4EF"/>
<path d="M55.7093 62.7372C54.5519 61.6837 53.4538 60.6598 52.3409 59.6508C51.0944 58.5082 49.8331 57.3804 48.5867 56.2379C47.726 55.4514 47.6222 54.5611 48.2602 53.8488C48.8983 53.1366 49.8183 53.1514 50.679 53.923C53.4241 56.4011 56.1545 58.894 58.8848 61.3869C59.8493 62.2624 59.8641 63.1973 58.9145 64.0579C56.1693 66.5657 53.4093 69.0734 50.6493 71.5663C50.0854 72.0857 49.4622 72.3082 48.7203 71.9521C47.6815 71.4476 47.5628 70.1566 48.5125 69.296C50.1745 67.7676 51.8661 66.2392 53.528 64.7256C54.2403 64.0727 54.9525 63.4347 55.7093 62.7372Z" fill="#00A4EF"/>
<path d="M44.7735 54.7252C44.64 55.1703 44.5806 55.4819 44.4767 55.7639C42.4587 60.809 40.4554 65.8394 38.4225 70.8697C38.0219 71.8639 37.3393 72.2942 36.5232 72.0865C35.529 71.8491 35.0541 70.9142 35.4696 69.8904C36.4935 67.2788 37.547 64.6819 38.5857 62.0703C39.5948 59.5329 40.589 56.9955 41.6277 54.4729C42.0877 53.36 43.2451 52.9594 44.0761 53.6568C44.4025 53.9387 44.5806 54.3987 44.7883 54.7103L44.7735 54.7252Z" fill="#00A4EF"/>
<path d="M25.1268 40.7019C25.1565 39.8412 25.854 39.1883 26.7146 39.218C27.5456 39.2477 28.243 39.9748 28.2281 40.8058C28.2133 41.6813 27.4565 42.3787 26.581 42.3342C25.7352 42.2896 25.0972 41.5774 25.1268 40.7167V40.7019Z" fill="#00A4EF"/>
<path d="M32.96 39.2182C33.791 39.2182 34.4884 39.9305 34.5032 40.7466C34.5032 41.5924 33.7762 42.3344 32.9303 42.3195C32.0549 42.3195 31.3723 41.5924 31.4019 40.7021C31.4316 39.8563 32.1142 39.1886 32.96 39.2034V39.2182Z" fill="#00A4EF"/>
<path d="M21.9356 40.7913C21.9356 41.6519 21.253 42.3345 20.4072 42.3345C19.5317 42.3345 18.8343 41.6074 18.864 40.732C18.8936 39.8862 19.591 39.2036 20.4369 39.2332C21.2827 39.2481 21.9504 39.9455 21.9504 40.8061L21.9356 40.7913Z" fill="#00A4EF"/>
</g>
<defs>
<clipPath id="clip0_777_2338">
<rect width="80" height="80" fill="white"/>
</clipPath>
</defs>
</svg>
