<svg width="80" height="80" viewBox="0 0 80 80" fill="none" xmlns="http://www.w3.org/2000/svg">
<path d="M40.885 -0.00012207C41.5187 0.444855 41.694 1.05164 41.6805 1.80675C41.6401 4.24738 41.6805 6.68802 41.6671 9.12865C41.6671 10.14 41.1681 10.7602 40.3726 10.7333C39.6175 10.7063 39.159 10.1265 39.159 9.12865C39.159 6.68802 39.186 4.24738 39.1455 1.80675C39.1455 1.03816 39.3073 0.444855 39.9411 -0.00012207H40.885Z" fill="#00A4EF"/>
<path d="M60.1262 64.1168C59.8296 63.6044 59.5464 63.1324 59.3037 62.7144C57.9688 63.0246 56.7013 63.4291 55.3933 63.6044C52.3324 64.0359 49.5007 63.2942 46.9118 61.6492C46.4938 61.393 46.2375 61.3525 45.833 61.6627C44.8217 62.4313 43.6621 62.9706 42.3946 62.9976C40.736 63.0246 39.037 63.119 37.4324 62.7953C34.3715 62.1751 32.1601 59.4108 31.9443 56.269C31.8634 55.0015 31.8904 53.7205 31.8634 52.4395C31.8095 50.3495 31.0409 48.5426 29.679 46.9784C28.6407 45.7783 27.589 44.5782 26.5642 43.3647C21.7908 37.7013 22.1818 28.5186 26.8743 22.8148C31.5263 17.1515 37.5807 14.9805 44.6599 16.7874C51.7661 18.6077 56.0001 23.4755 57.3889 30.6896C57.8744 33.1976 57.6451 35.7191 56.9979 38.2542C62.0949 39.8048 65.4794 43.0815 66.5177 48.3673C67.556 53.68 65.6143 57.9545 61.4342 61.339C61.6364 61.7031 61.7983 62.0942 62.0545 62.4043C62.2163 62.5931 62.5399 62.7818 62.7826 62.7684C63.9557 62.7144 64.7648 63.2133 65.3446 64.2112C67.4077 67.7979 69.4842 71.3713 71.5473 74.9715C72.5586 76.7379 72.1002 78.6662 70.4821 79.5696C68.8505 80.4865 67.0166 79.9067 65.9784 78.1268C63.9423 74.6209 61.9331 71.0881 59.8835 67.5822C59.1554 66.3551 59.1554 65.236 60.1397 64.0898L60.1262 64.1168ZM54.4089 37.9171C55.1101 36.3799 55.3798 33.1302 54.8944 30.8514C53.5999 24.8105 50.0266 20.7382 44.0262 19.2145C38.0931 17.7043 33.0096 19.4842 29.0318 24.1363C24.9595 28.8827 24.164 37.2159 29.0722 42.4882C29.8138 43.2838 30.5015 44.1467 31.2432 44.9558C32.4028 46.2503 33.3467 47.6661 33.8861 49.3247C33.9535 49.5134 34.1962 49.7696 34.3715 49.7831C34.9109 49.8505 35.4502 49.8101 36.0166 49.8101V36.8518C35.5716 36.8518 35.1805 36.8518 34.7895 36.8518C32.6051 36.7709 30.987 35.1258 31.0139 32.9953C31.0409 30.9458 32.6995 29.2737 34.749 29.2468C36.8526 29.2198 38.5111 30.8783 38.5785 33.0628C38.5785 33.4673 38.5785 33.8853 38.5785 34.3168H42.1788C42.2327 33.5482 42.2058 32.82 42.3676 32.1189C42.7856 30.2715 44.6599 29.0175 46.4803 29.2737C48.5029 29.5704 49.8783 31.202 49.8108 33.2381C49.7434 35.1663 48.1928 36.717 46.1701 36.8383C45.7117 36.8653 45.2532 36.8383 44.8217 36.8383V41.6117C48.5164 38.7126 49.5951 38.3081 54.4089 37.9036V37.9171ZM53.9235 40.4521C48.1793 40.4521 43.5542 45.0367 43.5272 50.7944C43.5003 56.5522 48.1523 61.2312 53.9235 61.2312C59.6003 61.2312 64.2928 56.5387 64.3063 50.8214C64.3063 45.1176 59.6543 40.4521 53.9235 40.4386V40.4521ZM40.8169 49.7831C42.6373 45.603 42.3137 41.2611 42.2058 36.8923H38.6594V49.7831H40.8169ZM44.3633 59.5996C43.5182 58.3231 42.3586 57.6848 40.8843 57.6848H34.9648C35.8413 60.6783 41.6934 61.8245 44.3633 59.5996ZM34.4524 52.3047V55.1498H41.6799C41.5046 54.3003 41.3563 53.4778 41.1405 52.6822C41.1001 52.5204 40.8304 52.3181 40.6686 52.3181C38.619 52.2912 36.5694 52.3047 34.4524 52.3047ZM61.8522 65.9911C63.9827 69.6857 66.0862 73.3399 68.2032 76.9807C68.2841 77.1155 68.3651 77.3043 68.4864 77.3312C68.7426 77.3987 69.0797 77.4796 69.255 77.3717C69.4438 77.2503 69.5517 76.9132 69.5652 76.657C69.5652 76.4548 69.3899 76.239 69.2685 76.0368C67.3268 72.6657 65.3716 69.2812 63.4164 65.9102C63.3085 65.7079 63.1736 65.5191 63.0253 65.3034C62.6073 65.5461 62.2432 65.7618 61.8387 65.9911H61.8522ZM36.0705 34.3168C36.0705 33.8448 36.0975 33.4134 36.0705 32.9819C36.0166 32.2672 35.4907 31.7548 34.8165 31.7548C34.1827 31.7548 33.6164 32.2402 33.5355 32.874C33.4546 33.5617 33.8456 34.182 34.5468 34.3033C35.0187 34.3842 35.5176 34.3168 36.0705 34.3168ZM44.7678 34.3977C45.415 34.3438 45.9679 34.3572 46.4668 34.2224C47.114 34.0471 47.4376 33.3864 47.2758 32.7391C47.1005 32.0784 46.6421 31.7143 45.9679 31.7548C45.3072 31.7953 44.8487 32.1728 44.7678 32.8605C44.7138 33.319 44.7678 33.7774 44.7678 34.3977Z" fill="#00A4EF"/>
<path d="M24.9195 16.5852C24.5689 16.9762 24.3262 17.4886 23.9621 17.5965C23.571 17.7178 22.9373 17.61 22.6271 17.3538C21.7642 16.6391 21.0225 15.8031 20.227 15.0075C19.1482 13.9288 18.056 12.8366 16.9773 11.7444C16.3166 11.0702 16.2492 10.369 16.7616 9.81613C17.3144 9.23631 18.0425 9.29025 18.7437 9.97794C20.5506 11.7713 22.3575 13.5782 24.1509 15.3851C24.4475 15.6817 24.6228 16.0863 24.9195 16.5717V16.5852Z" fill="#00A4EF"/>
<path d="M64.5765 10.5979C64.3068 11.0429 64.172 11.4204 63.9158 11.6766C62.0684 13.5509 60.2211 15.4117 58.3468 17.259C57.7265 17.8658 56.9984 17.8928 56.4725 17.3804C55.9466 16.8545 55.9601 16.1399 56.5669 15.5196C58.4277 13.6318 60.3155 11.7575 62.1898 9.88321C62.6213 9.46521 63.1472 9.23598 63.673 9.57308C64.0236 9.78883 64.2529 10.2203 64.5765 10.5979Z" fill="#00A4EF"/>
<path d="M68.4735 32.173C69.768 32.173 71.0759 32.173 72.3704 32.173C73.2873 32.173 73.8537 32.6719 73.8402 33.427C73.8402 34.1686 73.2469 34.6675 72.3435 34.6675C69.768 34.6675 67.1925 34.6675 64.617 34.6675C63.7136 34.6675 63.1203 34.1686 63.1068 33.4405C63.0933 32.6719 63.6731 32.1865 64.644 32.173C65.925 32.173 67.1925 32.173 68.4735 32.173Z" fill="#00A4EF"/>
<path d="M12.3939 32.173C13.6749 32.173 14.9424 32.173 16.2234 32.173C17.1538 32.173 17.7201 32.6449 17.7336 33.3865C17.7471 34.1282 17.1673 34.6675 16.2773 34.6675C13.6749 34.6675 11.0724 34.6675 8.47 34.6675C7.56656 34.6675 6.98675 34.1417 7.00023 33.4C7.00023 32.6584 7.58005 32.1865 8.49697 32.173C9.79145 32.173 11.0994 32.173 12.3939 32.173Z" fill="#00A4EF"/>
</svg>
