<svg width="80" height="80" viewBox="0 0 80 80" fill="none" xmlns="http://www.w3.org/2000/svg">
<g clip-path="url(#clip0_777_2336)">
<path d="M37.0158 80.0001C35.6498 79.021 35.5773 78.1748 36.7982 76.9659C37.185 76.5791 37.6202 76.2406 38.0312 75.8901C37.995 75.8175 37.9587 75.7571 37.9345 75.6846C37.3059 75.6241 36.6773 75.5516 36.0487 75.4911C21.6755 74.1131 9.26068 63.7411 5.36819 49.8515C-0.0474452 30.5462 11.086 10.8541 30.4276 5.54725C31.8299 5.16042 32.809 5.69231 32.8574 6.85281C32.8936 7.67482 32.4585 8.21881 31.4914 8.48476C28.2638 9.36722 25.1933 10.6365 22.3767 12.4619C14.0477 17.8775 8.94638 25.457 7.49576 35.3212C5.1506 51.29 14.8214 66.449 30.2825 71.1635C31.7452 71.6107 33.2563 71.8888 34.7673 72.1789C35.7586 72.3723 36.774 72.4207 37.8741 72.3965C37.3905 71.8888 36.8828 71.3932 36.4114 70.8854C35.9158 70.3535 35.819 69.7249 36.1696 69.0842C36.5202 68.4436 37.1004 68.1534 37.8136 68.3106C38.1521 68.3831 38.4906 68.5886 38.7445 68.8304C40.1225 70.1722 41.4885 71.5382 42.8424 72.9163C43.604 73.69 43.6524 74.5241 42.9271 75.2615C41.5369 76.7 40.0984 78.1023 38.6719 79.5166C38.4785 79.71 38.2126 79.843 37.9829 80.0001H37.04H37.0158Z" fill="white"/>
<path d="M54.3142 60.2959V19.7633H38.2366C38.2245 20.0896 38.2003 20.404 38.2003 20.7062C38.2003 23.9096 38.2003 27.1131 38.2003 30.3165C38.2003 31.9243 37.7047 32.432 36.109 32.432C32.7484 32.432 29.3878 32.432 26.0272 32.432C25.7129 32.432 25.4107 32.432 25.048 32.432V60.308C25.3019 60.308 25.5678 60.308 25.8459 60.308C27.9493 60.308 30.0648 60.308 32.1682 60.308C33.4012 60.308 34.0781 60.8762 34.054 61.8795C34.0419 62.8708 33.3528 63.4268 32.1198 63.4268C29.3394 63.4268 26.547 63.4268 23.7667 63.4268C22.4369 63.4268 21.8688 62.8466 21.8688 61.5168C21.8688 51.4109 21.8688 41.317 21.8688 31.211C21.8688 30.5099 22.1105 29.978 22.6062 29.4945C26.8613 25.4207 31.0802 21.3348 35.3595 17.2851C35.7705 16.8983 36.4596 16.6323 37.0156 16.6323C43.1807 16.584 49.358 16.5961 55.5231 16.6082C56.9253 16.6082 57.4814 17.1642 57.4814 18.5423C57.4814 32.8672 57.4814 47.1799 57.4814 61.5048C57.4814 62.8466 56.9133 63.4389 55.5956 63.4389C52.5735 63.4389 49.5514 63.4389 46.5293 63.4389C45.4171 63.4389 44.7402 62.774 44.7885 61.7828C44.8248 60.9003 45.4655 60.3322 46.4688 60.3201C48.7898 60.308 51.0987 60.3201 53.4197 60.3201C53.6977 60.3201 53.9758 60.3201 54.3021 60.3201L54.3142 60.2959ZM35.021 21.8908C32.4341 24.3811 29.968 26.7504 27.369 29.2406H35.021V21.8908Z" fill="white"/>
<path d="M41.4634 7.69905C41.9348 8.14632 42.4183 8.56942 42.8656 9.04087C43.5788 9.79036 43.5788 10.697 42.914 11.3256C42.2975 11.9179 41.3546 11.9059 40.6776 11.241C39.2633 9.85081 37.861 8.46063 36.4829 7.04628C35.7818 6.33306 35.7697 5.47477 36.4829 4.74946C37.8852 3.31093 39.2995 1.89659 40.738 0.494332C41.4271 -0.182623 42.3458 -0.146357 42.9744 0.494332C43.5788 1.12293 43.5909 1.9812 42.9502 2.67024C42.4546 3.19005 41.8864 3.64942 41.1974 4.26593C42.8535 4.47143 44.2316 4.6165 45.5976 4.83409C53.1892 6.0792 59.6686 9.48815 65.0721 14.9401C70.4999 20.4161 73.8 26.9923 74.9726 34.608C77.7409 52.4506 66.6557 69.5679 49.2362 74.3912C48.9824 74.4637 48.7406 74.5362 48.4747 74.5725C47.6527 74.6934 46.9273 74.234 46.7218 73.4845C46.4922 72.6383 46.9032 71.8526 47.7614 71.5625C48.8494 71.1998 49.9616 70.9339 51.0253 70.5108C62.7874 65.7842 69.9438 57.1893 71.8417 44.6656C74.4649 27.3912 62.9567 11.386 45.8273 8.03753C44.425 7.75949 42.9986 7.63862 41.5842 7.4452C41.548 7.52982 41.5117 7.61443 41.4754 7.69905H41.4634Z" fill="white"/>
<path d="M39.7588 45.6205C42.515 45.6205 45.2833 45.6205 48.0394 45.6205C49.3813 45.6205 49.9494 46.1766 49.9494 47.5184C49.9494 49.6218 49.9494 51.7373 49.9494 53.8406C49.9494 55.1462 49.345 55.7385 48.0273 55.7385C42.5029 55.7385 36.9906 55.7385 31.4661 55.7385C30.0881 55.7385 29.5199 55.1583 29.5199 53.7802C29.5199 51.701 29.5199 49.6097 29.5199 47.5305C29.5199 46.1524 30.076 45.6084 31.4782 45.6084C34.2344 45.6084 37.0027 45.6084 39.7588 45.6084V45.6205ZM32.6871 52.5714H46.7822V48.7877H32.6871V52.5714Z" fill="white"/>
<path d="M39.9529 40.4831C37.1967 40.4831 34.4406 40.4831 31.6723 40.4831C31.0195 40.4831 30.4151 40.2655 30.2096 39.649C30.0524 39.1896 30.0283 38.5006 30.2821 38.1379C30.5602 37.739 31.2008 37.4005 31.6965 37.3884C37.2088 37.3401 42.7332 37.3522 48.2456 37.3643C49.2368 37.3643 49.938 38.0654 49.9259 38.9358C49.9259 39.8182 49.2127 40.471 48.2093 40.471C45.4531 40.471 42.697 40.471 39.9287 40.471L39.9529 40.4831Z" fill="white"/>
<path d="M46.0695 29.301C46.819 29.301 47.5806 29.2769 48.33 29.301C49.2971 29.3373 49.9499 29.9901 49.9499 30.8484C49.9499 31.7067 49.2971 32.3715 48.33 32.3957C46.7948 32.432 45.2596 32.432 43.7364 32.3957C42.7452 32.3715 42.1407 31.7429 42.1407 30.8484C42.1407 29.9538 42.7573 29.3373 43.7364 29.301C44.5101 29.2648 45.2958 29.301 46.0695 29.301Z" fill="white"/>
<path d="M39.5658 63.415C38.7316 63.415 37.9943 62.726 37.958 61.916C37.9217 61.0457 38.6349 60.3082 39.5174 60.3203C40.3757 60.3203 41.0526 60.9852 41.0647 61.8435C41.0647 62.6897 40.3878 63.415 39.5537 63.4271L39.5658 63.415Z" fill="white"/>
</g>
<defs>
<clipPath id="clip0_777_2336">
<rect width="80" height="80" fill="white"/>
</clipPath>
</defs>
</svg>
