<svg width="80" height="80" viewBox="0 0 80 80" fill="none" xmlns="http://www.w3.org/2000/svg">
<g clip-path="url(#clip0_777_2334)">
<path d="M42.516 0.0136874C44.0016 0.220027 45.501 0.426383 46.9867 0.632723C47.2756 0.673991 47.5507 0.728995 47.8258 0.784019C48.8025 1.00411 49.3803 1.76071 49.2014 2.62733C49.0226 3.50772 48.2247 3.96166 47.2481 3.85162C44.7445 3.59025 42.2271 3.09503 39.7235 3.17757C25.4173 3.604 14.3988 9.98678 7.65838 22.5735C0.436497 36.0819 1.74333 49.4114 10.4646 61.9981C10.6159 62.2044 10.781 62.397 10.9323 62.5896C14.7702 61.1865 17.9203 62.0669 19.7086 65.0107C21.3318 67.6931 20.8228 71.1733 18.4843 73.2642C16.1458 75.3689 12.6656 75.5202 10.1482 73.6357C7.41077 71.5723 6.83301 68.3396 8.59378 64.7218C6.66794 62.2457 5.03098 59.5633 3.69666 56.7021C-6.64783 34.5274 5.6225 7.93714 29.2415 1.48559C31.7038 0.811544 34.29 0.577698 36.8211 0.137507C37.0549 0.0962392 37.275 0.0412069 37.4951 -6.10352e-05C39.1596 -6.10352e-05 40.824 -6.10352e-05 42.4885 -6.10352e-05L42.516 0.0136874ZM14.0962 64.9694C12.2116 64.9694 10.6709 66.4963 10.6709 68.3809C10.6709 70.2517 12.1979 71.8199 14.0687 71.8336C15.9807 71.8474 17.5352 70.293 17.5352 68.3671C17.5352 66.4826 15.9945 64.9556 14.0962 64.9694Z" fill="white"/>
<path d="M80 42.4785C79.7936 43.9504 79.6423 45.4085 79.3947 46.8667C76.8086 62.3559 64.7584 75.2178 49.4893 78.8356C43.9456 80.1424 38.3744 80.3075 32.762 79.3033C32.6657 79.2895 32.5556 79.2483 32.4594 79.2345C31.3039 78.9869 30.7674 78.3266 30.9325 77.3637C31.0975 76.4283 31.8678 75.9606 33.0096 76.1669C41.442 77.6938 49.5305 76.6621 57.0825 72.5904C67.5646 66.9504 74.0849 58.2291 76.2446 46.509C78.1705 36.0682 75.7632 26.5354 69.5592 17.9516C69.4492 17.8003 69.3391 17.6628 69.2291 17.5114C69.2016 17.4702 69.1603 17.4289 69.2153 17.4977C68.0461 17.7178 66.9731 18.0617 65.8864 18.0754C62.9564 18.1442 60.384 16.1083 59.6136 13.2746C58.8433 10.4684 60.0401 7.46957 62.5024 5.97017C65.0472 4.4295 68.1974 4.73214 70.3846 6.72675C72.5168 8.69386 73.1358 11.8577 71.7877 14.4439C71.4713 15.0491 71.5401 15.4068 71.939 15.9295C76.616 22.161 79.2572 29.1628 79.8762 36.9349C79.8899 37.1687 79.9587 37.3888 80 37.6089V42.451V42.4785ZM65.9277 14.9941C67.8122 14.9941 69.3529 13.4809 69.3804 11.5964C69.3941 9.68428 67.826 8.11611 65.9139 8.12987C64.0293 8.12987 62.5024 9.6843 62.5162 11.5689C62.5162 13.4534 64.0431 14.9803 65.9277 14.9941Z" fill="white"/>
<path d="M18.4836 52.493C17.6995 50.4709 16.998 48.6413 16.2551 46.8118C16.1726 46.6192 15.8562 46.4404 15.6362 46.4266C14.8796 46.3853 14.123 46.4266 13.3664 46.3991C12.1696 46.3853 11.5781 45.8076 11.5781 44.6246C11.5781 41.5295 11.5781 38.4344 11.5781 35.3393C11.5781 34.1013 12.1559 33.5648 13.4077 33.5373C14.288 33.5235 15.3748 33.8124 15.9938 33.3997C16.5715 33.0283 16.6128 31.8728 16.9429 31.1024C17.4244 29.9607 17.9609 28.8327 18.5661 27.5259C17.9746 26.9756 17.3006 26.3842 16.6541 25.7376C15.7737 24.871 15.7737 24.0319 16.6403 23.1652C18.8275 20.9643 21.0147 18.7771 23.2157 16.6036C24.0685 15.7645 24.8802 15.7783 25.733 16.6036C26.2558 17.1126 26.7785 17.6216 27.2737 18.1581C27.5626 18.4745 27.7826 18.502 28.1953 18.3094C29.7773 17.5941 31.3867 16.9338 33.0099 16.301C33.4226 16.136 33.6014 15.9846 33.5739 15.5444C33.5464 14.7879 33.5602 14.0313 33.5739 13.2747C33.6014 12.1742 34.1654 11.569 35.2659 11.569C38.416 11.569 41.5661 11.569 44.7163 11.569C45.858 11.569 46.422 12.1605 46.4358 13.316C46.4358 14.0725 46.4082 14.8291 46.4632 15.5719C46.477 15.792 46.6559 16.1359 46.8347 16.2047C48.6642 16.9475 50.4938 17.6353 52.5434 18.4332C53.0111 17.938 53.6164 17.2502 54.2629 16.6174C55.1295 15.7508 55.9549 15.7508 56.8353 16.6174C59.0087 18.7771 61.1821 20.9505 63.3556 23.124C64.2497 24.0181 64.236 24.8435 63.3419 25.7651C62.7641 26.3566 62.1726 26.9481 61.5811 27.5397C61.5536 27.5809 61.5398 27.6359 61.5811 27.5397C62.3377 29.4792 63.0255 31.3225 63.7683 33.1383C63.8508 33.3309 64.1672 33.5235 64.3873 33.5373C65.1714 33.5785 65.9417 33.5372 66.7258 33.5648C67.8263 33.5923 68.4315 34.1563 68.4315 35.243C68.4315 38.4206 68.4315 41.5982 68.4315 44.7621C68.4315 45.7938 67.8125 46.3853 66.7671 46.4129C65.9555 46.4266 65.1576 46.3853 64.346 46.4404C64.1397 46.4404 63.837 46.6742 63.7545 46.8668C63.0254 48.6688 62.3239 50.4846 61.5398 52.4792C62.035 52.9607 62.7091 53.566 63.3419 54.2125C64.2497 55.1204 64.2497 55.932 63.3419 56.8536C61.1822 59.0271 59.0087 61.2005 56.8215 63.3602C55.9549 64.2268 55.1158 64.2131 54.2491 63.3327C53.6026 62.6862 53.0111 62.0121 52.5434 61.5032C50.4938 62.301 48.6505 62.9888 46.8347 63.7316C46.6421 63.8142 46.4633 64.1305 46.4495 64.3506C46.4083 65.1072 46.4495 65.8638 46.4358 66.6066C46.422 67.8034 45.858 68.3949 44.675 68.3949C41.5799 68.3949 38.4848 68.3949 35.3897 68.3949C34.1517 68.3949 33.6014 67.8171 33.5877 66.5653C33.5877 65.8363 33.5739 65.1072 33.5877 64.3782C33.5877 63.993 33.4776 63.8004 33.0787 63.6491C31.2767 62.9888 29.5021 62.2597 27.5075 61.4756C27.0398 61.9709 26.4346 62.6449 25.788 63.2777C24.8801 64.1856 24.0548 64.1856 23.1606 63.2914C20.9872 61.1317 18.8138 58.9583 16.6541 56.7711C15.7875 55.8907 15.7875 55.0653 16.6541 54.1987C17.3006 53.5522 17.9746 52.9469 18.4836 52.4655V52.493ZM36.7103 14.7328C36.7103 15.5445 36.7103 16.3148 36.7103 17.0989C36.6965 18.1718 36.3114 18.6808 35.2659 18.9284C32.8449 19.5062 30.5751 20.4416 28.4567 21.7621C27.5901 22.2986 26.9298 22.2161 26.2145 21.487C25.6505 20.9093 25.1415 20.2903 24.6876 19.7813C22.9956 21.487 21.4687 23.0277 19.873 24.6371C20.3544 25.0911 20.9184 25.6001 21.4411 26.1228C22.2527 26.9482 22.3215 27.5672 21.7025 28.5576C20.437 30.5797 19.5428 32.7532 18.9926 35.0779C18.6899 36.3435 18.236 36.6736 16.9017 36.6874C16.1864 36.6874 15.4711 36.6874 14.7558 36.6874V43.304C15.5811 43.304 16.3515 43.304 17.1355 43.304C18.2085 43.304 18.7037 43.6892 18.9513 44.7484C19.5291 47.1419 20.4369 49.3979 21.7438 51.4888C22.3353 52.4242 22.2527 53.057 21.4411 53.8548C20.8909 54.4051 20.2857 54.9003 19.7904 55.3542C21.4549 57.0325 22.9956 58.5731 24.5362 60.1276C24.5362 60.1276 24.5775 60.1138 24.6188 60.0725C25.1415 59.5636 25.6505 59.0408 26.1732 58.5319C26.9435 57.7753 27.5763 57.679 28.4842 58.243C30.5751 59.536 32.8173 60.4714 35.2246 61.0354C36.3526 61.2968 36.7103 61.8058 36.7103 62.9888C36.7103 63.7316 36.7103 64.4882 36.7103 65.2585H43.3269C43.3269 64.4744 43.3269 63.7454 43.3269 63.0163C43.3269 61.7783 43.6846 61.3106 44.8538 61.0217C47.2198 60.4577 49.4483 59.536 51.5117 58.243C52.4334 57.6652 53.0661 57.734 53.8227 58.4906C54.3867 59.0546 54.9094 59.6736 55.3771 60.1963C57.0416 58.5181 58.5823 56.9774 60.178 55.368C59.669 54.8865 59.105 54.3638 58.5548 53.8136C57.7982 53.057 57.7019 52.4104 58.2659 51.5163C59.5865 49.3979 60.5081 47.1282 61.0859 44.7071C61.3197 43.7029 61.8287 43.3177 62.8604 43.304C63.6582 43.304 64.4561 43.304 65.2539 43.304V36.6874C64.4148 36.6874 63.6307 36.7011 62.8466 36.6874C61.8149 36.6599 61.3197 36.2747 61.0721 35.2705C60.4944 32.8495 59.5727 30.5797 58.2521 28.4613C57.6881 27.5672 57.7844 26.9206 58.541 26.1641C59.0912 25.6138 59.6827 25.1048 60.233 24.5959C58.5823 22.9589 57.0416 21.4182 55.4872 19.8776C55.4872 19.8776 55.4184 19.8913 55.3909 19.9326C54.8957 20.4278 54.3867 20.923 53.8915 21.4182C53.0249 22.2573 52.4334 22.3399 51.3879 21.6934C49.3383 20.4141 47.1373 19.5337 44.785 18.9697C43.6983 18.7083 43.3131 18.2268 43.2994 17.0989C43.2994 16.3285 43.2994 15.5582 43.2994 14.7741H36.6828L36.7103 14.7328Z" fill="white"/>
<path d="M55.956 4.34658C55.956 5.21321 55.2132 5.92852 54.3603 5.91476C53.5487 5.88725 52.8471 5.17194 52.8334 4.34658C52.8334 3.47995 53.5624 2.77839 54.4291 2.8059C55.2819 2.81965 55.9422 3.50747 55.9422 4.34658H55.956Z" fill="white"/>
<path d="M27.2469 75.672C27.2332 76.5386 26.5592 77.1852 25.6926 77.1714C24.8397 77.1714 24.1519 76.4836 24.1519 75.6307C24.1519 74.7641 24.9085 74.035 25.7613 74.0763C26.6142 74.1038 27.2607 74.8054 27.2469 75.672Z" fill="white"/>
<path d="M52.9157 40.4151C52.5305 47.6507 46.5466 53.2494 39.5861 52.8917C32.3505 52.5203 26.7518 46.5227 27.1095 39.5622C27.4809 32.3403 33.4647 26.7279 40.439 27.0855C47.6609 27.4569 53.2871 33.4683 52.9157 40.4151ZM49.8068 40.0161C49.8481 34.6651 45.4324 30.2219 40.0539 30.1944C34.689 30.1669 30.2596 34.5688 30.2321 39.9336C30.2046 45.2847 34.6065 49.7279 39.9851 49.7554C45.3361 49.7829 49.7793 45.381 49.8206 40.0024L49.8068 40.0161Z" fill="white"/>
</g>
<defs>
<clipPath id="clip0_777_2334">
<rect width="80" height="80" fill="white"/>
</clipPath>
</defs>
</svg>
