<svg width="100" height="100" viewBox="0 0 100 100" fill="none" xmlns="http://www.w3.org/2000/svg">
<g clip-path="url(#clip0_829_2396)">
<path d="M10.0002 45.0001H13.3336V48.3334H10.0002V45.0001Z" fill="#00A4EF"/>
<path d="M16.667 45.0001H20.0003V48.3334H16.667V45.0001Z" fill="#00A4EF"/>
<path d="M41.6669 26.6669H45.0002V30.0002H41.6669V26.6669Z" fill="#00A4EF"/>
<path d="M48.3335 26.6669H51.6668V30.0002H48.3335V26.6669Z" fill="#00A4EF"/>
<path d="M55.0001 26.6669H58.3334V30.0002H55.0001V26.6669Z" fill="#00A4EF"/>
<path d="M8.33362 66.6669H11.6669V70.0002H8.33362V66.6669Z" fill="#00A4EF"/>
<path d="M18.3335 66.6669H21.6668V70.0002H18.3335V66.6669Z" fill="#00A4EF"/>
<path d="M98.3334 90V61.8334L99.9668 53.6668C100.016 53.4246 100.011 53.1745 99.952 52.9345C99.8928 52.6945 99.781 52.4707 99.6247 52.2792C99.4683 52.0878 99.2713 51.9335 99.048 51.8276C98.8247 51.7217 98.5806 51.6667 98.3334 51.6668H96.6668V40.0001C96.6696 39.7423 96.6126 39.4872 96.5001 39.2552L93.1668 32.5885C93.0277 32.3102 92.8135 32.0763 92.5484 31.9135C92.2833 31.7506 91.9779 31.6651 91.6668 31.6668H75.0002V17.6969L77.4118 16.4919C77.6889 16.3534 77.9219 16.1405 78.0847 15.877C78.2475 15.6136 78.3336 15.3099 78.3335 15.0002V11.6669C78.3336 11.3572 78.2475 11.0535 78.0847 10.7901C77.9219 10.5266 77.6889 10.3137 77.4118 10.1752L75.0002 8.97023V5.00024C75.0002 4.72592 74.9325 4.45583 74.8031 4.21393C74.6738 3.97204 74.4867 3.76582 74.2585 3.61357L69.2585 0.280249C68.9846 0.0975174 68.6628 0 68.3335 0C68.0043 0 67.6824 0.0975174 67.4085 0.280249L62.4085 3.61357C62.1803 3.76582 61.9932 3.97204 61.8639 4.21393C61.7345 4.45583 61.6668 4.72592 61.6669 5.00024V13.3336H38.3336V5.00024C38.3336 4.72592 38.2659 4.45583 38.1366 4.21393C38.0072 3.97204 37.8201 3.76582 37.5919 3.61357L32.5919 0.280249C32.318 0.0975174 31.9962 0 31.6669 0C31.3377 0 31.0158 0.0975174 30.7419 0.280249L25.7419 3.61357C25.5138 3.76582 25.3267 3.97204 25.1973 4.21393C25.0679 4.45583 25.0002 4.72592 25.0003 5.00024V8.97023L22.5886 10.1752C22.3116 10.3137 22.0786 10.5266 21.9158 10.7901C21.753 11.0535 21.6668 11.3572 21.667 11.6669V15.0002C21.6668 15.3099 21.753 15.6136 21.9158 15.877C22.0786 16.1405 22.3116 16.3534 22.5886 16.4919L25.0003 17.6969V31.6668H8.33365C8.02393 31.6667 7.7203 31.7529 7.45682 31.9157C7.19334 32.0785 6.98043 32.3114 6.84199 32.5885L3.50866 39.2552C3.39334 39.4865 3.33342 39.7416 3.33367 40.0001V51.6668H1.667C1.41983 51.6667 1.17574 51.7217 0.952417 51.8276C0.729092 51.9335 0.532124 52.0878 0.375779 52.2792C0.219434 52.4707 0.107628 52.6945 0.0484585 52.9345C-0.0107106 53.1745 -0.015761 53.4246 0.0336734 53.6668L1.667 61.8334V90C1.22498 90 0.801054 90.1756 0.488494 90.4882C0.175934 90.8007 0.000340159 91.2247 0.000340159 91.6667V98.3333C0.000340159 98.7754 0.175934 99.1993 0.488494 99.5118C0.801054 99.8244 1.22498 100 1.667 100H98.3334C98.7755 100 99.1994 99.8244 99.5119 99.5118C99.8245 99.1993 100 98.7754 100 98.3333V91.6667C100 91.2247 99.8245 90.8007 99.5119 90.4882C99.1994 90.1756 98.7755 90 98.3334 90ZM93.3334 41.6668V51.6668H75.0002V41.6668H93.3334ZM96.3001 55.0001L95.3001 60.0001H92.0335L93.0334 55.0001H96.3001ZM89.6335 55.0001L88.6335 60.0001H83.7001L84.7001 55.0001H89.6335ZM81.3001 55.0001L80.3001 60.0001H75.0002V55.0001H81.3001ZM90.6335 35.0002L92.3001 38.3335H75.0002V35.0002H90.6335ZM65.0002 5.8919L68.3335 3.66691L71.6668 5.88857V8.33356H65.0002V5.8919ZM65.0002 11.6669H72.9402L75.0002 12.6969V13.9702L72.9402 15.0002H65.0002V11.6669ZM65.0002 18.3335H71.6668V31.6668H65.0002V18.3335ZM65.0002 35.0002H71.6668V38.3335H65.0002V35.0002ZM68.3335 60.0001V55.0001H71.6668V60.0001H68.3335ZM71.6668 63.3334V90H68.3335V63.3334H71.6668ZM66.6668 51.6668V41.6668H71.6668V51.6668H66.6668ZM63.3335 41.6668V51.6668H60.0002V41.6668H63.3335ZM38.3336 16.6669H61.6669V20.0002H38.3336V16.6669ZM38.3336 23.3335H61.6669V38.3335H38.3336V23.3335ZM56.6669 41.6668V51.6668H51.6669V41.6668H56.6669ZM48.3336 41.6668V51.6668H43.3336V41.6668H48.3336ZM36.6669 41.6668H40.0002V51.6668H36.6669V41.6668ZM28.3336 5.8919L31.6669 3.66691L35.0003 5.88857V8.33356H28.3336V5.8919ZM25.0003 12.6969L27.0603 11.6669H35.0003V15.0002H27.0603L25.0003 13.9702V12.6969ZM28.3336 60.0001V55.0001H31.6669V60.0001H28.3336ZM31.6669 63.3334V90H28.3336V63.3334H31.6669ZM28.3336 51.6668V41.6668H33.3336V51.6668H28.3336ZM28.3336 38.3335V35.0002H35.0003V38.3335H28.3336ZM28.3336 31.6668V18.3335H35.0003V31.6668H28.3336ZM9.36365 35.0002H25.0003V38.3335H7.69699L9.36365 35.0002ZM6.66699 41.6668H25.0003V51.6668H6.66699V41.6668ZM25.0003 55.0001V60.0001H19.7003L18.7003 55.0001H25.0003ZM16.3003 60.0001H11.367L10.367 55.0001H15.3003L16.3003 60.0001ZM6.96699 55.0001L7.96699 60.0001H4.69866L3.69866 55.0001H6.96699ZM21.667 96.6667H3.33367V93.3334H21.667V96.6667ZM11.667 90V78.3334C11.5663 76.9568 11.9869 75.5926 12.8453 74.5117L15.0003 72.3567L17.1553 74.5117C18.0137 75.5926 18.4343 76.9568 18.3336 78.3334V90H11.667ZM19.512 72.1551L16.1786 68.8217C15.8661 68.5093 15.4422 68.3338 15.0003 68.3338C14.5584 68.3338 14.1345 68.5093 13.822 68.8217L10.4886 72.1551C8.9862 73.8512 8.21203 76.0708 8.33365 78.3334V90H5.00033V63.3334H25.0003V90H21.667V78.3334C21.7886 76.0708 21.0144 73.8512 19.512 72.1551ZM38.3336 96.6667H25.0003V93.3334H38.3336V96.6667ZM38.3336 90H35.0003V55.0001H65.0002V90H61.6669V71.6667C61.714 69.5002 61.2401 67.354 60.285 65.4087C59.3299 63.4635 57.9216 61.776 56.1785 60.4884L51.1785 55.4884C50.866 55.176 50.4422 55.0005 50.0002 55.0005C49.5583 55.0005 49.1344 55.176 48.8219 55.4884L43.9169 60.4018C39.9519 63.8001 38.3336 67.0634 38.3336 71.6667V90ZM58.3335 96.6667H41.6669V71.6667C41.6669 68.0601 42.8652 65.6934 46.1786 62.8451L50.0002 59.0234L53.9169 62.9318C57.1352 65.6934 58.3335 68.0601 58.3335 71.6667V96.6667ZM75.0002 96.6667H61.6669V93.3334H75.0002V96.6667ZM75.0002 63.3334H95.0001V90H91.6668V78.3334C91.7884 76.0708 91.0142 73.8512 89.5118 72.1551L86.1785 68.8217C85.8659 68.5093 85.4421 68.3338 85.0001 68.3338C84.5582 68.3338 84.1343 68.5093 83.8218 68.8217L80.4885 72.1551C78.986 73.8512 78.2119 76.0708 78.3335 78.3334V90H75.0002V63.3334ZM88.3335 78.3334V90H81.6668V78.3334C81.5661 76.9568 81.9867 75.5926 82.8451 74.5117L85.0001 72.3567L87.1551 74.5117C88.0135 75.5926 88.4341 76.9568 88.3335 78.3334ZM96.6668 96.6667H78.3335V93.3334H96.6668V96.6667Z" fill="#00A4EF"/>
<path d="M86.6669 45.0001H90.0002V48.3334H86.6669V45.0001Z" fill="#00A4EF"/>
<path d="M80.0001 45.0001H83.3334V48.3334H80.0001V45.0001Z" fill="#00A4EF"/>
<path d="M88.3334 66.6669H91.6667V70.0002H88.3334V66.6669Z" fill="#00A4EF"/>
<path d="M78.3335 66.6669H81.6668V70.0002H78.3335V66.6669Z" fill="#00A4EF"/>
</g>
<defs>
<clipPath id="clip0_829_2396">
<rect width="100" height="100" fill="white"/>
</clipPath>
</defs>
</svg>
