<svg width="100" height="100" viewBox="0 0 100 100" fill="none" xmlns="http://www.w3.org/2000/svg">
<path d="M71.2229 99.8852C70.844 99.8852 70.4807 99.7347 70.2128 99.4668C69.9449 99.1989 69.7943 98.8355 69.7943 98.4566V22.5681L51.6886 14.9723L36.4843 20.9538V98.4566C36.4843 98.8355 36.3338 99.1989 36.0659 99.4668C35.798 99.7347 35.4346 99.8852 35.0558 99.8852C34.6769 99.8852 34.3135 99.7347 34.0456 99.4668C33.7777 99.1989 33.6272 98.8355 33.6272 98.4566V19.9795C33.6271 19.6925 33.7134 19.4121 33.875 19.1748C34.0365 18.9376 34.2658 18.7545 34.5329 18.6495L51.1829 12.0995C51.5293 11.963 51.9152 11.9671 52.2586 12.1109L71.7758 20.3009C72.0352 20.4098 72.2568 20.5929 72.4125 20.8272C72.5683 21.0616 72.6515 21.3367 72.6515 21.6181V98.4566C72.6515 98.8355 72.501 99.1989 72.2331 99.4668C71.9652 99.7347 71.6018 99.8852 71.2229 99.8852Z" fill="#00A4EF"/>
<path d="M51.7057 99.8853C51.3268 99.8853 50.9634 99.7348 50.6955 99.4668C50.4276 99.1989 50.2771 98.8356 50.2771 98.4567V13.4295C50.2771 13.0507 50.4276 12.6873 50.6955 12.4194C50.9634 12.1515 51.3268 12.001 51.7057 12.001C52.0846 12.001 52.4479 12.1515 52.7158 12.4194C52.9837 12.6873 53.1342 13.0507 53.1342 13.4295V98.4567C53.1342 98.8356 52.9837 99.1989 52.7158 99.4668C52.4479 99.7348 52.0846 99.8853 51.7057 99.8853Z" fill="#00A4EF"/>
<path d="M94.2873 99.8854C93.9084 99.8854 93.545 99.7349 93.2771 99.467C93.0092 99.199 92.8587 98.8357 92.8587 98.4568V53.5568L78.8901 45.4297H71.223C70.8441 45.4297 70.4808 45.2791 70.2129 45.0112C69.9449 44.7433 69.7944 44.38 69.7944 44.0011C69.7944 43.6222 69.9449 43.2588 70.2129 42.9909C70.4808 42.723 70.8441 42.5725 71.223 42.5725H79.2759C79.5269 42.5734 79.7733 42.6404 79.9901 42.7668L95.003 51.5011C95.2197 51.6262 95.3998 51.8061 95.5252 52.0227C95.6505 52.2393 95.7168 52.4851 95.7173 52.7354V98.4497C95.7182 98.638 95.6819 98.8246 95.6105 98.9989C95.539 99.1731 95.4338 99.3315 95.3009 99.4649C95.168 99.5984 95.01 99.7042 94.8361 99.7764C94.6621 99.8485 94.4756 99.8856 94.2873 99.8854Z" fill="#00A4EF"/>
<path d="M79.2759 99.8854C78.897 99.8854 78.5336 99.7349 78.2657 99.467C77.9978 99.199 77.8473 98.8357 77.8473 98.4568V44.0011C77.8473 43.6222 77.9978 43.2588 78.2657 42.9909C78.5336 42.723 78.897 42.5725 79.2759 42.5725C79.6547 42.5725 80.0181 42.723 80.286 42.9909C80.5539 43.2588 80.7044 43.6222 80.7044 44.0011V98.4568C80.7044 98.8357 80.5539 99.199 80.286 99.467C80.0181 99.7349 79.6547 99.8854 79.2759 99.8854Z" fill="#00A4EF"/>
<path d="M5.71153 99.8852C5.33265 99.8852 4.96929 99.7346 4.70138 99.4667C4.43347 99.1988 4.28296 98.8355 4.28296 98.4566V53.9637C4.28296 53.5848 4.43347 53.2215 4.70138 52.9536C4.96929 52.6857 5.33265 52.5352 5.71153 52.5352H35.0558C35.4347 52.5352 35.7981 52.6857 36.066 52.9536C36.3339 53.2215 36.4844 53.5848 36.4844 53.9637C36.4844 54.3426 36.3339 54.706 36.066 54.9739C35.7981 55.2418 35.4347 55.3923 35.0558 55.3923H7.1401V98.4566C7.1401 98.8355 6.98959 99.1988 6.72168 99.4667C6.45377 99.7346 6.09041 99.8852 5.71153 99.8852Z" fill="#00A4EF"/>
<path d="M13.5757 60.8796H10.54C10.1611 60.8796 9.79778 60.7291 9.52987 60.4612C9.26196 60.1933 9.11145 59.8299 9.11145 59.451C9.11145 59.0722 9.26196 58.7088 9.52987 58.4409C9.79778 58.173 10.1611 58.0225 10.54 58.0225H13.5757C13.9546 58.0225 14.318 58.173 14.5859 58.4409C14.8538 58.7088 15.0043 59.0722 15.0043 59.451C15.0043 59.8299 14.8538 60.1933 14.5859 60.4612C14.318 60.7291 13.9546 60.8796 13.5757 60.8796Z" fill="#00A4EF"/>
<path d="M21.9028 60.8796H18.8657C18.4868 60.8796 18.1235 60.7291 17.8556 60.4612C17.5876 60.1933 17.4371 59.8299 17.4371 59.451C17.4371 59.0722 17.5876 58.7088 17.8556 58.4409C18.1235 58.173 18.4868 58.0225 18.8657 58.0225H21.9028C22.2817 58.0225 22.6451 58.173 22.913 58.4409C23.1809 58.7088 23.3314 59.0722 23.3314 59.451C23.3314 59.8299 23.1809 60.1933 22.913 60.4612C22.6451 60.7291 22.2817 60.8796 21.9028 60.8796Z" fill="#00A4EF"/>
<path d="M30.2271 60.8796H27.1914C26.8125 60.8796 26.4491 60.7291 26.1812 60.4612C25.9133 60.1933 25.7628 59.8299 25.7628 59.451C25.7628 59.0722 25.9133 58.7088 26.1812 58.4409C26.4491 58.173 26.8125 58.0225 27.1914 58.0225H30.2271C30.606 58.0225 30.9693 58.173 31.2373 58.4409C31.5052 58.7088 31.6557 59.0722 31.6557 59.451C31.6557 59.8299 31.5052 60.1933 31.2373 60.4612C30.9693 60.7291 30.606 60.8796 30.2271 60.8796Z" fill="#00A4EF"/>
<path d="M13.5757 67.5838H10.54C10.1611 67.5838 9.79778 67.4333 9.52987 67.1654C9.26196 66.8975 9.11145 66.5341 9.11145 66.1553C9.11145 65.7764 9.26196 65.413 9.52987 65.1451C9.79778 64.8772 10.1611 64.7267 10.54 64.7267H13.5757C13.9546 64.7267 14.318 64.8772 14.5859 65.1451C14.8538 65.413 15.0043 65.7764 15.0043 66.1553C15.0043 66.5341 14.8538 66.8975 14.5859 67.1654C14.318 67.4333 13.9546 67.5838 13.5757 67.5838Z" fill="#00A4EF"/>
<path d="M21.9028 67.5838H18.8657C18.4868 67.5838 18.1235 67.4333 17.8556 67.1654C17.5876 66.8975 17.4371 66.5341 17.4371 66.1553C17.4371 65.7764 17.5876 65.413 17.8556 65.1451C18.1235 64.8772 18.4868 64.7267 18.8657 64.7267H21.9028C22.2817 64.7267 22.6451 64.8772 22.913 65.1451C23.1809 65.413 23.3314 65.7764 23.3314 66.1553C23.3314 66.5341 23.1809 66.8975 22.913 67.1654C22.6451 67.4333 22.2817 67.5838 21.9028 67.5838Z" fill="#00A4EF"/>
<path d="M30.2271 67.5838H27.1914C26.8125 67.5838 26.4491 67.4333 26.1812 67.1654C25.9133 66.8975 25.7628 66.5341 25.7628 66.1553C25.7628 65.7764 25.9133 65.413 26.1812 65.1451C26.4491 64.8772 26.8125 64.7267 27.1914 64.7267H30.2271C30.606 64.7267 30.9693 64.8772 31.2373 65.1451C31.5052 65.413 31.6557 65.7764 31.6557 66.1553C31.6557 66.5341 31.5052 66.8975 31.2373 67.1654C30.9693 67.4333 30.606 67.5838 30.2271 67.5838Z" fill="#00A4EF"/>
<path d="M13.5757 74.2868H10.54C10.1611 74.2868 9.79778 74.1363 9.52987 73.8684C9.26196 73.6005 9.11145 73.2371 9.11145 72.8583C9.11145 72.4794 9.26196 72.116 9.52987 71.8481C9.79778 71.5802 10.1611 71.4297 10.54 71.4297H13.5757C13.9546 71.4297 14.318 71.5802 14.5859 71.8481C14.8538 72.116 15.0043 72.4794 15.0043 72.8583C15.0043 73.2371 14.8538 73.6005 14.5859 73.8684C14.318 74.1363 13.9546 74.2868 13.5757 74.2868Z" fill="#00A4EF"/>
<path d="M21.9028 74.2868H18.8657C18.4868 74.2868 18.1235 74.1363 17.8556 73.8684C17.5876 73.6005 17.4371 73.2371 17.4371 72.8583C17.4371 72.4794 17.5876 72.116 17.8556 71.8481C18.1235 71.5802 18.4868 71.4297 18.8657 71.4297H21.9028C22.2817 71.4297 22.6451 71.5802 22.913 71.8481C23.1809 72.116 23.3314 72.4794 23.3314 72.8583C23.3314 73.2371 23.1809 73.6005 22.913 73.8684C22.6451 74.1363 22.2817 74.2868 21.9028 74.2868Z" fill="#00A4EF"/>
<path d="M30.2271 74.2868H27.1914C26.8125 74.2868 26.4491 74.1363 26.1812 73.8684C25.9133 73.6005 25.7628 73.2371 25.7628 72.8583C25.7628 72.4794 25.9133 72.116 26.1812 71.8481C26.4491 71.5802 26.8125 71.4297 27.1914 71.4297H30.2271C30.606 71.4297 30.9693 71.5802 31.2373 71.8481C31.5052 72.116 31.6557 72.4794 31.6557 72.8583C31.6557 73.2371 31.5052 73.6005 31.2373 73.8684C30.9693 74.1363 30.606 74.2868 30.2271 74.2868Z" fill="#00A4EF"/>
<path d="M13.5757 80.9911H10.54C10.1611 80.9911 9.79778 80.8405 9.52987 80.5726C9.26196 80.3047 9.11145 79.9414 9.11145 79.5625C9.11145 79.1836 9.26196 78.8202 9.52987 78.5523C9.79778 78.2844 10.1611 78.1339 10.54 78.1339H13.5757C13.9546 78.1339 14.318 78.2844 14.5859 78.5523C14.8538 78.8202 15.0043 79.1836 15.0043 79.5625C15.0043 79.9414 14.8538 80.3047 14.5859 80.5726C14.318 80.8405 13.9546 80.9911 13.5757 80.9911Z" fill="#00A4EF"/>
<path d="M21.9028 80.9911H18.8657C18.4868 80.9911 18.1235 80.8405 17.8556 80.5726C17.5876 80.3047 17.4371 79.9414 17.4371 79.5625C17.4371 79.1836 17.5876 78.8202 17.8556 78.5523C18.1235 78.2844 18.4868 78.1339 18.8657 78.1339H21.9028C22.2817 78.1339 22.6451 78.2844 22.913 78.5523C23.1809 78.8202 23.3314 79.1836 23.3314 79.5625C23.3314 79.9414 23.1809 80.3047 22.913 80.5726C22.6451 80.8405 22.2817 80.9911 21.9028 80.9911Z" fill="#00A4EF"/>
<path d="M30.2271 80.9911H27.1914C26.8125 80.9911 26.4491 80.8405 26.1812 80.5726C25.9133 80.3047 25.7628 79.9414 25.7628 79.5625C25.7628 79.1836 25.9133 78.8202 26.1812 78.5523C26.4491 78.2844 26.8125 78.1339 27.1914 78.1339H30.2271C30.606 78.1339 30.9693 78.2844 31.2373 78.5523C31.5052 78.8202 31.6557 79.1836 31.6557 79.5625C31.6557 79.9414 31.5052 80.3047 31.2373 80.5726C30.9693 80.8405 30.606 80.9911 30.2271 80.9911Z" fill="#00A4EF"/>
<path d="M13.5757 87.6953H10.54C10.1611 87.6953 9.79778 87.5448 9.52987 87.2769C9.26196 87.009 9.11145 86.6456 9.11145 86.2667C9.11145 85.8878 9.26196 85.5245 9.52987 85.2566C9.79778 84.9886 10.1611 84.8381 10.54 84.8381H13.5757C13.9546 84.8381 14.318 84.9886 14.5859 85.2566C14.8538 85.5245 15.0043 85.8878 15.0043 86.2667C15.0043 86.6456 14.8538 87.009 14.5859 87.2769C14.318 87.5448 13.9546 87.6953 13.5757 87.6953Z" fill="#00A4EF"/>
<path d="M21.9028 87.6953H18.8657C18.4868 87.6953 18.1235 87.5448 17.8556 87.2769C17.5876 87.009 17.4371 86.6456 17.4371 86.2667C17.4371 85.8878 17.5876 85.5245 17.8556 85.2566C18.1235 84.9886 18.4868 84.8381 18.8657 84.8381H21.9028C22.2817 84.8381 22.6451 84.9886 22.913 85.2566C23.1809 85.5245 23.3314 85.8878 23.3314 86.2667C23.3314 86.6456 23.1809 87.009 22.913 87.2769C22.6451 87.5448 22.2817 87.6953 21.9028 87.6953Z" fill="#00A4EF"/>
<path d="M30.2271 87.6953H27.1914C26.8125 87.6953 26.4491 87.5448 26.1812 87.2769C25.9133 87.009 25.7628 86.6456 25.7628 86.2667C25.7628 85.8878 25.9133 85.5245 26.1812 85.2566C26.4491 84.9886 26.8125 84.8381 27.1914 84.8381H30.2271C30.606 84.8381 30.9693 84.9886 31.2373 85.2566C31.5052 85.5245 31.6557 85.8878 31.6557 86.2667C31.6557 86.6456 31.5052 87.009 31.2373 87.2769C30.9693 87.5448 30.606 87.6953 30.2271 87.6953Z" fill="#00A4EF"/>
<path d="M13.5757 94.3995H10.54C10.1611 94.3995 9.79778 94.249 9.52987 93.9811C9.26196 93.7132 9.11145 93.3498 9.11145 92.9709C9.11145 92.592 9.26196 92.2287 9.52987 91.9608C9.79778 91.6929 10.1611 91.5424 10.54 91.5424H13.5757C13.9546 91.5424 14.318 91.6929 14.5859 91.9608C14.8538 92.2287 15.0043 92.592 15.0043 92.9709C15.0043 93.3498 14.8538 93.7132 14.5859 93.9811C14.318 94.249 13.9546 94.3995 13.5757 94.3995Z" fill="#00A4EF"/>
<path d="M21.9028 94.3995H18.8657C18.4868 94.3995 18.1235 94.249 17.8556 93.9811C17.5876 93.7132 17.4371 93.3498 17.4371 92.9709C17.4371 92.592 17.5876 92.2287 17.8556 91.9608C18.1235 91.6929 18.4868 91.5424 18.8657 91.5424H21.9028C22.2817 91.5424 22.6451 91.6929 22.913 91.9608C23.1809 92.2287 23.3314 92.592 23.3314 92.9709C23.3314 93.3498 23.1809 93.7132 22.913 93.9811C22.6451 94.249 22.2817 94.3995 21.9028 94.3995Z" fill="#00A4EF"/>
<path d="M30.2271 94.3995H27.1914C26.8125 94.3995 26.4491 94.249 26.1812 93.9811C25.9133 93.7132 25.7628 93.3498 25.7628 92.9709C25.7628 92.592 25.9133 92.2287 26.1812 91.9608C26.4491 91.6929 26.8125 91.5424 27.1914 91.5424H30.2271C30.606 91.5424 30.9693 91.6929 31.2373 91.9608C31.5052 92.2287 31.6557 92.592 31.6557 92.9709C31.6557 93.3498 31.5052 93.7132 31.2373 93.9811C30.9693 94.249 30.606 94.3995 30.2271 94.3995Z" fill="#00A4EF"/>
<path d="M46.67 27.4139C46.2911 27.4139 45.9278 27.2634 45.6599 26.9955C45.392 26.7276 45.2415 26.3643 45.2415 25.9854V23.2897C45.2415 22.9108 45.392 22.5474 45.6599 22.2795C45.9278 22.0116 46.2911 21.8611 46.67 21.8611C47.0489 21.8611 47.4123 22.0116 47.6802 22.2795C47.9481 22.5474 48.0986 22.9108 48.0986 23.2897V25.9854C48.0986 26.3643 47.9481 26.7276 47.6802 26.9955C47.4123 27.2634 47.0489 27.4139 46.67 27.4139Z" fill="#00A4EF"/>
<path d="M40.1556 29.0752C39.7767 29.0752 39.4134 28.9247 39.1455 28.6568C38.8776 28.3889 38.7271 28.0255 38.7271 27.6466V24.9509C38.7271 24.572 38.8776 24.2087 39.1455 23.9408C39.4134 23.6728 39.7767 23.5223 40.1556 23.5223C40.5345 23.5223 40.8979 23.6728 41.1658 23.9408C41.4337 24.2087 41.5842 24.572 41.5842 24.9509V27.6466C41.5842 28.0255 41.4337 28.3889 41.1658 28.6568C40.8979 28.9247 40.5345 29.0752 40.1556 29.0752Z" fill="#00A4EF"/>
<path d="M46.67 38.1594C46.2911 38.1594 45.9278 38.0089 45.6599 37.741C45.392 37.4731 45.2415 37.1097 45.2415 36.7309V34.0351C45.2415 33.6563 45.392 33.2929 45.6599 33.025C45.9278 32.7571 46.2911 32.6066 46.67 32.6066C47.0489 32.6066 47.4123 32.7571 47.6802 33.025C47.9481 33.2929 48.0986 33.6563 48.0986 34.0351V36.7309C48.0986 37.1097 47.9481 37.4731 47.6802 37.741C47.4123 38.0089 47.0489 38.1594 46.67 38.1594Z" fill="#00A4EF"/>
<path d="M40.1556 39.8207C39.7767 39.8207 39.4134 39.6702 39.1455 39.4023C38.8776 39.1344 38.7271 38.771 38.7271 38.3921V35.6964C38.7271 35.3175 38.8776 34.9542 39.1455 34.6862C39.4134 34.4183 39.7767 34.2678 40.1556 34.2678C40.5345 34.2678 40.8979 34.4183 41.1658 34.6862C41.4337 34.9542 41.5842 35.3175 41.5842 35.6964V38.3921C41.5842 38.771 41.4337 39.1344 41.1658 39.4023C40.8979 39.6702 40.5345 39.8207 40.1556 39.8207Z" fill="#00A4EF"/>
<path d="M46.67 48.9109C46.2911 48.9109 45.9278 48.7604 45.6599 48.4924C45.392 48.2245 45.2415 47.8612 45.2415 47.4823V44.7809C45.2415 44.402 45.392 44.0386 45.6599 43.7707C45.9278 43.5028 46.2911 43.3523 46.67 43.3523C47.0489 43.3523 47.4123 43.5028 47.6802 43.7707C47.9481 44.0386 48.0986 44.402 48.0986 44.7809V47.4823C48.0986 47.8612 47.9481 48.2245 47.6802 48.4924C47.4123 48.7604 47.0489 48.9109 46.67 48.9109Z" fill="#00A4EF"/>
<path d="M40.1556 50.5667C39.7767 50.5667 39.4134 50.4161 39.1455 50.1482C38.8776 49.8803 38.7271 49.517 38.7271 49.1381V46.4424C38.7271 46.0635 38.8776 45.7001 39.1455 45.4322C39.4134 45.1643 39.7767 45.0138 40.1556 45.0138C40.5345 45.0138 40.8979 45.1643 41.1658 45.4322C41.4337 45.7001 41.5842 46.0635 41.5842 46.4424V49.1381C41.5842 49.517 41.4337 49.8803 41.1658 50.1482C40.8979 50.4161 40.5345 50.5667 40.1556 50.5667Z" fill="#00A4EF"/>
<path d="M46.67 59.6494C46.2911 59.6494 45.9278 59.4989 45.6599 59.231C45.392 58.9631 45.2415 58.5997 45.2415 58.2208V55.5251C45.2415 55.1462 45.392 54.7829 45.6599 54.515C45.9278 54.2471 46.2911 54.0966 46.67 54.0966C47.0489 54.0966 47.4123 54.2471 47.6802 54.515C47.9481 54.7829 48.0986 55.1462 48.0986 55.5251V58.2208C48.0986 58.5997 47.9481 58.9631 47.6802 59.231C47.4123 59.4989 47.0489 59.6494 46.67 59.6494Z" fill="#00A4EF"/>
<path d="M40.1556 61.311C39.7767 61.311 39.4134 61.1605 39.1455 60.8926C38.8776 60.6247 38.7271 60.2613 38.7271 59.8825V57.1868C38.7271 56.8079 38.8776 56.4445 39.1455 56.1766C39.4134 55.9087 39.7767 55.7582 40.1556 55.7582C40.5345 55.7582 40.8979 55.9087 41.1658 56.1766C41.4337 56.4445 41.5842 56.8079 41.5842 57.1868V59.8825C41.5842 60.2613 41.4337 60.6247 41.1658 60.8926C40.8979 61.1605 40.5345 61.311 40.1556 61.311Z" fill="#00A4EF"/>
<path d="M46.67 70.395C46.2911 70.395 45.9278 70.2445 45.6599 69.9766C45.392 69.7087 45.2415 69.3453 45.2415 68.9665V66.2707C45.2415 65.8919 45.392 65.5285 45.6599 65.2606C45.9278 64.9927 46.2911 64.8422 46.67 64.8422C47.0489 64.8422 47.4123 64.9927 47.6802 65.2606C47.9481 65.5285 48.0986 65.8919 48.0986 66.2707V68.9665C48.0986 69.3453 47.9481 69.7087 47.6802 69.9766C47.4123 70.2445 47.0489 70.395 46.67 70.395Z" fill="#00A4EF"/>
<path d="M40.1556 72.0538C39.7767 72.0538 39.4134 71.9033 39.1455 71.6354C38.8776 71.3675 38.7271 71.0041 38.7271 70.6252V67.9324C38.7271 67.5535 38.8776 67.1901 39.1455 66.9222C39.4134 66.6543 39.7767 66.5038 40.1556 66.5038C40.5345 66.5038 40.8979 66.6543 41.1658 66.9222C41.4337 67.1901 41.5842 67.5535 41.5842 67.9324V70.6252C41.5842 71.0041 41.4337 71.3675 41.1658 71.6354C40.8979 71.9033 40.5345 72.0538 40.1556 72.0538Z" fill="#00A4EF"/>
<path d="M46.67 81.1409C46.2911 81.1409 45.9278 80.9904 45.6599 80.7224C45.392 80.4545 45.2415 80.0912 45.2415 79.7123V77.0166C45.2415 76.6377 45.392 76.2743 45.6599 76.0064C45.9278 75.7385 46.2911 75.588 46.67 75.588C47.0489 75.588 47.4123 75.7385 47.6802 76.0064C47.9481 76.2743 48.0986 76.6377 48.0986 77.0166V79.7123C48.0986 80.0912 47.9481 80.4545 47.6802 80.7224C47.4123 80.9904 47.0489 81.1409 46.67 81.1409Z" fill="#00A4EF"/>
<path d="M40.1556 82.8025C39.7767 82.8025 39.4134 82.652 39.1455 82.3841C38.8776 82.1162 38.7271 81.7528 38.7271 81.3739V78.6782C38.7271 78.2993 38.8776 77.936 39.1455 77.6681C39.4134 77.4001 39.7767 77.2496 40.1556 77.2496C40.5345 77.2496 40.8979 77.4001 41.1658 77.6681C41.4337 77.936 41.5842 78.2993 41.5842 78.6782V81.3739C41.5842 81.7528 41.4337 82.1162 41.1658 82.3841C40.8979 82.652 40.5345 82.8025 40.1556 82.8025Z" fill="#00A4EF"/>
<path d="M46.67 91.8852C46.2911 91.8852 45.9278 91.7347 45.6599 91.4668C45.392 91.1989 45.2415 90.8355 45.2415 90.4566V87.768C45.2415 87.3892 45.392 87.0258 45.6599 86.7579C45.9278 86.49 46.2911 86.3395 46.67 86.3395C47.0489 86.3395 47.4123 86.49 47.6802 86.7579C47.9481 87.0258 48.0986 87.3892 48.0986 87.768V90.4638C48.0967 90.8414 47.9454 91.2029 47.6777 91.4693C47.41 91.7357 47.0477 91.8852 46.67 91.8852Z" fill="#00A4EF"/>
<path d="M40.1556 93.5481C39.7767 93.5481 39.4134 93.3976 39.1455 93.1296C38.8776 92.8617 38.7271 92.4984 38.7271 92.1195V89.4223C38.7271 89.0435 38.8776 88.6801 39.1455 88.4122C39.4134 88.1443 39.7767 87.9938 40.1556 87.9938C40.5345 87.9938 40.8979 88.1443 41.1658 88.4122C41.4337 88.6801 41.5842 89.0435 41.5842 89.4223V92.1181C41.5844 92.3058 41.5476 92.4917 41.4759 92.6652C41.4042 92.8387 41.299 92.9963 41.1663 93.1291C41.0336 93.2619 40.8761 93.3673 40.7026 93.4392C40.5292 93.5111 40.3433 93.5481 40.1556 93.5481Z" fill="#00A4EF"/>
<path d="M56.5271 26.0538C56.1482 26.0538 55.7848 25.9033 55.5169 25.6354C55.249 25.3675 55.0985 25.0041 55.0985 24.6252V21.9324C55.0985 21.5535 55.249 21.1901 55.5169 20.9222C55.7848 20.6543 56.1482 20.5038 56.5271 20.5038C56.906 20.5038 57.2693 20.6543 57.5372 20.9222C57.8051 21.1901 57.9557 21.5535 57.9557 21.9324V24.6252C57.9557 25.0041 57.8051 25.3675 57.5372 25.6354C57.2693 25.9033 56.906 26.0538 56.5271 26.0538Z" fill="#00A4EF"/>
<path d="M61.3515 27.8753C60.9727 27.8753 60.6093 27.7248 60.3414 27.4569C60.0735 27.189 59.923 26.8256 59.923 26.4467V23.7524C59.923 23.3735 60.0735 23.0102 60.3414 22.7423C60.6093 22.4744 60.9727 22.3239 61.3515 22.3239C61.7304 22.3239 62.0938 22.4744 62.3617 22.7423C62.6296 23.0102 62.7801 23.3735 62.7801 23.7524V26.4481C62.7797 26.8268 62.6291 27.1898 62.3612 27.4574C62.0933 27.725 61.7302 27.8753 61.3515 27.8753Z" fill="#00A4EF"/>
<path d="M66.1728 29.6952C65.794 29.6952 65.4306 29.5447 65.1627 29.2768C64.8948 29.0089 64.7443 28.6455 64.7443 28.2667V25.5724C64.7443 25.1935 64.8948 24.8301 65.1627 24.5622C65.4306 24.2943 65.794 24.1438 66.1728 24.1438C66.5517 24.1438 66.9151 24.2943 67.183 24.5622C67.4509 24.8301 67.6014 25.1935 67.6014 25.5724V28.2681C67.601 28.6467 67.4504 29.0097 67.1825 29.2773C66.9146 29.5449 66.5515 29.6952 66.1728 29.6952Z" fill="#00A4EF"/>
<path d="M56.5271 36.7682C56.1482 36.7682 55.7848 36.6177 55.5169 36.3498C55.249 36.0819 55.0985 35.7185 55.0985 35.3396V32.6396C55.0985 32.2608 55.249 31.8974 55.5169 31.6295C55.7848 31.3616 56.1482 31.2111 56.5271 31.2111C56.906 31.2111 57.2693 31.3616 57.5372 31.6295C57.8051 31.8974 57.9557 32.2608 57.9557 32.6396V35.3396C57.9557 35.7185 57.8051 36.0819 57.5372 36.3498C57.2693 36.6177 56.906 36.7682 56.5271 36.7682Z" fill="#00A4EF"/>
<path d="M61.3515 38.5823C60.9727 38.5823 60.6093 38.4318 60.3414 38.1639C60.0735 37.896 59.923 37.5326 59.923 37.1537V34.4595C59.923 34.0806 60.0735 33.7172 60.3414 33.4493C60.6093 33.1814 60.9727 33.0309 61.3515 33.0309C61.7304 33.0309 62.0938 33.1814 62.3617 33.4493C62.6296 33.7172 62.7801 34.0806 62.7801 34.4595V37.1537C62.7801 37.5326 62.6296 37.896 62.3617 38.1639C62.0938 38.4318 61.7304 38.5823 61.3515 38.5823Z" fill="#00A4EF"/>
<path d="M66.1728 40.4023C65.794 40.4023 65.4306 40.2517 65.1627 39.9838C64.8948 39.7159 64.7443 39.3526 64.7443 38.9737V36.2794C64.7443 35.9005 64.8948 35.5372 65.1627 35.2692C65.4306 35.0013 65.794 34.8508 66.1728 34.8508C66.5517 34.8508 66.9151 35.0013 67.183 35.2692C67.4509 35.5372 67.6014 35.9005 67.6014 36.2794V38.9751C67.601 39.3537 67.4504 39.7167 67.1825 39.9843C66.9146 40.2519 66.5515 40.4023 66.1728 40.4023Z" fill="#00A4EF"/>
<path d="M56.5271 47.471C56.1482 47.471 55.7848 47.3205 55.5169 47.0526C55.249 46.7847 55.0985 46.4213 55.0985 46.0424V43.3396C55.0985 42.9607 55.249 42.5973 55.5169 42.3294C55.7848 42.0615 56.1482 41.911 56.5271 41.911C56.906 41.911 57.2693 42.0615 57.5372 42.3294C57.8051 42.5973 57.9557 42.9607 57.9557 43.3396V46.0353C57.9566 46.2235 57.9203 46.41 57.849 46.5842C57.7776 46.7583 57.6725 46.9167 57.5398 47.0501C57.407 47.1835 57.2492 47.2894 57.0754 47.3616C56.9016 47.4338 56.7153 47.471 56.5271 47.471Z" fill="#00A4EF"/>
<path d="M61.3515 49.2908C60.9727 49.2908 60.6093 49.1403 60.3414 48.8724C60.0735 48.6044 59.923 48.2411 59.923 47.8622V45.1665C59.923 44.7876 60.0735 44.4242 60.3414 44.1563C60.6093 43.8884 60.9727 43.7379 61.3515 43.7379C61.7304 43.7379 62.0938 43.8884 62.3617 44.1563C62.6296 44.4242 62.7801 44.7876 62.7801 45.1665V47.8622C62.7801 48.2411 62.6296 48.6044 62.3617 48.8724C62.0938 49.1403 61.7304 49.2908 61.3515 49.2908Z" fill="#00A4EF"/>
<path d="M66.1728 51.1097C65.794 51.1097 65.4306 50.9591 65.1627 50.6912C64.8948 50.4233 64.7443 50.06 64.7443 49.6811V46.9868C64.7443 46.6079 64.8948 46.2446 65.1627 45.9766C65.4306 45.7087 65.794 45.5582 66.1728 45.5582C66.5517 45.5582 66.9151 45.7087 67.183 45.9766C67.4509 46.2446 67.6014 46.6079 67.6014 46.9868V49.6825C67.601 50.0611 67.4504 50.4241 67.1825 50.6917C66.9146 50.9593 66.5515 51.1097 66.1728 51.1097Z" fill="#00A4EF"/>
<path d="M56.5271 58.178C56.1482 58.178 55.7848 58.0275 55.5169 57.7596C55.249 57.4917 55.0985 57.1283 55.0985 56.7494V54.0537C55.0985 53.6748 55.249 53.3114 55.5169 53.0435C55.7848 52.7756 56.1482 52.6251 56.5271 52.6251C56.906 52.6251 57.2693 52.7756 57.5372 53.0435C57.8051 53.3114 57.9557 53.6748 57.9557 54.0537V56.7494C57.9557 57.1283 57.8051 57.4917 57.5372 57.7596C57.2693 58.0275 56.906 58.178 56.5271 58.178Z" fill="#00A4EF"/>
<path d="M61.3515 59.9982C60.9727 59.9982 60.6093 59.8477 60.3414 59.5798C60.0735 59.3118 59.923 58.9485 59.923 58.5696V55.8739C59.923 55.495 60.0735 55.1316 60.3414 54.8637C60.6093 54.5958 60.9727 54.4453 61.3515 54.4453C61.7304 54.4453 62.0938 54.5958 62.3617 54.8637C62.6296 55.1316 62.7801 55.495 62.7801 55.8739V58.5696C62.7801 58.9485 62.6296 59.3118 62.3617 59.5798C62.0938 59.8477 61.7304 59.9982 61.3515 59.9982Z" fill="#00A4EF"/>
<path d="M66.1728 61.8179C65.794 61.8179 65.4306 61.6674 65.1627 61.3995C64.8948 61.1315 64.7443 60.7682 64.7443 60.3893V57.6936C64.7443 57.3147 64.8948 56.9513 65.1627 56.6834C65.4306 56.4155 65.794 56.265 66.1728 56.265C66.5517 56.265 66.9151 56.4155 67.183 56.6834C67.4509 56.9513 67.6014 57.3147 67.6014 57.6936V60.3893C67.6014 60.7682 67.4509 61.1315 67.183 61.3995C66.9151 61.6674 66.5517 61.8179 66.1728 61.8179Z" fill="#00A4EF"/>
<path d="M56.5271 68.8853C56.1482 68.8853 55.7848 68.7348 55.5169 68.4669C55.249 68.199 55.0985 67.8356 55.0985 67.4567V64.7682C55.0985 64.3893 55.249 64.0259 55.5169 63.758C55.7848 63.4901 56.1482 63.3396 56.5271 63.3396C56.906 63.3396 57.2693 63.4901 57.5372 63.758C57.8051 64.0259 57.9557 64.3893 57.9557 64.7682V67.4639C57.9538 67.8415 57.8024 68.2031 57.5347 68.4694C57.267 68.7358 56.9047 68.8853 56.5271 68.8853Z" fill="#00A4EF"/>
<path d="M61.3515 70.7052C60.9727 70.7052 60.6093 70.5547 60.3414 70.2868C60.0735 70.0189 59.923 69.6555 59.923 69.2766V66.5809C59.923 66.202 60.0735 65.8387 60.3414 65.5708C60.6093 65.3029 60.9727 65.1523 61.3515 65.1523C61.7304 65.1523 62.0938 65.3029 62.3617 65.5708C62.6296 65.8387 62.7801 66.202 62.7801 66.5809V69.2766C62.7801 69.6555 62.6296 70.0189 62.3617 70.2868C62.0938 70.5547 61.7304 70.7052 61.3515 70.7052Z" fill="#00A4EF"/>
<path d="M66.1728 72.5251C65.794 72.5251 65.4306 72.3746 65.1627 72.1067C64.8948 71.8388 64.7443 71.4755 64.7443 71.0966V68.4009C64.7443 68.022 64.8948 67.6586 65.1627 67.3907C65.4306 67.1228 65.794 66.9723 66.1728 66.9723C66.5517 66.9723 66.9151 67.1228 67.183 67.3907C67.4509 67.6586 67.6014 68.022 67.6014 68.4009V71.0966C67.6014 71.4755 67.4509 71.8388 67.183 72.1067C66.9151 72.3746 66.5517 72.5251 66.1728 72.5251Z" fill="#00A4EF"/>
<path d="M56.5271 79.5923C56.1482 79.5923 55.7848 79.4418 55.5169 79.1739C55.249 78.906 55.0985 78.5426 55.0985 78.1637V75.468C55.0985 75.0891 55.249 74.7258 55.5169 74.4578C55.7848 74.1899 56.1482 74.0394 56.5271 74.0394C56.906 74.0394 57.2693 74.1899 57.5372 74.4578C57.8051 74.7258 57.9557 75.0891 57.9557 75.468V78.1637C57.9557 78.5426 57.8051 78.906 57.5372 79.1739C57.2693 79.4418 56.906 79.5923 56.5271 79.5923Z" fill="#00A4EF"/>
<path d="M61.3515 81.4125C60.9727 81.4125 60.6093 81.262 60.3414 80.9941C60.0735 80.7262 59.923 80.3628 59.923 79.9839V77.2882C59.923 76.9093 60.0735 76.5459 60.3414 76.278C60.6093 76.0101 60.9727 75.8596 61.3515 75.8596C61.7304 75.8596 62.0938 76.0101 62.3617 76.278C62.6296 76.5459 62.7801 76.9093 62.7801 77.2882V79.9839C62.7801 80.3628 62.6296 80.7262 62.3617 80.9941C62.0938 81.262 61.7304 81.4125 61.3515 81.4125Z" fill="#00A4EF"/>
<path d="M66.1728 83.2324C65.794 83.2324 65.4306 83.0819 65.1627 82.814C64.8948 82.5461 64.7443 82.1827 64.7443 81.8039V79.1081C64.7443 78.7293 64.8948 78.3659 65.1627 78.098C65.4306 77.8301 65.794 77.6796 66.1728 77.6796C66.5517 77.6796 66.9151 77.8301 67.183 78.098C67.4509 78.3659 67.6014 78.7293 67.6014 79.1081V81.8039C67.6014 82.1827 67.4509 82.5461 67.183 82.814C66.9151 83.0819 66.5517 83.2324 66.1728 83.2324Z" fill="#00A4EF"/>
<path d="M56.5271 90.2994C56.1482 90.2994 55.7848 90.1489 55.5169 89.881C55.249 89.6131 55.0985 89.2498 55.0985 88.8709V86.1752C55.0985 85.7963 55.249 85.4329 55.5169 85.165C55.7848 84.8971 56.1482 84.7466 56.5271 84.7466C56.906 84.7466 57.2693 84.8971 57.5372 85.165C57.8051 85.4329 57.9557 85.7963 57.9557 86.1752V88.8709C57.9557 89.2498 57.8051 89.6131 57.5372 89.881C57.2693 90.1489 56.906 90.2994 56.5271 90.2994Z" fill="#00A4EF"/>
<path d="M61.3515 92.1194C60.9727 92.1194 60.6093 91.9689 60.3414 91.701C60.0735 91.4331 59.923 91.0697 59.923 90.6908V87.9951C59.923 87.6162 60.0735 87.2529 60.3414 86.9849C60.6093 86.717 60.9727 86.5665 61.3515 86.5665C61.7304 86.5665 62.0938 86.717 62.3617 86.9849C62.6296 87.2529 62.7801 87.6162 62.7801 87.9951V90.6908C62.7801 91.0697 62.6296 91.4331 62.3617 91.701C62.0938 91.9689 61.7304 92.1194 61.3515 92.1194Z" fill="#00A4EF"/>
<path d="M66.1728 93.9394C65.794 93.9394 65.4306 93.7889 65.1627 93.521C64.8948 93.2531 64.7443 92.8898 64.7443 92.5109V89.8152C64.7443 89.4363 64.8948 89.0729 65.1627 88.805C65.4306 88.5371 65.794 88.3866 66.1728 88.3866C66.5517 88.3866 66.9151 88.5371 67.183 88.805C67.4509 89.0729 67.6014 89.4363 67.6014 89.8152V92.5109C67.6014 92.8898 67.4509 93.2531 67.183 93.521C66.9151 93.7889 66.5517 93.9394 66.1728 93.9394Z" fill="#00A4EF"/>
<path d="M84.2414 56.4109C83.8626 56.4109 83.4992 56.2604 83.2313 55.9925C82.9634 55.7246 82.8129 55.3612 82.8129 54.9824V53.5381C82.8129 53.1592 82.9634 52.7958 83.2313 52.5279C83.4992 52.26 83.8626 52.1095 84.2414 52.1095C84.6203 52.1095 84.9837 52.26 85.2516 52.5279C85.5195 52.7958 85.67 53.1592 85.67 53.5381V54.9824C85.67 55.3612 85.5195 55.7246 85.2516 55.9925C84.9837 56.2604 84.6203 56.4109 84.2414 56.4109Z" fill="#00A4EF"/>
<path d="M89.0556 59.4367C88.6768 59.4367 88.3134 59.2862 88.0455 59.0183C87.7776 58.7504 87.6271 58.387 87.6271 58.0081V56.5638C87.6271 56.1849 87.7776 55.8216 88.0455 55.5537C88.3134 55.2858 88.6768 55.1353 89.0556 55.1353C89.4345 55.1353 89.7979 55.2858 90.0658 55.5537C90.3337 55.8216 90.4842 56.1849 90.4842 56.5638V58.0081C90.4842 58.387 90.3337 58.7504 90.0658 59.0183C89.7979 59.2862 89.4345 59.4367 89.0556 59.4367Z" fill="#00A4EF"/>
<path d="M84.2414 63.4653C83.8626 63.4653 83.4992 63.3148 83.2313 63.0469C82.9634 62.779 82.8129 62.4156 82.8129 62.0367V60.5939C82.8129 60.215 82.9634 59.8516 83.2313 59.5837C83.4992 59.3158 83.8626 59.1653 84.2414 59.1653C84.6203 59.1653 84.9837 59.3158 85.2516 59.5837C85.5195 59.8516 85.67 60.215 85.67 60.5939V62.0381C85.6696 62.4168 85.519 62.7798 85.2511 63.0474C84.9832 63.315 84.6201 63.4653 84.2414 63.4653Z" fill="#00A4EF"/>
<path d="M89.0556 66.4911C88.6768 66.4911 88.3134 66.3405 88.0455 66.0726C87.7776 65.8047 87.6271 65.4414 87.6271 65.0625V63.6253C87.6271 63.2465 87.7776 62.8831 88.0455 62.6152C88.3134 62.3473 88.6768 62.1968 89.0556 62.1968C89.4345 62.1968 89.7979 62.3473 90.0658 62.6152C90.3337 62.8831 90.4842 63.2465 90.4842 63.6253V65.0696C90.4823 65.4473 90.331 65.8088 90.0633 66.0752C89.7956 66.3415 89.4333 66.4911 89.0556 66.4911Z" fill="#00A4EF"/>
<path d="M84.2414 70.521C83.8626 70.521 83.4992 70.3705 83.2313 70.1026C82.9634 69.8347 82.8129 69.4713 82.8129 69.0925V67.6482C82.8129 67.2693 82.9634 66.9059 83.2313 66.638C83.4992 66.3701 83.8626 66.2196 84.2414 66.2196C84.6203 66.2196 84.9837 66.3701 85.2516 66.638C85.5195 66.9059 85.67 67.2693 85.67 67.6482V69.0925C85.67 69.4713 85.5195 69.8347 85.2516 70.1026C84.9837 70.3705 84.6203 70.521 84.2414 70.521Z" fill="#00A4EF"/>
<path d="M89.0556 73.5465C88.6768 73.5465 88.3134 73.396 88.0455 73.1281C87.7776 72.8602 87.6271 72.4969 87.6271 72.118V70.6737C87.6271 70.2948 87.7776 69.9314 88.0455 69.6635C88.3134 69.3956 88.6768 69.2451 89.0556 69.2451C89.4345 69.2451 89.7979 69.3956 90.0658 69.6635C90.3337 69.9314 90.4842 70.2948 90.4842 70.6737V72.118C90.4842 72.4969 90.3337 72.8602 90.0658 73.1281C89.7979 73.396 89.4345 73.5465 89.0556 73.5465Z" fill="#00A4EF"/>
<path d="M84.2414 77.5766C83.8626 77.5766 83.4992 77.4261 83.2313 77.1582C82.9634 76.8902 82.8129 76.5269 82.8129 76.148V74.7037C82.8129 74.3248 82.9634 73.9615 83.2313 73.6936C83.4992 73.4257 83.8626 73.2751 84.2414 73.2751C84.6203 73.2751 84.9837 73.4257 85.2516 73.6936C85.5195 73.9615 85.67 74.3248 85.67 74.7037V76.148C85.67 76.5269 85.5195 76.8902 85.2516 77.1582C84.9837 77.4261 84.6203 77.5766 84.2414 77.5766Z" fill="#00A4EF"/>
<path d="M89.0556 80.601C88.6768 80.601 88.3134 80.4505 88.0455 80.1826C87.7776 79.9147 87.6271 79.5513 87.6271 79.1724V77.7281C87.6271 77.3493 87.7776 76.9859 88.0455 76.718C88.3134 76.4501 88.6768 76.2996 89.0556 76.2996C89.4345 76.2996 89.7979 76.4501 90.0658 76.718C90.3337 76.9859 90.4842 77.3493 90.4842 77.7281V79.1724C90.4842 79.5513 90.3337 79.9147 90.0658 80.1826C89.7979 80.4505 89.4345 80.601 89.0556 80.601Z" fill="#00A4EF"/>
<path d="M84.2414 84.6252C83.8626 84.6252 83.4992 84.4747 83.2313 84.2068C82.9634 83.9388 82.8129 83.5755 82.8129 83.1966V81.758C82.8129 81.3792 82.9634 81.0158 83.2313 80.7479C83.4992 80.48 83.8626 80.3295 84.2414 80.3295C84.6203 80.3295 84.9837 80.48 85.2516 80.7479C85.5195 81.0158 85.67 81.3792 85.67 81.758V83.1966C85.67 83.5755 85.5195 83.9388 85.2516 84.2068C84.9837 84.4747 84.6203 84.6252 84.2414 84.6252Z" fill="#00A4EF"/>
<path d="M89.0556 87.6565C88.6768 87.6565 88.3134 87.506 88.0455 87.2381C87.7776 86.9702 87.6271 86.6068 87.6271 86.228V84.7837C87.6271 84.4048 87.7776 84.0414 88.0455 83.7735C88.3134 83.5056 88.6768 83.3551 89.0556 83.3551C89.4345 83.3551 89.7979 83.5056 90.0658 83.7735C90.3337 84.0414 90.4842 84.4048 90.4842 84.7837V86.228C90.4842 86.6068 90.3337 86.9702 90.0658 87.2381C89.7979 87.506 89.4345 87.6565 89.0556 87.6565Z" fill="#00A4EF"/>
<path d="M84.2414 91.6867C83.8626 91.6867 83.4992 91.5362 83.2313 91.2683C82.9634 91.0004 82.8129 90.637 82.8129 90.2581V88.8138C82.8129 88.4349 82.9634 88.0716 83.2313 87.8037C83.4992 87.5358 83.8626 87.3853 84.2414 87.3853C84.6203 87.3853 84.9837 87.5358 85.2516 87.8037C85.5195 88.0716 85.67 88.4349 85.67 88.8138V90.2581C85.67 90.637 85.5195 91.0004 85.2516 91.2683C84.9837 91.5362 84.6203 91.6867 84.2414 91.6867Z" fill="#00A4EF"/>
<path d="M89.0556 94.711C88.6768 94.711 88.3134 94.5605 88.0455 94.2926C87.7776 94.0246 87.6271 93.6613 87.6271 93.2824V91.8381C87.6271 91.4592 87.7776 91.0959 88.0455 90.828C88.3134 90.5601 88.6768 90.4095 89.0556 90.4095C89.4345 90.4095 89.7979 90.5601 90.0658 90.828C90.3337 91.0959 90.4842 91.4592 90.4842 91.8381V93.2824C90.4842 93.6613 90.3337 94.0246 90.0658 94.2926C89.7979 94.5605 89.4345 94.711 89.0556 94.711Z" fill="#00A4EF"/>
<path d="M98.5714 99.8625H1.42857C1.04969 99.8625 0.686328 99.712 0.418419 99.4441C0.15051 99.1762 0 98.8128 0 98.4339C0 98.0551 0.15051 97.6917 0.418419 97.4238C0.686328 97.1559 1.04969 97.0054 1.42857 97.0054H98.5714C98.9503 97.0054 99.3137 97.1559 99.5816 97.4238C99.8495 97.6917 100 98.0551 100 98.4339C100 98.8128 99.8495 99.1762 99.5816 99.4441C99.3137 99.712 98.9503 99.8625 98.5714 99.8625Z" fill="#00A4EF"/>
</svg>
