<svg width="100" height="100" viewBox="0 0 100 100" fill="none" xmlns="http://www.w3.org/2000/svg">
<path d="M64.2859 89.1427H67.8573V92.7141H64.2859V89.1427Z" fill="#00A4EF"/>
<path d="M96.4284 92.7143V88.2155L88.659 82.0001H46.4284C46.0022 82 45.59 81.8475 45.2664 81.5701L33.2679 71.2858H21.969L17.0619 74.5572C16.7685 74.7528 16.4239 74.8572 16.0713 74.8572H7.1427V78.4286H8.92841C9.16292 78.4286 9.39513 78.4748 9.61179 78.5645C9.82845 78.6543 10.0253 78.7858 10.1911 78.9516L23.9539 92.7143H42.857V87.3572C42.857 86.8836 43.0451 86.4294 43.38 86.0945C43.7149 85.7596 44.1691 85.5715 44.6427 85.5715H51.7856C52.2592 85.5715 52.7134 85.7596 53.0482 86.0945C53.3831 86.4294 53.5713 86.8836 53.5713 87.3572V92.7143H60.7141V87.3572C60.7141 86.8836 60.9023 86.4294 61.2372 86.0945C61.572 85.7596 62.0262 85.5715 62.4998 85.5715H69.6427C70.1163 85.5715 70.5705 85.7596 70.9054 86.0945C71.2403 86.4294 71.4284 86.8836 71.4284 87.3572V92.7143H96.4284ZM30.357 85.5715C30.0038 85.5715 29.6586 85.4668 29.3649 85.2705C29.0712 85.0743 28.8424 84.7954 28.7072 84.4691C28.572 84.1428 28.5367 83.7838 28.6056 83.4374C28.6745 83.091 28.8446 82.7728 29.0943 82.5231C29.344 82.2733 29.6622 82.1033 30.0086 82.0344C30.355 81.9655 30.7141 82.0008 31.0403 82.136C31.3666 82.2711 31.6455 82.5 31.8418 82.7937C32.038 83.0873 32.1427 83.4326 32.1427 83.7858C32.1427 84.2594 31.9546 84.7136 31.6197 85.0485C31.2848 85.3833 30.8306 85.5715 30.357 85.5715ZM37.4998 85.5715C37.1467 85.5715 36.8014 85.4668 36.5078 85.2705C36.2141 85.0743 35.9852 84.7954 35.8501 84.4691C35.7149 84.1428 35.6795 83.7838 35.7484 83.4374C35.8173 83.091 35.9874 82.7728 36.2372 82.5231C36.4869 82.2733 36.8051 82.1033 37.1515 82.0344C37.4979 81.9655 37.8569 82.0008 38.1832 82.136C38.5095 82.2711 38.7884 82.5 38.9846 82.7937C39.1808 83.0873 39.2856 83.4326 39.2856 83.7858C39.2856 84.2594 39.0974 84.7136 38.7625 85.0485C38.4276 85.3833 37.9734 85.5715 37.4998 85.5715ZM83.9284 85.5715C84.2816 85.5715 84.6268 85.6762 84.9205 85.8724C85.2142 86.0686 85.443 86.3475 85.5782 86.6738C85.7134 87.0001 85.7487 87.3592 85.6798 87.7056C85.6109 88.052 85.4408 88.3702 85.1911 88.6199C84.9414 88.8696 84.6232 89.0397 84.2768 89.1086C83.9304 89.1775 83.5713 89.1421 83.2451 89.007C82.9188 88.8718 82.6399 88.6429 82.4436 88.3493C82.2474 88.0556 82.1427 87.7104 82.1427 87.3572C82.1427 86.8836 82.3308 86.4294 82.6657 86.0945C83.0006 85.7596 83.4548 85.5715 83.9284 85.5715ZM76.7856 85.5715C77.1387 85.5715 77.484 85.6762 77.7776 85.8724C78.0713 86.0686 78.3002 86.3475 78.4353 86.6738C78.5705 87.0001 78.6059 87.3592 78.537 87.7056C78.4681 88.052 78.298 88.3702 78.0482 88.6199C77.7985 88.8696 77.4803 89.0397 77.1339 89.1086C76.7875 89.1775 76.4285 89.1421 76.1022 89.007C75.7759 88.8718 75.497 88.6429 75.3008 88.3493C75.1046 88.0556 74.9998 87.7104 74.9998 87.3572C74.9998 86.8836 75.188 86.4294 75.5229 86.0945C75.8578 85.7596 76.312 85.5715 76.7856 85.5715Z" fill="#00A4EF"/>
<path d="M46.4287 89.1427H50.0001V92.7141H46.4287V89.1427Z" fill="#00A4EF"/>
<path d="M50.144 78.4287H58.9286V67.4479L50.144 78.4287Z" fill="#00A4EF"/>
<path d="M3.57129 82V92.7143H18.903L8.1887 82H3.57129Z" fill="#00A4EF"/>
<path d="M79.3146 78.4284H89.2856C89.6912 78.4283 90.0849 78.5663 90.4016 78.8197L96.8885 84.0088L99.7266 64.1427H98.2141C93.9381 64.1415 89.7785 65.536 86.3674 68.1144C82.9562 70.6928 80.4798 74.3142 79.3146 78.4284Z" fill="#00A4EF"/>
<path d="M0 96.2858H100V99.8572H0V96.2858Z" fill="#00A4EF"/>
<path d="M5.35711 71.2857H15.5308L16.1312 70.8855L13.9676 58.9842C11.2847 57.6794 8.34048 57.0009 5.35711 57H0.580322L4.6984 71.4123C4.90795 71.3287 5.1315 71.2857 5.35711 71.2857Z" fill="#00A4EF"/>
<path d="M73.2143 75.1237L75.6777 78.2027C76.2219 75.9881 77.0942 73.8673 78.2657 71.9107L83.5746 42.7143H82.1429C77.1254 42.7039 72.2074 44.1139 67.9576 46.7813C71.4059 52.5723 73.2223 59.1887 73.2143 65.9286V75.1237Z" fill="#00A4EF"/>
<path d="M62.5 67.4479V78.4287H69.6429V76.3764L62.5 67.4479Z" fill="#00A4EF"/>
<path d="M46.1883 77.6563L59.32 61.2411C59.4873 61.0319 59.6995 60.8631 59.9408 60.7471C60.1822 60.6311 60.4466 60.5709 60.7144 60.5709C60.9822 60.5709 61.2466 60.6311 61.488 60.7471C61.7293 60.8631 61.9415 61.0319 62.1088 61.2411L69.643 70.6594V65.9286C69.6442 61.4727 68.7674 57.0602 67.0628 52.9432C65.3581 48.8263 62.859 45.0856 59.7082 41.9348C56.5574 38.784 52.8167 36.2849 48.6997 34.5802C44.5828 32.8756 40.1703 31.9988 35.7144 32H34.2019L39.9608 72.3185L46.1883 77.6563Z" fill="#00A4EF"/>
<path d="M20.438 68.0142C20.7313 67.8186 21.076 67.7142 21.4286 67.7142H33.9286C34.3549 67.7143 34.767 67.8667 35.0907 68.1441L35.8496 68.7946L32.9835 48.729C28.2054 44.8393 22.2327 42.7151 16.0715 42.7142H14.6398L19.369 68.727L20.438 68.0142Z" fill="#00A4EF"/>
</svg>
