<svg width="100" height="100" viewBox="0 0 100 100" fill="none" xmlns="http://www.w3.org/2000/svg">
<g clip-path="url(#clip0_829_2398)">
<path d="M10.4402 74.7203H89.5829V100.214H10.4402V74.7203Z" stroke="#00A4EF" stroke-width="4" stroke-miterlimit="10"/>
<path d="M28.0276 68.8813H36.0622V100.214H28.0276V68.8813Z" stroke="#00A4EF" stroke-width="4" stroke-miterlimit="10"/>
<path d="M32.0448 63.2875V68.8813" stroke="#00A4EF" stroke-width="4" stroke-miterlimit="10"/>
<path d="M65.3976 68.8813H73.4321V100.214H65.3976V68.8813Z" stroke="#00A4EF" stroke-width="4" stroke-miterlimit="10"/>
<path d="M69.4148 63.2875V68.8813" stroke="#00A4EF" stroke-width="4" stroke-miterlimit="10"/>
<path d="M89.6882 68.8813H100V100.214H89.6882V68.8813Z" stroke="#00A4EF" stroke-width="4" stroke-miterlimit="10"/>
<path d="M94.8497 63.2875V68.8813Z" fill="black"/>
<path d="M94.8497 63.2875V68.8813" stroke="#00A4EF" stroke-width="4" stroke-miterlimit="10"/>
<path d="M36.0272 64.1633H65.3977V100.097H36.0272V64.1633Z" stroke="#00A4EF" stroke-width="4" stroke-miterlimit="10"/>
<path d="M41.0021 54.6807H60.4228V64.175H41.0021V54.6807Z" stroke="#00A4EF" stroke-width="4" stroke-miterlimit="10"/>
<path d="M37.3584 45.7704H64.078V54.6808H37.3584V45.7704Z" stroke="#00A4EF" stroke-width="4" stroke-miterlimit="10"/>
<path d="M61.3919 45.7702C62.5017 44.3706 63.0579 42.6118 62.9545 40.8286C62.8511 39.0454 62.0954 37.3626 60.8313 36.1007L55.8448 31.1375C55.168 30.4599 54.3643 29.9223 53.4796 29.5555C52.5949 29.1888 51.6466 29 50.6889 29C49.7312 29 48.7829 29.1888 47.8982 29.5555C47.0135 29.9223 46.2098 30.4599 45.533 31.1375L40.5931 36.1007C39.3313 37.3639 38.5772 39.0464 38.4739 40.8288C38.3706 42.6113 38.9252 44.3696 40.0326 45.7702H61.3919Z" stroke="#00A4EF" stroke-width="4" stroke-miterlimit="10"/>
<path d="M46.0117 79.2278H55.4009V100.038H46.0117V79.2278Z" stroke="#00A4EF" stroke-width="4" stroke-miterlimit="10"/>
<path d="M10.3236 83.1404H27.0934" stroke="#00A4EF" stroke-width="4" stroke-miterlimit="10"/>
<path d="M10.3236 91.0815H27.0934" stroke="#00A4EF" stroke-width="4" stroke-miterlimit="10"/>
<path d="M73.1517 83.1404H89.9215" stroke="#00A4EF" stroke-width="4" stroke-miterlimit="10"/>
<path d="M73.1517 91.0815H89.9215" stroke="#00A4EF" stroke-width="4" stroke-miterlimit="10"/>
<path d="M0 68.8812H10.3118V100.214H0V68.8812Z" stroke="#00A4EF" stroke-width="4" stroke-miterlimit="10"/>
<path d="M5.16162 63.2875V68.8813Z" fill="black"/>
<path d="M5.16162 63.2875V68.8813" stroke="#00A4EF" stroke-width="4" stroke-miterlimit="10"/>
</g>
<defs>
<clipPath id="clip0_829_2398">
<rect width="100" height="100" fill="white"/>
</clipPath>
</defs>
</svg>
