<svg width="911" height="592" viewBox="0 0 911 592" fill="none" xmlns="http://www.w3.org/2000/svg">
<path d="M-1.28638e-05 13.4583C-1.31887e-05 6.02601 6.0248 0.00129574 13.457 0.00122011L72.1992 0.00121755C72.2438 0.00113667 72.2884 0.000241123 72.333 0.000240979L398.674 0.000226714C438.622 0.000259111 471.007 32.3857 471.007 72.3342C471.007 112.283 438.622 144.667 398.674 144.667L144.666 144.667L144.666 306.823C128.365 284.784 102.187 270.492 72.6699 270.492C42.7425 270.492 16.2475 285.184 0 307.747L-1.28638e-05 13.4583Z" fill="#00A4EF"/>
<circle cx="398.674" cy="72.333" r="62.2402" fill="white"/>
<path d="M399.966 33.4919C400.594 33.9329 400.768 34.5343 400.754 35.2826C400.714 37.7014 400.754 40.1201 400.741 42.5389C400.741 43.5411 400.247 44.1558 399.458 44.1291C398.71 44.1024 398.256 43.5278 398.256 42.5389C398.256 40.1201 398.282 37.7014 398.242 35.2826C398.242 34.5209 398.403 33.9329 399.031 33.4919H399.966Z" fill="#00A4EF"/>
<path d="M419.035 97.0341C418.741 96.5263 418.46 96.0585 418.22 95.6443C416.897 95.9516 415.64 96.3525 414.344 96.5263C411.311 96.9539 408.504 96.2189 405.939 94.5886C405.524 94.3347 405.271 94.2946 404.87 94.6019C403.867 95.3637 402.718 95.8982 401.462 95.9249C399.818 95.9516 398.135 96.0452 396.544 95.7245C393.511 95.1098 391.319 92.3703 391.105 89.2566C391.025 88.0005 391.052 86.731 391.025 85.4615C390.972 83.3902 390.21 81.5995 388.86 80.0493C387.832 78.86 386.789 77.6707 385.774 76.468C381.043 70.8554 381.43 61.755 386.081 56.1024C390.691 50.4898 396.691 48.3383 403.707 50.129C410.75 51.933 414.946 56.7572 416.322 63.9065C416.803 66.3921 416.576 68.891 415.934 71.4033C420.986 72.9401 424.34 76.1874 425.369 81.4258C426.398 86.6909 424.474 90.9271 420.331 94.2812C420.531 94.642 420.692 95.0296 420.946 95.3369C421.106 95.524 421.427 95.7111 421.667 95.6977C422.83 95.6443 423.632 96.1387 424.206 97.1276C426.251 100.682 428.309 104.224 430.353 107.791C431.356 109.542 430.901 111.453 429.298 112.348C427.681 113.257 425.863 112.682 424.834 110.918C422.817 107.444 420.825 103.943 418.794 100.468C418.073 99.2524 418.073 98.1432 419.048 97.0073L419.035 97.0341ZM413.369 71.0692C414.064 69.5458 414.331 66.3253 413.85 64.0669C412.567 58.0801 409.026 54.0444 403.079 52.5344C397.199 51.0377 392.161 52.8016 388.219 57.412C384.183 62.1158 383.395 70.3743 388.259 75.5994C388.994 76.3878 389.676 77.2431 390.411 78.0449C391.56 79.3277 392.495 80.7309 393.03 82.3746C393.097 82.5616 393.337 82.8155 393.511 82.8289C394.045 82.8957 394.58 82.8556 395.141 82.8556V70.0135C394.7 70.0135 394.313 70.0135 393.925 70.0135C391.76 69.9334 390.157 68.303 390.183 66.1916C390.21 64.1604 391.854 62.5034 393.885 62.4766C395.97 62.4499 397.613 64.0936 397.68 66.2585C397.68 66.6594 397.68 67.0736 397.68 67.5012H401.248C401.302 66.7395 401.275 66.0179 401.435 65.323C401.85 63.4923 403.707 62.2495 405.511 62.5034C407.516 62.7974 408.879 64.4143 408.812 66.4322C408.745 68.3431 407.208 69.8799 405.204 70.0002C404.749 70.0269 404.295 70.0002 403.867 70.0002V74.7308C407.529 71.8577 408.598 71.4568 413.369 71.0559V71.0692ZM412.888 73.5815C407.195 73.5815 402.611 78.125 402.585 83.8312C402.558 89.5373 407.168 94.1743 412.888 94.1743C418.514 94.1743 423.164 89.5239 423.177 83.8579C423.177 78.2052 418.567 73.5815 412.888 73.5682V73.5815ZM399.899 82.8289C401.703 78.6863 401.382 74.3833 401.275 70.0536H397.76V82.8289H399.899ZM403.413 92.5574C402.576 91.2923 401.426 90.6598 399.965 90.6598H394.099C394.967 93.6264 400.767 94.7623 403.413 92.5574ZM393.591 85.3278V88.1475H400.754C400.58 87.3056 400.433 86.4904 400.219 85.702C400.179 85.5417 399.912 85.3412 399.752 85.3412C397.72 85.3145 395.689 85.3278 393.591 85.3278ZM420.745 98.8916C422.857 102.553 424.941 106.175 427.039 109.783C427.12 109.916 427.2 110.103 427.32 110.13C427.574 110.197 427.908 110.277 428.082 110.17C428.269 110.05 428.376 109.716 428.389 109.462C428.389 109.261 428.215 109.048 428.095 108.847C426.171 105.506 424.233 102.152 422.295 98.8114C422.188 98.6109 422.055 98.4238 421.908 98.21C421.494 98.4506 421.133 98.6644 420.732 98.8916H420.745ZM395.195 67.5012C395.195 67.0335 395.221 66.6059 395.195 66.1783C395.141 65.47 394.62 64.9622 393.952 64.9622C393.324 64.9622 392.763 65.4433 392.682 66.0714C392.602 66.7529 392.99 67.3676 393.685 67.4879C394.152 67.5681 394.647 67.5012 395.195 67.5012ZM403.814 67.5814C404.455 67.528 405.003 67.5413 405.498 67.4077C406.139 67.234 406.46 66.5792 406.3 65.9377C406.126 65.2829 405.671 64.9221 405.003 64.9622C404.349 65.0023 403.894 65.3765 403.814 66.058C403.761 66.5124 403.814 66.9667 403.814 67.5814Z" fill="#00A4EF"/>
<path d="M384.144 49.9286C383.796 50.3161 383.556 50.8239 383.195 50.9308C382.807 51.0511 382.179 50.9442 381.872 50.6903C381.017 49.982 380.282 49.1535 379.493 48.3651C378.424 47.296 377.342 46.2136 376.273 45.1312C375.618 44.463 375.551 43.7681 376.059 43.2202C376.607 42.6456 377.328 42.699 378.023 43.3806C379.814 45.1579 381.605 46.9486 383.382 48.7392C383.676 49.0332 383.85 49.4341 384.144 49.9152V49.9286Z" fill="#00A4EF"/>
<path d="M423.445 43.9948C423.178 44.4358 423.044 44.81 422.79 45.0639C420.959 46.9214 419.129 48.7655 417.271 50.5963C416.656 51.1976 415.935 51.2244 415.414 50.7165C414.893 50.1954 414.906 49.4871 415.507 48.8724C417.351 47.0016 419.222 45.1441 421.08 43.2866C421.507 42.8723 422.029 42.6451 422.55 42.9792C422.897 43.193 423.124 43.6207 423.445 43.9948Z" fill="#00A4EF"/>
<path d="M427.307 65.3765C428.59 65.3765 429.886 65.3765 431.169 65.3765C432.078 65.3765 432.639 65.8709 432.626 66.6192C432.626 67.3542 432.038 67.8487 431.142 67.8487C428.59 67.8487 426.038 67.8487 423.485 67.8487C422.59 67.8487 422.002 67.3542 421.989 66.6326C421.975 65.8709 422.55 65.3898 423.512 65.3765C424.781 65.3765 426.038 65.3765 427.307 65.3765Z" fill="#00A4EF"/>
<path d="M371.73 65.3765C373 65.3765 374.256 65.3765 375.525 65.3765C376.448 65.3765 377.009 65.8442 377.022 66.5792C377.036 67.3141 376.461 67.8487 375.579 67.8487C373 67.8487 370.421 67.8487 367.842 67.8487C366.946 67.8487 366.372 67.3275 366.385 66.5925C366.385 65.8575 366.96 65.3898 367.868 65.3765C369.151 65.3765 370.447 65.3765 371.73 65.3765Z" fill="#00A4EF"/>
<path d="M115.065 66.4277V50.4277L121.377 50.4277C122.591 50.4277 123.624 50.6595 124.479 51.123C125.333 51.5814 125.984 52.2194 126.432 53.0371C126.885 53.8496 127.111 54.7871 127.111 55.8496C127.111 56.9121 126.882 57.8496 126.424 58.6621C125.966 59.4746 125.302 60.1074 124.432 60.5605C123.567 61.0137 122.52 61.2402 121.291 61.2402L117.268 61.2402V58.5293L120.744 58.5293C121.395 58.5293 121.932 58.4173 122.354 58.1934C122.781 57.9642 123.098 57.6491 123.307 57.248C123.52 56.8418 123.627 56.3757 123.627 55.8496C123.627 55.3184 123.52 54.8548 123.307 54.459C123.098 54.0579 122.781 53.748 122.354 53.5293C121.927 53.3053 121.385 53.1934 120.729 53.1934H118.447V66.4277H115.065ZM129.309 66.4277V50.4277H132.691V63.6387H139.551V66.4277H129.309ZM144.957 66.4277H141.332L146.856 50.4277H151.215L156.731 66.4277H153.106L149.098 54.084H148.973L144.957 66.4277ZM144.731 60.1387H153.293V62.7793L144.731 62.7793V60.1387ZM172.039 50.4277V66.4277H169.117L162.156 56.3574H162.039V66.4277H158.656V50.4277H161.625L168.531 60.4902H168.672V50.4277H172.039ZM188.217 50.4277V66.4277H185.295L178.334 56.3574H178.217V66.4277H174.834V50.4277H177.803L184.709 60.4902H184.85V50.4277H188.217ZM194.395 50.4277V66.4277H191.012V50.4277H194.395ZM210.561 50.4277V66.4277H207.639L200.678 56.3574H200.561V66.4277H197.178V50.4277H200.147L207.053 60.4902H207.193V50.4277H210.561ZM223.965 55.5996C223.856 55.2194 223.702 54.8835 223.504 54.5918C223.306 54.2949 223.064 54.0449 222.777 53.8418C222.496 53.6335 222.173 53.4746 221.809 53.3652C221.449 53.2559 221.051 53.2012 220.613 53.2012C219.796 53.2012 219.077 53.4043 218.457 53.8105C217.843 54.2168 217.363 54.8079 217.02 55.584C216.676 56.3548 216.504 57.2975 216.504 58.4121C216.504 59.5267 216.673 60.4746 217.012 61.2559C217.35 62.0371 217.83 62.6335 218.449 63.0449C219.069 63.4512 219.801 63.6543 220.645 63.6543C221.41 63.6543 222.064 63.5189 222.606 63.248C223.152 62.972 223.569 62.584 223.856 62.084C224.147 61.584 224.293 60.9928 224.293 60.3105L224.981 60.4121H220.856V57.8652H227.551V59.8809C227.551 61.2871 227.254 62.4954 226.66 63.5059C226.066 64.5111 225.249 65.2871 224.207 65.834C223.165 66.3757 221.973 66.6465 220.629 66.6465C219.129 66.6465 217.811 66.3158 216.676 65.6543C215.54 64.9876 214.655 64.0423 214.02 62.8184C213.389 61.5892 213.074 60.1309 213.074 58.4434C213.074 57.1465 213.262 55.9902 213.637 54.9746C214.017 53.9538 214.548 53.0892 215.231 52.3809C215.913 51.6725 216.707 51.1335 217.613 50.7637C218.52 50.3939 219.501 50.209 220.559 50.209C221.465 50.209 222.309 50.3418 223.09 50.6074C223.871 50.8678 224.564 51.2376 225.168 51.7168C225.777 52.196 226.275 52.7663 226.66 53.4277C227.046 54.084 227.293 54.8079 227.402 55.5996H223.965ZM240.027 66.6621C238.923 66.6621 237.97 66.4642 237.168 66.0684C236.366 65.6725 235.749 65.1361 235.316 64.459C234.889 63.7767 234.676 63.0163 234.676 62.1777C234.676 61.5527 234.801 60.998 235.051 60.5137C235.301 60.0293 235.65 59.584 236.098 59.1777C236.546 58.7663 237.066 58.3574 237.66 57.9512L240.762 55.9121C241.163 55.6569 241.457 55.3887 241.645 55.1074C241.832 54.821 241.926 54.5111 241.926 54.1777C241.926 53.86 241.798 53.5658 241.543 53.2949C241.288 53.0241 240.926 52.8913 240.457 52.8965C240.145 52.8965 239.874 52.9668 239.645 53.1074C239.415 53.2428 239.236 53.4225 239.106 53.6465C238.981 53.8652 238.918 54.11 238.918 54.3809C238.918 54.7142 239.012 55.0527 239.199 55.3965C239.387 55.7402 239.637 56.1048 239.949 56.4902C240.262 56.8704 240.603 57.2819 240.973 57.7246L248.559 66.4277H245.09L238.762 59.3809C238.345 58.9069 237.928 58.4121 237.512 57.8965C237.1 57.3757 236.757 56.8236 236.481 56.2402C236.205 55.6517 236.066 55.0137 236.066 54.3262C236.066 53.5501 236.246 52.8522 236.606 52.2324C236.97 51.6126 237.481 51.123 238.137 50.7637C238.793 50.3991 239.559 50.2168 240.434 50.2168C241.288 50.2168 242.025 50.3913 242.645 50.7402C243.27 51.084 243.749 51.5423 244.082 52.1152C244.421 52.6829 244.59 53.3079 244.59 53.9902C244.59 54.7454 244.402 55.4303 244.027 56.0449C243.658 56.6543 243.137 57.2012 242.465 57.6855L239.199 60.0371C238.757 60.36 238.428 60.6908 238.215 61.0293C238.007 61.3626 237.902 61.6829 237.902 61.9902C237.902 62.3704 237.996 62.7116 238.184 63.0137C238.371 63.3158 238.637 63.5553 238.981 63.7324C239.324 63.9043 239.728 63.9902 240.191 63.9902C240.754 63.9902 241.309 63.8626 241.856 63.6074C242.408 63.347 242.908 62.9798 243.356 62.5059C243.809 62.0267 244.171 61.459 244.441 60.8027C244.712 60.1465 244.848 59.4199 244.848 58.623H247.606C247.606 59.6022 247.499 60.485 247.285 61.2715C247.072 62.0527 246.775 62.735 246.395 63.3184C246.014 63.8965 245.58 64.3704 245.09 64.7402C244.934 64.8392 244.783 64.9329 244.637 65.0215C244.491 65.11 244.34 65.2038 244.184 65.3027C243.59 65.7819 242.926 66.1283 242.191 66.3418C241.462 66.5553 240.741 66.6621 240.027 66.6621ZM123.669 90.4277H117.997V74.4277H123.716C125.325 74.4277 126.711 74.748 127.872 75.3887C129.034 76.0241 129.927 76.9382 130.552 78.1309C131.182 79.3236 131.497 80.7507 131.497 82.4121C131.497 84.0788 131.182 85.5111 130.552 86.709C129.927 87.9069 129.028 88.8262 127.857 89.4668C126.69 90.1074 125.294 90.4277 123.669 90.4277ZM121.38 87.5293H123.528C124.528 87.5293 125.37 87.3522 126.052 86.998C126.739 86.6387 127.255 86.084 127.599 85.334C127.948 84.5788 128.122 83.6048 128.122 82.4121C128.122 81.2298 127.948 80.2637 127.599 79.5137C127.255 78.7637 126.742 78.2116 126.06 77.8574C125.377 77.5033 124.536 77.3262 123.536 77.3262H121.38V87.5293ZM137.386 74.4277V90.4277H134.003V74.4277H137.386ZM148.849 79.0293C148.786 78.3991 148.518 77.9095 148.044 77.5605C147.57 77.2116 146.927 77.0371 146.114 77.0371C145.562 77.0371 145.096 77.1152 144.716 77.2715C144.336 77.4225 144.044 77.6335 143.841 77.9043C143.643 78.1751 143.544 78.4824 143.544 78.8262C143.534 79.1126 143.594 79.3626 143.724 79.5762C143.859 79.7897 144.044 79.9746 144.278 80.1309C144.513 80.2819 144.784 80.4147 145.091 80.5293C145.398 80.6387 145.726 80.7324 146.075 80.8105L147.513 81.1543C148.211 81.3105 148.851 81.5189 149.435 81.7793C150.018 82.0397 150.523 82.36 150.95 82.7402C151.377 83.1204 151.708 83.5684 151.942 84.084C152.182 84.5996 152.304 85.1908 152.31 85.8574C152.304 86.8366 152.054 87.6855 151.56 88.4043C151.07 89.1178 150.362 89.6725 149.435 90.0684C148.513 90.459 147.401 90.6543 146.099 90.6543C144.807 90.6543 143.682 90.4564 142.724 90.0605C141.771 89.6647 141.026 89.0788 140.489 88.3027C139.958 87.5215 139.679 86.5553 139.653 85.4043H142.927C142.963 85.9408 143.117 86.3887 143.388 86.748C143.664 87.1022 144.031 87.3704 144.489 87.5527C144.953 87.7298 145.476 87.8184 146.06 87.8184C146.633 87.8184 147.13 87.735 147.552 87.5684C147.979 87.4017 148.31 87.1699 148.544 86.873C148.778 86.5762 148.896 86.235 148.896 85.8496C148.896 85.4902 148.789 85.1882 148.575 84.9434C148.367 84.6986 148.06 84.4902 147.653 84.3184C147.252 84.1465 146.76 83.9902 146.177 83.8496L144.435 83.4121C143.086 83.084 142.021 82.571 141.239 81.873C140.458 81.1751 140.07 80.235 140.075 79.0527C140.07 78.084 140.328 77.2376 140.849 76.5137C141.375 75.7897 142.096 75.2246 143.013 74.8184C143.929 74.4121 144.971 74.209 146.138 74.209C147.325 74.209 148.362 74.4121 149.247 74.8184C150.138 75.2246 150.83 75.7897 151.325 76.5137C151.82 77.2376 152.075 78.0762 152.091 79.0293H148.849ZM168.702 80.0293H165.28C165.218 79.5866 165.09 79.1934 164.898 78.8496C164.705 78.5007 164.457 78.2038 164.155 77.959C163.853 77.7142 163.504 77.5267 163.108 77.3965C162.718 77.2663 162.293 77.2012 161.835 77.2012C161.007 77.2012 160.286 77.4069 159.671 77.8184C159.056 78.2246 158.58 78.8184 158.241 79.5996C157.903 80.3757 157.733 81.3184 157.733 82.4277C157.733 83.5684 157.903 84.5267 158.241 85.3027C158.585 86.0788 159.064 86.6647 159.679 87.0605C160.293 87.4564 161.004 87.6543 161.812 87.6543C162.265 87.6543 162.684 87.5944 163.069 87.4746C163.46 87.3548 163.806 87.1803 164.108 86.9512C164.411 86.7168 164.661 86.4329 164.858 86.0996C165.062 85.7663 165.202 85.3861 165.28 84.959L168.702 84.9746C168.614 85.709 168.392 86.4173 168.038 87.0996C167.689 87.7767 167.218 88.3835 166.624 88.9199C166.036 89.4512 165.332 89.873 164.515 90.1855C163.702 90.4928 162.783 90.6465 161.757 90.6465C160.33 90.6465 159.054 90.3236 157.929 89.6777C156.809 89.0319 155.924 88.097 155.273 86.873C154.627 85.6491 154.304 84.1673 154.304 82.4277C154.304 80.6829 154.632 79.1986 155.288 77.9746C155.944 76.7507 156.835 75.8184 157.96 75.1777C159.085 74.5319 160.351 74.209 161.757 74.209C162.684 74.209 163.543 74.3392 164.335 74.5996C165.132 74.86 165.838 75.2402 166.452 75.7402C167.067 76.235 167.567 76.8418 167.952 77.5605C168.343 78.2793 168.593 79.1022 168.702 80.0293ZM185.831 82.4277C185.831 84.1725 185.5 85.6569 184.839 86.8809C184.183 88.1048 183.287 89.0397 182.151 89.6855C181.021 90.3262 179.75 90.6465 178.339 90.6465C176.917 90.6465 175.641 90.3236 174.511 89.6777C173.381 89.0319 172.487 88.097 171.831 86.873C171.175 85.6491 170.847 84.1673 170.847 82.4277C170.847 80.6829 171.175 79.1986 171.831 77.9746C172.487 76.7507 173.381 75.8184 174.511 75.1777C175.641 74.5319 176.917 74.209 178.339 74.209C179.75 74.209 181.021 74.5319 182.151 75.1777C183.287 75.8184 184.183 76.7507 184.839 77.9746C185.5 79.1986 185.831 80.6829 185.831 82.4277ZM182.401 82.4277C182.401 81.2975 182.232 80.3444 181.894 79.5684C181.56 78.7923 181.089 78.2038 180.48 77.8027C179.87 77.4017 179.157 77.2012 178.339 77.2012C177.521 77.2012 176.808 77.4017 176.198 77.8027C175.589 78.2038 175.115 78.7923 174.776 79.5684C174.443 80.3444 174.276 81.2975 174.276 82.4277C174.276 83.5579 174.443 84.5111 174.776 85.2871C175.115 86.0632 175.589 86.6517 176.198 87.0527C176.808 87.4538 177.521 87.6543 178.339 87.6543C179.157 87.6543 179.87 87.4538 180.48 87.0527C181.089 86.6517 181.56 86.0632 181.894 85.2871C182.232 84.5111 182.401 83.5579 182.401 82.4277ZM190.325 74.4277L194.192 86.584H194.341L198.216 74.4277H201.966L196.45 90.4277H192.091L186.567 74.4277H190.325ZM203.892 90.4277V74.4277L214.673 74.4277V77.2168L207.274 77.2168V81.0293H214.118V83.8184H207.274V87.6387H214.704V90.4277H203.892ZM217.362 90.4277V74.4277H223.675C224.883 74.4277 225.914 74.6439 226.769 75.0762C227.628 75.5033 228.282 76.11 228.73 76.8965C229.183 77.6777 229.409 78.597 229.409 79.6543C229.409 80.7168 229.18 81.6309 228.722 82.3965C228.263 83.1569 227.599 83.7402 226.73 84.1465C225.865 84.5527 224.818 84.7559 223.589 84.7559H219.362V82.0371H223.042C223.688 82.0371 224.224 81.9486 224.651 81.7715C225.079 81.5944 225.396 81.3288 225.605 80.9746C225.818 80.6204 225.925 80.1803 225.925 79.6543C225.925 79.123 225.818 78.6751 225.605 78.3105C225.396 77.946 225.076 77.6699 224.644 77.4824C224.217 77.2897 223.677 77.1934 223.026 77.1934H220.745V90.4277H217.362ZM226.003 83.1465L229.98 90.4277H226.245L222.355 83.1465H226.003ZM230.196 74.4277H233.985L237.634 81.3184H237.79L241.439 74.4277H245.228L239.392 84.7715V90.4277H236.032V84.7715L230.196 74.4277Z" fill="white"/>
<path d="M910.39 578.239C910.39 585.671 904.365 591.696 896.933 591.696L511.716 591.696C471.768 591.696 439.384 559.311 439.383 519.363C439.384 479.415 471.768 447.029 511.716 447.029L765.723 447.029L765.723 284.872C782.024 306.912 808.203 321.204 837.72 321.204C867.648 321.204 894.143 306.512 910.39 283.949L910.39 578.239Z" fill="#00A4EF"/>
<circle cx="511.716" cy="519.117" r="62.2402" fill="white"/>
<path d="M548.664 516.239C548.477 517.107 548.357 517.989 548.09 518.831C546.74 523.041 544.094 525.98 539.711 527.143C539.35 527.237 538.976 527.303 538.602 527.344C538.227 527.384 537.853 527.397 537.412 527.437C537.399 527.731 537.372 527.998 537.372 528.279C537.372 535.549 537.372 542.818 537.372 550.088C537.372 552.948 535.782 555.166 533.23 555.847C532.655 556.008 532.027 556.061 531.426 556.061C518.904 556.061 506.383 556.061 493.861 556.061C490.347 556.061 487.928 553.656 487.915 550.141C487.901 542.872 487.915 535.602 487.915 528.332C487.915 528.052 487.915 527.771 487.915 527.584C486.659 527.29 485.429 527.17 484.32 526.729C479.937 524.992 477.531 521.584 476.81 517.04C476.102 512.55 477.358 508.595 480.672 505.388C481.794 504.292 483.131 503.53 484.601 502.996C484.855 502.902 485.135 502.621 485.202 502.368C487.808 493.16 498.191 489.338 506.142 494.657C506.236 494.724 506.329 494.777 506.476 494.871C506.61 494.617 506.717 494.403 506.837 494.189C509.75 488.403 514.387 485.009 520.828 484.14C520.962 484.127 521.096 484.06 521.216 484.02C522.245 484.02 523.274 484.02 524.316 484.02C524.49 484.06 524.677 484.127 524.851 484.14C527.229 484.407 529.488 485.102 531.532 486.345C537.466 489.966 540.486 495.258 540.499 502.247C540.499 502.608 540.406 502.929 540.913 503.129C544.816 504.639 547.114 507.579 548.21 511.521C548.397 512.19 548.504 512.884 548.651 513.566V516.239H548.664ZM537.372 524.564C539.51 524.564 541.274 523.829 542.704 522.399C545.885 519.205 546.606 515.397 545.163 511.201C544.134 508.221 542.089 506.216 538.962 505.441C537.813 505.147 537.533 504.653 537.573 503.463C537.626 502.114 537.693 500.724 537.492 499.401C536.397 492.479 530.677 487.294 523.768 486.839C516.967 486.385 510.712 490.741 508.614 497.37C508.12 498.92 507.104 499.174 505.902 498.065C502.842 495.245 499.287 494.269 495.305 495.512C491.202 496.782 488.703 499.655 487.794 503.851C487.581 504.826 487.113 505.321 486.178 505.508C484.975 505.735 483.906 506.283 482.997 507.071C479.937 509.731 478.975 513.138 479.67 517.027C480.177 519.86 481.661 522.118 484.186 523.575C485.309 524.23 486.525 524.604 487.915 524.524C487.915 524.216 487.915 523.963 487.915 523.709C487.915 522.279 487.901 520.849 487.915 519.419C487.968 516.506 489.812 514.274 492.619 513.753C493.006 513.686 493.407 513.673 493.808 513.673C506.369 513.673 518.944 513.673 531.506 513.673C534.9 513.673 537.305 516.052 537.359 519.446C537.386 520.809 537.359 522.172 537.359 523.522C537.359 523.842 537.359 524.163 537.359 524.537L537.372 524.564ZM490.774 527.811C490.761 528.065 490.734 528.239 490.734 528.426C490.734 535.669 490.734 542.912 490.734 550.155C490.734 552.092 491.91 553.242 493.861 553.242C506.356 553.242 518.851 553.242 531.345 553.242C533.43 553.242 534.553 552.106 534.553 550.021C534.553 542.872 534.553 535.722 534.553 528.573C534.553 528.319 534.526 528.078 534.512 527.811H490.761H490.774ZM490.761 524.925H534.512C534.512 522.92 534.593 520.943 534.486 518.991C534.406 517.495 533.176 516.506 531.666 516.506C518.984 516.506 506.303 516.506 493.607 516.506C492.084 516.506 490.868 517.495 490.788 518.991C490.681 520.943 490.761 522.92 490.761 524.925Z" fill="#00A4EF"/>
<path d="M498.512 540.533C500.677 542.497 502.762 544.408 504.873 546.306C505.314 546.707 505.742 547.161 505.541 547.749C505.394 548.19 505.02 548.618 504.633 548.872C504.125 549.192 503.59 548.939 503.163 548.551C501.506 547.054 499.862 545.558 498.218 544.061C497.363 543.286 496.521 542.524 495.666 541.736C494.797 540.934 494.771 540.119 495.626 539.33C498.098 537.072 500.584 534.814 503.069 532.569C503.804 531.9 504.619 531.887 505.194 532.488C505.795 533.116 505.715 533.958 504.953 534.653C503.002 536.444 501.038 538.221 499.074 539.999C498.9 540.159 498.74 540.319 498.512 540.533Z" fill="#00A4EF"/>
<path d="M526.789 540.519C525.746 539.57 524.758 538.648 523.755 537.739C522.633 536.71 521.497 535.695 520.374 534.666C519.599 533.958 519.506 533.156 520.08 532.514C520.655 531.873 521.484 531.886 522.259 532.581C524.731 534.813 527.19 537.058 529.648 539.303C530.517 540.091 530.53 540.933 529.675 541.708C527.203 543.967 524.717 546.225 522.232 548.47C521.724 548.938 521.163 549.138 520.495 548.817C519.559 548.363 519.452 547.201 520.308 546.425C521.804 545.049 523.328 543.673 524.824 542.31C525.466 541.722 526.107 541.147 526.789 540.519Z" fill="#00A4EF"/>
<path d="M516.94 533.304C516.82 533.704 516.767 533.985 516.673 534.239C514.856 538.782 513.052 543.313 511.221 547.843C510.86 548.738 510.245 549.126 509.51 548.939C508.615 548.725 508.187 547.883 508.562 546.961C509.484 544.609 510.432 542.27 511.368 539.918C512.277 537.633 513.172 535.348 514.107 533.076C514.522 532.074 515.564 531.713 516.312 532.341C516.606 532.595 516.767 533.01 516.954 533.29L516.94 533.304Z" fill="#00A4EF"/>
<path d="M499.247 520.675C499.274 519.9 499.902 519.312 500.677 519.338C501.425 519.365 502.054 520.02 502.04 520.768C502.027 521.557 501.345 522.185 500.557 522.145C499.795 522.104 499.221 521.463 499.247 520.688V520.675Z" fill="#00A4EF"/>
<path d="M506.302 519.339C507.05 519.339 507.678 519.98 507.691 520.715C507.691 521.477 507.037 522.145 506.275 522.131C505.486 522.131 504.872 521.477 504.898 520.675C504.925 519.913 505.54 519.312 506.302 519.325V519.339Z" fill="#00A4EF"/>
<path d="M496.373 520.755C496.373 521.53 495.759 522.145 494.997 522.145C494.209 522.145 493.58 521.49 493.607 520.702C493.634 519.94 494.262 519.325 495.024 519.352C495.785 519.365 496.387 519.993 496.387 520.768L496.373 520.755Z" fill="#00A4EF"/>
<path d="M670.224 519.267H664.552V503.267H670.27C671.88 503.267 673.265 503.588 674.427 504.228C675.588 504.864 676.481 505.778 677.106 506.97C677.737 508.163 678.052 509.59 678.052 511.252C678.052 512.918 677.737 514.351 677.106 515.549C676.481 516.747 675.583 517.666 674.411 518.306C673.244 518.947 671.849 519.267 670.224 519.267ZM667.935 516.369H670.083C671.083 516.369 671.924 516.192 672.606 515.838C673.294 515.478 673.81 514.924 674.153 514.174C674.502 513.418 674.677 512.444 674.677 511.252C674.677 510.069 674.502 509.103 674.153 508.353C673.81 507.603 673.297 507.051 672.614 506.697C671.932 506.343 671.091 506.166 670.091 506.166H667.935V516.369ZM680.558 519.267V503.267H691.339V506.056H683.94V509.869H690.784V512.658H683.94V516.478H691.37V519.267H680.558ZM694.028 519.267V503.267H700.341C701.554 503.267 702.588 503.499 703.442 503.963C704.297 504.421 704.948 505.059 705.395 505.877C705.849 506.689 706.075 507.627 706.075 508.689C706.075 509.752 705.846 510.689 705.388 511.502C704.929 512.314 704.265 512.947 703.395 513.4C702.531 513.853 701.484 514.08 700.255 514.08H696.231V511.369H699.708C700.359 511.369 700.895 511.257 701.317 511.033C701.744 510.804 702.062 510.489 702.27 510.088C702.484 509.681 702.591 509.215 702.591 508.689C702.591 508.158 702.484 507.694 702.27 507.299C702.062 506.898 701.744 506.588 701.317 506.369C700.89 506.145 700.349 506.033 699.692 506.033H697.411V519.267H694.028ZM708.272 519.267V503.267H711.655V516.478H718.515V519.267H708.272ZM734.835 511.267C734.835 513.012 734.504 514.497 733.843 515.72C733.187 516.944 732.291 517.879 731.155 518.525C730.025 519.166 728.754 519.486 727.343 519.486C725.921 519.486 724.645 519.163 723.515 518.517C722.384 517.872 721.491 516.937 720.835 515.713C720.179 514.489 719.851 513.007 719.851 511.267C719.851 509.523 720.179 508.038 720.835 506.814C721.491 505.59 722.384 504.658 723.515 504.017C724.645 503.372 725.921 503.049 727.343 503.049C728.754 503.049 730.025 503.372 731.155 504.017C732.291 504.658 733.187 505.59 733.843 506.814C734.504 508.038 734.835 509.523 734.835 511.267ZM731.405 511.267C731.405 510.137 731.236 509.184 730.897 508.408C730.564 507.632 730.093 507.043 729.483 506.642C728.874 506.241 728.16 506.041 727.343 506.041C726.525 506.041 725.812 506.241 725.202 506.642C724.593 507.043 724.119 507.632 723.78 508.408C723.447 509.184 723.28 510.137 723.28 511.267C723.28 512.398 723.447 513.351 723.78 514.127C724.119 514.903 724.593 515.491 725.202 515.892C725.812 516.293 726.525 516.494 727.343 516.494C728.16 516.494 728.874 516.293 729.483 515.892C730.093 515.491 730.564 514.903 730.897 514.127C731.236 513.351 731.405 512.398 731.405 511.267ZM735.437 503.267H739.226L742.874 510.158H743.03L746.679 503.267H750.468L744.632 513.611V519.267H741.272V513.611L735.437 503.267ZM752.315 503.267H756.487L760.894 514.017H761.081L765.487 503.267H769.659V519.267H766.378V508.853H766.245L762.104 519.189H759.87L755.729 508.814H755.597V519.267H752.315V503.267ZM772.446 519.267V503.267H783.228V506.056H775.829V509.869H782.673V512.658H775.829V516.478H783.259V519.267H772.446ZM799.3 503.267V519.267H796.378L789.417 509.197H789.3V519.267H785.917V503.267H788.886L795.792 513.33H795.933V503.267H799.3ZM801.485 506.056V503.267H814.626V506.056H809.728V519.267H806.384V506.056H801.485ZM826.726 519.502C825.621 519.502 824.668 519.304 823.866 518.908C823.064 518.512 822.447 517.976 822.015 517.299C821.588 516.616 821.374 515.856 821.374 515.017C821.374 514.392 821.499 513.838 821.749 513.353C821.999 512.869 822.348 512.424 822.796 512.017C823.244 511.606 823.765 511.197 824.358 510.791L827.46 508.752C827.861 508.497 828.155 508.228 828.343 507.947C828.53 507.661 828.624 507.351 828.624 507.017C828.624 506.7 828.496 506.405 828.241 506.135C827.986 505.864 827.624 505.731 827.155 505.736C826.843 505.736 826.572 505.806 826.343 505.947C826.114 506.082 825.934 506.262 825.804 506.486C825.679 506.705 825.616 506.95 825.616 507.22C825.616 507.554 825.71 507.892 825.897 508.236C826.085 508.58 826.335 508.944 826.647 509.33C826.96 509.71 827.301 510.122 827.671 510.564L835.257 519.267H831.788L825.46 512.22C825.043 511.747 824.627 511.252 824.21 510.736C823.798 510.215 823.455 509.663 823.179 509.08C822.903 508.491 822.765 507.853 822.765 507.166C822.765 506.39 822.944 505.692 823.304 505.072C823.668 504.452 824.179 503.963 824.835 503.603C825.491 503.239 826.257 503.056 827.132 503.056C827.986 503.056 828.723 503.231 829.343 503.58C829.968 503.924 830.447 504.382 830.78 504.955C831.119 505.523 831.288 506.148 831.288 506.83C831.288 507.585 831.101 508.27 830.726 508.885C830.356 509.494 829.835 510.041 829.163 510.525L825.897 512.877C825.455 513.2 825.127 513.53 824.913 513.869C824.705 514.202 824.601 514.523 824.601 514.83C824.601 515.21 824.694 515.551 824.882 515.853C825.069 516.155 825.335 516.395 825.679 516.572C826.022 516.744 826.426 516.83 826.89 516.83C827.452 516.83 828.007 516.702 828.554 516.447C829.106 516.187 829.606 515.819 830.054 515.345C830.507 514.866 830.869 514.299 831.14 513.642C831.41 512.986 831.546 512.26 831.546 511.463H834.304C834.304 512.442 834.197 513.325 833.983 514.111C833.77 514.892 833.473 515.575 833.093 516.158C832.713 516.736 832.278 517.21 831.788 517.58C831.632 517.679 831.481 517.773 831.335 517.861C831.189 517.95 831.038 518.043 830.882 518.142C830.288 518.622 829.624 518.968 828.89 519.181C828.16 519.395 827.439 519.502 826.726 519.502ZM684.314 535.267C684.314 537.012 683.984 538.497 683.322 539.72C682.666 540.944 681.77 541.879 680.635 542.525C679.505 543.166 678.234 543.486 676.822 543.486C675.4 543.486 674.124 543.163 672.994 542.517C671.864 541.872 670.971 540.937 670.314 539.713C669.658 538.489 669.33 537.007 669.33 535.267C669.33 533.523 669.658 532.038 670.314 530.814C670.971 529.59 671.864 528.658 672.994 528.017C674.124 527.372 675.4 527.049 676.822 527.049C678.234 527.049 679.505 527.372 680.635 528.017C681.77 528.658 682.666 529.59 683.322 530.814C683.984 532.038 684.314 533.523 684.314 535.267ZM680.885 535.267C680.885 534.137 680.715 533.184 680.377 532.408C680.044 531.632 679.572 531.043 678.963 530.642C678.353 530.241 677.64 530.041 676.822 530.041C676.005 530.041 675.291 530.241 674.682 530.642C674.072 531.043 673.598 531.632 673.26 532.408C672.926 533.184 672.76 534.137 672.76 535.267C672.76 536.398 672.926 537.351 673.26 538.127C673.598 538.903 674.072 539.491 674.682 539.892C675.291 540.293 676.005 540.494 676.822 540.494C677.64 540.494 678.353 540.293 678.963 539.892C679.572 539.491 680.044 538.903 680.377 538.127C680.715 537.351 680.885 536.398 680.885 535.267ZM686.82 543.267V527.267H693.133C694.346 527.267 695.38 527.499 696.234 527.963C697.089 528.421 697.74 529.059 698.187 529.877C698.641 530.689 698.867 531.627 698.867 532.689C698.867 533.752 698.638 534.689 698.18 535.502C697.721 536.314 697.057 536.947 696.187 537.4C695.323 537.853 694.276 538.08 693.047 538.08H689.023V535.369H692.5C693.151 535.369 693.687 535.257 694.109 535.033C694.536 534.804 694.854 534.489 695.062 534.088C695.276 533.681 695.383 533.215 695.383 532.689C695.383 532.158 695.276 531.694 695.062 531.299C694.854 530.898 694.536 530.588 694.109 530.369C693.682 530.145 693.141 530.033 692.484 530.033H690.203V543.267H686.82ZM700.455 530.056V527.267H713.596V530.056H708.697V543.267H705.353V530.056H700.455ZM719.143 527.267V543.267H715.76V527.267H719.143ZM721.926 527.267H726.098L730.504 538.017H730.691L735.098 527.267H739.27V543.267H735.988V532.853H735.855L731.715 543.189H729.48L725.34 532.814H725.207V543.267H721.926V527.267ZM745.439 527.267V543.267H742.057V527.267H745.439ZM748.051 543.267V541.26L756.035 530.056H748.035V527.267H760.285V529.275L752.293 540.478H760.301V543.267H748.051ZM765.654 543.267H762.029L767.553 527.267H771.912L777.428 543.267H773.803L769.795 530.924H769.67L765.654 543.267ZM765.428 536.978H773.99V539.619H765.428V536.978ZM776.789 530.056V527.267H789.93V530.056H785.031V543.267H781.687V530.056H776.789ZM795.477 527.267V543.267H792.094V527.267H795.477ZM812.963 535.267C812.963 537.012 812.632 538.497 811.971 539.72C811.314 540.944 810.419 541.879 809.283 542.525C808.153 543.166 806.882 543.486 805.471 543.486C804.049 543.486 802.773 543.163 801.643 542.517C800.512 541.872 799.619 540.937 798.963 539.713C798.307 538.489 797.978 537.007 797.978 535.267C797.978 533.523 798.307 532.038 798.963 530.814C799.619 529.59 800.512 528.658 801.643 528.017C802.773 527.372 804.049 527.049 805.471 527.049C806.882 527.049 808.153 527.372 809.283 528.017C810.419 528.658 811.314 529.59 811.971 530.814C812.632 532.038 812.963 533.523 812.963 535.267ZM809.533 535.267C809.533 534.137 809.364 533.184 809.025 532.408C808.692 531.632 808.221 531.043 807.611 530.642C807.002 530.241 806.288 530.041 805.471 530.041C804.653 530.041 803.939 530.241 803.33 530.642C802.721 531.043 802.247 531.632 801.908 532.408C801.575 533.184 801.408 534.137 801.408 535.267C801.408 536.398 801.575 537.351 801.908 538.127C802.247 538.903 802.721 539.491 803.33 539.892C803.939 540.293 804.653 540.494 805.471 540.494C806.288 540.494 807.002 540.293 807.611 539.892C808.221 539.491 808.692 538.903 809.025 538.127C809.364 537.351 809.533 536.398 809.533 535.267ZM828.852 527.267V543.267H825.93L818.969 533.197H818.852V543.267H815.469V527.267H818.437L825.344 537.33H825.484V527.267H828.852Z" fill="white"/>
<path d="M897.178 0C904.61 0.000315933 910.635 6.02506 910.635 13.457V144.666H910.388V235.167C910.388 275.115 878.003 307.5 838.055 307.5C798.106 307.5 765.722 275.116 765.722 235.167V144.666L451.742 144.666C473.782 128.365 488.074 102.187 488.074 72.6699C488.074 42.7425 473.382 16.2475 450.819 0L897.178 0Z" fill="white"/>
<circle cx="838.055" cy="235.167" r="62.2402" fill="#00A4EF"/>
<path d="M840.515 197.275C841.958 197.475 843.415 197.676 844.858 197.876C845.139 197.916 845.406 197.969 845.673 198.023C846.622 198.237 847.183 198.972 847.01 199.814C846.836 200.669 846.061 201.11 845.112 201.003C842.68 200.749 840.235 200.268 837.802 200.348C823.905 200.762 813.201 206.963 806.653 219.19C799.637 232.313 800.906 245.262 809.379 257.489C809.526 257.69 809.686 257.877 809.833 258.064C813.561 256.701 816.622 257.556 818.359 260.416C819.936 263.022 819.441 266.403 817.17 268.434C814.898 270.479 811.517 270.626 809.071 268.795C806.412 266.79 805.851 263.65 807.561 260.135C805.69 257.73 804.1 255.124 802.804 252.345C792.755 230.803 804.675 204.972 827.62 198.704C830.012 198.05 832.524 197.822 834.983 197.395C835.21 197.355 835.424 197.301 835.638 197.261C837.255 197.261 838.871 197.261 840.488 197.261L840.515 197.275ZM812.907 260.376C811.076 260.376 809.579 261.859 809.579 263.69C809.579 265.507 811.063 267.031 812.88 267.044C814.737 267.058 816.247 265.548 816.247 263.677C816.247 261.846 814.751 260.363 812.907 260.376Z" fill="white"/>
<path d="M876.929 238.527C876.729 239.957 876.582 241.374 876.341 242.79C873.829 257.837 862.123 270.332 847.289 273.846C841.904 275.116 836.492 275.276 831.04 274.301C830.946 274.287 830.839 274.247 830.746 274.234C829.623 273.993 829.102 273.352 829.262 272.416C829.423 271.508 830.171 271.053 831.28 271.254C839.472 272.737 847.329 271.735 854.666 267.779C864.849 262.3 871.183 253.828 873.281 242.443C875.152 232.3 872.813 223.039 866.786 214.7C866.679 214.553 866.573 214.42 866.466 214.273C866.439 214.233 866.399 214.193 866.452 214.259C865.316 214.473 864.274 214.807 863.218 214.821C860.372 214.888 857.873 212.91 857.125 210.157C856.376 207.431 857.539 204.518 859.931 203.061C862.403 201.564 865.463 201.858 867.588 203.796C869.659 205.707 870.261 208.781 868.951 211.293C868.644 211.881 868.711 212.228 869.098 212.736C873.642 218.79 876.207 225.592 876.809 233.142C876.822 233.369 876.889 233.583 876.929 233.797V238.5V238.527ZM863.258 211.827C865.089 211.827 866.586 210.357 866.613 208.527C866.626 206.669 865.103 205.146 863.245 205.159C861.414 205.159 859.931 206.669 859.944 208.5C859.944 210.331 861.428 211.814 863.258 211.827Z" fill="white"/>
<path d="M817.169 248.256C816.407 246.291 815.726 244.514 815.004 242.737C814.924 242.55 814.617 242.376 814.403 242.363C813.668 242.322 812.933 242.363 812.198 242.336C811.035 242.322 810.461 241.761 810.461 240.612C810.461 237.605 810.461 234.598 810.461 231.592C810.461 230.389 811.022 229.868 812.238 229.841C813.093 229.828 814.149 230.108 814.75 229.708C815.311 229.347 815.352 228.224 815.672 227.476C816.14 226.367 816.661 225.271 817.249 224.001C816.674 223.467 816.02 222.892 815.392 222.264C814.536 221.422 814.536 220.607 815.378 219.765C817.503 217.627 819.628 215.502 821.766 213.391C822.594 212.576 823.383 212.589 824.211 213.391C824.719 213.885 825.227 214.38 825.708 214.901C825.989 215.208 826.202 215.235 826.603 215.048C828.14 214.353 829.704 213.712 831.281 213.097C831.681 212.937 831.855 212.79 831.828 212.362C831.802 211.627 831.815 210.892 831.828 210.157C831.855 209.088 832.403 208.5 833.472 208.5C836.532 208.5 839.592 208.5 842.653 208.5C843.762 208.5 844.31 209.075 844.323 210.197C844.323 210.932 844.296 211.667 844.35 212.389C844.363 212.603 844.537 212.937 844.711 213.003C846.488 213.725 848.265 214.393 850.256 215.168C850.711 214.687 851.299 214.019 851.927 213.404C852.769 212.562 853.57 212.562 854.426 213.404C856.537 215.502 858.649 217.614 860.76 219.725C861.629 220.594 861.615 221.396 860.747 222.291C860.185 222.866 859.611 223.44 859.036 224.015C859.009 224.055 858.996 224.108 859.036 224.015C859.771 225.899 860.439 227.69 861.161 229.454C861.241 229.641 861.548 229.828 861.762 229.841C862.524 229.881 863.272 229.841 864.034 229.868C865.103 229.895 865.691 230.442 865.691 231.498C865.691 234.585 865.691 237.672 865.691 240.746C865.691 241.748 865.09 242.322 864.074 242.349C863.286 242.363 862.51 242.322 861.722 242.376C861.522 242.376 861.228 242.603 861.147 242.79C860.439 244.541 859.758 246.305 858.996 248.242C859.477 248.71 860.132 249.298 860.747 249.926C861.629 250.808 861.629 251.597 860.747 252.492C858.649 254.603 856.537 256.715 854.412 258.813C853.57 259.655 852.755 259.641 851.913 258.786C851.285 258.158 850.711 257.503 850.256 257.009C848.265 257.784 846.475 258.452 844.711 259.174C844.524 259.254 844.35 259.561 844.336 259.775C844.296 260.51 844.336 261.245 844.323 261.966C844.31 263.129 843.762 263.704 842.613 263.704C839.606 263.704 836.599 263.704 833.592 263.704C832.39 263.704 831.855 263.142 831.842 261.926C831.842 261.218 831.828 260.51 831.842 259.802C831.842 259.427 831.735 259.24 831.347 259.093C829.597 258.452 827.873 257.744 825.935 256.982C825.481 257.463 824.893 258.118 824.265 258.733C823.383 259.615 822.581 259.614 821.712 258.746C819.601 256.648 817.49 254.536 815.392 252.412C814.55 251.556 814.55 250.755 815.392 249.913C816.02 249.285 816.674 248.697 817.169 248.229V248.256ZM834.875 211.574C834.875 212.362 834.875 213.11 834.875 213.872C834.862 214.914 834.488 215.409 833.472 215.649C831.12 216.211 828.915 217.119 826.857 218.402C826.015 218.923 825.374 218.843 824.679 218.135C824.131 217.574 823.637 216.972 823.196 216.478C821.552 218.135 820.069 219.632 818.519 221.195C818.986 221.636 819.534 222.131 820.042 222.638C820.83 223.44 820.897 224.041 820.296 225.004C819.066 226.968 818.198 229.079 817.663 231.338C817.369 232.567 816.928 232.888 815.632 232.901C814.937 232.901 814.242 232.901 813.547 232.901V239.329C814.349 239.329 815.098 239.329 815.859 239.329C816.902 239.329 817.383 239.703 817.623 240.732C818.185 243.057 819.066 245.249 820.336 247.28C820.911 248.189 820.83 248.804 820.042 249.579C819.507 250.113 818.92 250.594 818.438 251.035C820.055 252.666 821.552 254.162 823.049 255.672C823.049 255.672 823.089 255.659 823.129 255.619C823.637 255.124 824.131 254.617 824.639 254.122C825.387 253.387 826.002 253.294 826.884 253.842C828.915 255.098 831.093 256.006 833.432 256.554C834.528 256.808 834.875 257.303 834.875 258.452C834.875 259.174 834.875 259.909 834.875 260.657H841.303C841.303 259.895 841.303 259.187 841.303 258.479C841.303 257.276 841.65 256.822 842.786 256.541C845.085 255.993 847.25 255.098 849.254 253.842C850.149 253.28 850.764 253.347 851.499 254.082C852.047 254.63 852.555 255.231 853.009 255.739C854.626 254.109 856.123 252.612 857.673 251.049C857.179 250.581 856.631 250.073 856.096 249.539C855.361 248.804 855.268 248.176 855.816 247.307C857.098 245.249 857.994 243.044 858.555 240.692C858.782 239.717 859.277 239.342 860.279 239.329C861.054 239.329 861.829 239.329 862.604 239.329V232.901C861.789 232.901 861.027 232.915 860.265 232.901C859.263 232.875 858.782 232.5 858.542 231.525C857.98 229.173 857.085 226.968 855.802 224.91C855.254 224.041 855.348 223.413 856.083 222.678C856.617 222.144 857.192 221.649 857.726 221.155C856.123 219.565 854.626 218.068 853.116 216.571C853.116 216.571 853.049 216.585 853.023 216.625C852.542 217.106 852.047 217.587 851.566 218.068C850.724 218.883 850.149 218.963 849.134 218.335C847.143 217.093 845.005 216.237 842.719 215.689C841.664 215.436 841.29 214.968 841.276 213.872C841.276 213.124 841.276 212.375 841.276 211.614H834.849L834.875 211.574Z" fill="white"/>
<path d="M853.571 201.484C853.571 202.326 852.85 203.021 852.021 203.007C851.233 202.98 850.551 202.286 850.538 201.484C850.538 200.642 851.246 199.96 852.088 199.987C852.917 200 853.558 200.669 853.558 201.484H853.571Z" fill="white"/>
<path d="M825.682 270.773C825.669 271.615 825.014 272.243 824.172 272.23C823.343 272.23 822.675 271.561 822.675 270.733C822.675 269.891 823.41 269.183 824.239 269.223C825.067 269.25 825.695 269.931 825.682 270.773Z" fill="white"/>
<path d="M850.618 236.523C850.244 243.552 844.431 248.991 837.669 248.643C830.64 248.282 825.201 242.456 825.548 235.694C825.909 228.678 831.722 223.226 838.497 223.574C845.513 223.934 850.979 229.774 850.618 236.523ZM847.598 236.135C847.638 230.937 843.348 226.62 838.123 226.594C832.912 226.567 828.609 230.843 828.582 236.055C828.555 241.253 832.831 245.57 838.056 245.596C843.255 245.623 847.571 241.347 847.611 236.122L847.598 236.135Z" fill="white"/>
<path d="M840.515 197.275C841.958 197.475 843.415 197.676 844.858 197.876C845.139 197.916 845.406 197.969 845.673 198.023C846.622 198.237 847.183 198.972 847.01 199.814C846.836 200.669 846.061 201.11 845.112 201.003C842.68 200.749 840.235 200.268 837.802 200.348C823.905 200.762 813.201 206.963 806.653 219.19C799.637 232.313 800.906 245.262 809.379 257.489C809.526 257.69 809.686 257.877 809.833 258.064C813.561 256.701 816.622 257.556 818.359 260.416C819.936 263.022 819.441 266.403 817.17 268.434C814.898 270.479 811.517 270.626 809.071 268.795C806.412 266.79 805.851 263.65 807.561 260.135C805.69 257.73 804.1 255.124 802.804 252.345C792.755 230.803 804.675 204.972 827.62 198.704C830.012 198.05 832.524 197.822 834.983 197.395C835.21 197.355 835.424 197.301 835.638 197.261C837.255 197.261 838.871 197.261 840.488 197.261L840.515 197.275ZM812.907 260.376C811.076 260.376 809.579 261.859 809.579 263.69C809.579 265.507 811.063 267.031 812.88 267.044C814.737 267.058 816.247 265.548 816.247 263.677C816.247 261.846 814.751 260.363 812.907 260.376Z" fill="white"/>
<path d="M876.929 238.527C876.729 239.957 876.582 241.374 876.341 242.79C873.829 257.837 862.123 270.332 847.289 273.846C841.904 275.116 836.492 275.276 831.04 274.301C830.946 274.287 830.839 274.247 830.746 274.234C829.623 273.993 829.102 273.352 829.262 272.416C829.423 271.508 830.171 271.053 831.28 271.254C839.472 272.737 847.329 271.735 854.666 267.779C864.849 262.3 871.183 253.828 873.281 242.443C875.152 232.3 872.813 223.039 866.786 214.7C866.679 214.553 866.573 214.42 866.466 214.273C866.439 214.233 866.399 214.193 866.452 214.259C865.316 214.473 864.274 214.807 863.218 214.821C860.372 214.888 857.873 212.91 857.125 210.157C856.376 207.431 857.539 204.518 859.931 203.061C862.403 201.564 865.463 201.858 867.588 203.796C869.659 205.707 870.261 208.781 868.951 211.293C868.644 211.881 868.711 212.228 869.098 212.736C873.642 218.79 876.207 225.592 876.809 233.142C876.822 233.369 876.889 233.583 876.929 233.797V238.5V238.527ZM863.258 211.827C865.089 211.827 866.586 210.357 866.613 208.527C866.626 206.669 865.103 205.146 863.245 205.159C861.414 205.159 859.931 206.669 859.944 208.5C859.944 210.331 861.428 211.814 863.258 211.827Z" fill="white"/>
<path d="M817.169 248.256C816.407 246.291 815.726 244.514 815.004 242.737C814.924 242.55 814.617 242.376 814.403 242.363C813.668 242.322 812.933 242.363 812.198 242.336C811.035 242.322 810.461 241.761 810.461 240.612C810.461 237.605 810.461 234.598 810.461 231.592C810.461 230.389 811.022 229.868 812.238 229.841C813.093 229.828 814.149 230.108 814.75 229.708C815.311 229.347 815.352 228.224 815.672 227.476C816.14 226.367 816.661 225.271 817.249 224.001C816.674 223.467 816.02 222.892 815.392 222.264C814.536 221.422 814.536 220.607 815.378 219.765C817.503 217.627 819.628 215.502 821.766 213.391C822.594 212.576 823.383 212.589 824.211 213.391C824.719 213.885 825.227 214.38 825.708 214.901C825.989 215.208 826.202 215.235 826.603 215.048C828.14 214.353 829.704 213.712 831.281 213.097C831.681 212.937 831.855 212.79 831.828 212.362C831.802 211.627 831.815 210.892 831.828 210.157C831.855 209.088 832.403 208.5 833.472 208.5C836.532 208.5 839.592 208.5 842.653 208.5C843.762 208.5 844.31 209.075 844.323 210.197C844.323 210.932 844.296 211.667 844.35 212.389C844.363 212.603 844.537 212.937 844.711 213.003C846.488 213.725 848.265 214.393 850.256 215.168C850.711 214.687 851.299 214.019 851.927 213.404C852.769 212.562 853.57 212.562 854.426 213.404C856.537 215.502 858.649 217.614 860.76 219.725C861.629 220.594 861.615 221.396 860.747 222.291C860.185 222.866 859.611 223.44 859.036 224.015C859.009 224.055 858.996 224.108 859.036 224.015C859.771 225.899 860.439 227.69 861.161 229.454C861.241 229.641 861.548 229.828 861.762 229.841C862.524 229.881 863.272 229.841 864.034 229.868C865.103 229.895 865.691 230.442 865.691 231.498C865.691 234.585 865.691 237.672 865.691 240.746C865.691 241.748 865.09 242.322 864.074 242.349C863.286 242.363 862.51 242.322 861.722 242.376C861.522 242.376 861.228 242.603 861.147 242.79C860.439 244.541 859.758 246.305 858.996 248.242C859.477 248.71 860.132 249.298 860.747 249.926C861.629 250.808 861.629 251.597 860.747 252.492C858.649 254.603 856.537 256.715 854.412 258.813C853.57 259.655 852.755 259.641 851.913 258.786C851.285 258.158 850.711 257.503 850.256 257.009C848.265 257.784 846.475 258.452 844.711 259.174C844.524 259.254 844.35 259.561 844.336 259.775C844.296 260.51 844.336 261.245 844.323 261.966C844.31 263.129 843.762 263.704 842.613 263.704C839.606 263.704 836.599 263.704 833.592 263.704C832.39 263.704 831.855 263.142 831.842 261.926C831.842 261.218 831.828 260.51 831.842 259.802C831.842 259.427 831.735 259.24 831.347 259.093C829.597 258.452 827.873 257.744 825.935 256.982C825.481 257.463 824.893 258.118 824.265 258.733C823.383 259.615 822.581 259.614 821.712 258.746C819.601 256.648 817.49 254.536 815.392 252.412C814.55 251.556 814.55 250.755 815.392 249.913C816.02 249.285 816.674 248.697 817.169 248.229V248.256ZM834.875 211.574C834.875 212.362 834.875 213.11 834.875 213.872C834.862 214.914 834.488 215.409 833.472 215.649C831.12 216.211 828.915 217.119 826.857 218.402C826.015 218.923 825.374 218.843 824.679 218.135C824.131 217.574 823.637 216.972 823.196 216.478C821.552 218.135 820.069 219.632 818.519 221.195C818.986 221.636 819.534 222.131 820.042 222.638C820.83 223.44 820.897 224.041 820.296 225.004C819.066 226.968 818.198 229.079 817.663 231.338C817.369 232.567 816.928 232.888 815.632 232.901C814.937 232.901 814.242 232.901 813.547 232.901V239.329C814.349 239.329 815.098 239.329 815.859 239.329C816.902 239.329 817.383 239.703 817.623 240.732C818.185 243.057 819.066 245.249 820.336 247.28C820.911 248.189 820.83 248.804 820.042 249.579C819.507 250.113 818.92 250.594 818.438 251.035C820.055 252.666 821.552 254.162 823.049 255.672C823.049 255.672 823.089 255.659 823.129 255.619C823.637 255.124 824.131 254.617 824.639 254.122C825.387 253.387 826.002 253.294 826.884 253.842C828.915 255.098 831.093 256.006 833.432 256.554C834.528 256.808 834.875 257.303 834.875 258.452C834.875 259.174 834.875 259.909 834.875 260.657H841.303C841.303 259.895 841.303 259.187 841.303 258.479C841.303 257.276 841.65 256.822 842.786 256.541C845.085 255.993 847.25 255.098 849.254 253.842C850.149 253.28 850.764 253.347 851.499 254.082C852.047 254.63 852.555 255.231 853.009 255.739C854.626 254.109 856.123 252.612 857.673 251.049C857.179 250.581 856.631 250.073 856.096 249.539C855.361 248.804 855.268 248.176 855.816 247.307C857.098 245.249 857.994 243.044 858.555 240.692C858.782 239.717 859.277 239.342 860.279 239.329C861.054 239.329 861.829 239.329 862.604 239.329V232.901C861.789 232.901 861.027 232.915 860.265 232.901C859.263 232.875 858.782 232.5 858.542 231.525C857.98 229.173 857.085 226.968 855.802 224.91C855.254 224.041 855.348 223.413 856.083 222.678C856.617 222.144 857.192 221.649 857.726 221.155C856.123 219.565 854.626 218.068 853.116 216.571C853.116 216.571 853.049 216.585 853.023 216.625C852.542 217.106 852.047 217.587 851.566 218.068C850.724 218.883 850.149 218.963 849.134 218.335C847.143 217.093 845.005 216.237 842.719 215.689C841.664 215.436 841.29 214.968 841.276 213.872C841.276 213.124 841.276 212.375 841.276 211.614H834.849L834.875 211.574Z" fill="white"/>
<path d="M853.571 201.484C853.571 202.326 852.85 203.021 852.021 203.007C851.233 202.98 850.551 202.286 850.538 201.484C850.538 200.642 851.246 199.96 852.088 199.987C852.917 200 853.558 200.669 853.558 201.484H853.571Z" fill="white"/>
<path d="M825.682 270.773C825.669 271.615 825.014 272.243 824.172 272.23C823.343 272.23 822.675 271.561 822.675 270.733C822.675 269.891 823.41 269.183 824.239 269.223C825.067 269.25 825.695 269.931 825.682 270.773Z" fill="white"/>
<path d="M850.618 236.523C850.244 243.552 844.431 248.991 837.669 248.643C830.64 248.282 825.201 242.456 825.548 235.694C825.909 228.678 831.722 223.226 838.497 223.574C845.513 223.934 850.979 229.774 850.618 236.523ZM847.598 236.135C847.638 230.937 843.348 226.62 838.123 226.594C832.912 226.567 828.609 230.843 828.582 236.055C828.555 241.253 832.831 245.57 838.056 245.596C843.255 245.623 847.571 241.347 847.611 236.122L847.598 236.135Z" fill="white"/>
<path d="M614.716 51.6016H611.294C611.231 51.1589 611.104 50.7656 610.911 50.4219C610.718 50.0729 610.471 49.776 610.169 49.5312C609.867 49.2865 609.518 49.099 609.122 48.9687C608.731 48.8385 608.307 48.7734 607.849 48.7734C607.021 48.7734 606.299 48.9792 605.685 49.3906C605.07 49.7969 604.593 50.3906 604.255 51.1719C603.916 51.9479 603.747 52.8906 603.747 54C603.747 55.1406 603.916 56.099 604.255 56.875C604.599 57.651 605.078 58.237 605.692 58.6328C606.307 59.0286 607.018 59.2266 607.825 59.2266C608.278 59.2266 608.698 59.1667 609.083 59.0469C609.474 58.9271 609.82 58.7526 610.122 58.5234C610.424 58.2891 610.674 58.0052 610.872 57.6719C611.075 57.3385 611.216 56.9583 611.294 56.5312L614.716 56.5469C614.627 57.2812 614.406 57.9896 614.052 58.6719C613.703 59.349 613.231 59.9557 612.638 60.4922C612.049 61.0234 611.346 61.4453 610.528 61.7578C609.716 62.0651 608.797 62.2187 607.771 62.2187C606.343 62.2187 605.067 61.8958 603.942 61.25C602.823 60.6042 601.937 59.6693 601.286 58.4453C600.64 57.2214 600.317 55.7396 600.317 54C600.317 52.2552 600.646 50.7708 601.302 49.5469C601.958 48.3229 602.849 47.3906 603.974 46.75C605.099 46.1042 606.364 45.7812 607.771 45.7812C608.698 45.7812 609.557 45.9115 610.349 46.1719C611.146 46.4323 611.851 46.8125 612.466 47.3125C613.08 47.8073 613.58 48.4141 613.966 49.1328C614.356 49.8516 614.606 50.6745 614.716 51.6016ZM631.845 54C631.845 55.7448 631.514 57.2292 630.853 58.4531C630.196 59.6771 629.3 60.612 628.165 61.2578C627.035 61.8984 625.764 62.2187 624.353 62.2187C622.931 62.2187 621.655 61.8958 620.524 61.25C619.394 60.6042 618.501 59.6693 617.845 58.4453C617.188 57.2214 616.86 55.7396 616.86 54C616.86 52.2552 617.188 50.7708 617.845 49.5469C618.501 48.3229 619.394 47.3906 620.524 46.75C621.655 46.1042 622.931 45.7812 624.353 45.7812C625.764 45.7812 627.035 46.1042 628.165 46.75C629.3 47.3906 630.196 48.3229 630.853 49.5469C631.514 50.7708 631.845 52.2552 631.845 54ZM628.415 54C628.415 52.8698 628.246 51.9167 627.907 51.1406C627.574 50.3646 627.103 49.776 626.493 49.375C625.884 48.974 625.17 48.7734 624.353 48.7734C623.535 48.7734 622.821 48.974 622.212 49.375C621.603 49.776 621.129 50.3646 620.79 51.1406C620.457 51.9167 620.29 52.8698 620.29 54C620.29 55.1302 620.457 56.0833 620.79 56.8594C621.129 57.6354 621.603 58.224 622.212 58.625C622.821 59.026 623.535 59.2266 624.353 59.2266C625.17 59.2266 625.884 59.026 626.493 58.625C627.103 58.224 627.574 57.6354 627.907 56.8594C628.246 56.0833 628.415 55.1302 628.415 54ZM647.733 46V62H644.812L637.851 51.9297H637.733V62H634.351V46H637.319L644.226 56.0625H644.366V46H647.733ZM650.528 62V46L661.122 46V48.7891L653.911 48.7891V52.6016H660.419V55.3906H653.911V62H650.528ZM666.78 46V62H663.397V46H666.78ZM680.173 51.1719C680.063 50.7917 679.91 50.4557 679.712 50.1641C679.514 49.8672 679.272 49.6172 678.985 49.4141C678.704 49.2057 678.381 49.0469 678.017 48.9375C677.657 48.8281 677.259 48.7734 676.821 48.7734C676.004 48.7734 675.285 48.9766 674.665 49.3828C674.05 49.7891 673.571 50.3802 673.228 51.1562C672.884 51.9271 672.712 52.8698 672.712 53.9844C672.712 55.099 672.881 56.0469 673.22 56.8281C673.558 57.6094 674.037 58.2057 674.657 58.6172C675.277 59.0234 676.009 59.2266 676.853 59.2266C677.618 59.2266 678.272 59.0911 678.813 58.8203C679.36 58.5443 679.777 58.1562 680.063 57.6562C680.355 57.1562 680.501 56.5651 680.501 55.8828L681.188 55.9844H677.063V53.4375H683.759V55.4531C683.759 56.8594 683.462 58.0677 682.868 59.0781C682.274 60.0833 681.457 60.8594 680.415 61.4062C679.373 61.9479 678.181 62.2187 676.837 62.2187C675.337 62.2187 674.019 61.888 672.884 61.2266C671.748 60.5599 670.863 59.6146 670.228 58.3906C669.597 57.1615 669.282 55.7031 669.282 54.0156C669.282 52.7187 669.47 51.5625 669.845 50.5469C670.225 49.526 670.756 48.6615 671.438 47.9531C672.121 47.2448 672.915 46.7057 673.821 46.3359C674.728 45.9661 675.709 45.7812 676.767 45.7812C677.673 45.7812 678.517 45.9141 679.298 46.1797C680.079 46.4401 680.772 46.8099 681.376 47.2891C681.985 47.7682 682.483 48.3385 682.868 49C683.254 49.6562 683.501 50.3802 683.61 51.1719H680.173ZM696.183 46H699.565V56.3906C699.565 57.5573 699.287 58.5781 698.729 59.4531C698.177 60.3281 697.404 61.0104 696.409 61.5C695.414 61.9844 694.256 62.2266 692.933 62.2266C691.604 62.2266 690.443 61.9844 689.448 61.5C688.453 61.0104 687.68 60.3281 687.128 59.4531C686.576 58.5781 686.3 57.5573 686.3 56.3906V46H689.683V56.1016C689.683 56.7109 689.815 57.2526 690.081 57.7266C690.352 58.2005 690.732 58.5729 691.222 58.8438C691.711 59.1146 692.282 59.25 692.933 59.25C693.589 59.25 694.159 59.1146 694.644 58.8438C695.133 58.5729 695.511 58.2005 695.776 57.7266C696.047 57.2526 696.183 56.7109 696.183 56.1016V46ZM702.349 62V46L708.661 46C709.869 46 710.901 46.2161 711.755 46.6484C712.614 47.0755 713.268 47.6823 713.716 48.4688C714.169 49.25 714.396 50.1693 714.396 51.2266C714.396 52.2891 714.166 53.2031 713.708 53.9687C713.25 54.7292 712.586 55.3125 711.716 55.7187C710.851 56.125 709.804 56.3281 708.575 56.3281H704.349V53.6094H708.028C708.674 53.6094 709.211 53.5208 709.638 53.3438C710.065 53.1667 710.382 52.901 710.591 52.5469C710.804 52.1927 710.911 51.7526 710.911 51.2266C710.911 50.6953 710.804 50.2474 710.591 49.8828C710.382 49.5182 710.062 49.2422 709.63 49.0547C709.203 48.862 708.664 48.7656 708.013 48.7656L705.731 48.7656V62H702.349ZM710.989 54.7188L714.966 62L711.231 62L707.341 54.7188L710.989 54.7188ZM719.544 62H715.919L721.442 46H725.802L731.317 62H727.692L723.685 49.6562H723.56L719.544 62ZM719.317 55.7109H727.88V58.3516H719.317V55.7109ZM730.679 48.7891V46H743.819V48.7891H738.921V62L735.577 62V48.7891H730.679ZM749.366 46V62H745.983V46H749.366ZM766.853 54C766.853 55.7448 766.522 57.2292 765.86 58.4531C765.204 59.6771 764.308 60.612 763.173 61.2578C762.043 61.8984 760.772 62.2187 759.36 62.2187C757.938 62.2187 756.662 61.8958 755.532 61.25C754.402 60.6042 753.509 59.6693 752.853 58.4453C752.196 57.2214 751.868 55.7396 751.868 54C751.868 52.2552 752.196 50.7708 752.853 49.5469C753.509 48.3229 754.402 47.3906 755.532 46.75C756.662 46.1042 757.938 45.7812 759.36 45.7812C760.772 45.7812 762.043 46.1042 763.173 46.75C764.308 47.3906 765.204 48.3229 765.86 49.5469C766.522 50.7708 766.853 52.2552 766.853 54ZM763.423 54C763.423 52.8698 763.254 51.9167 762.915 51.1406C762.582 50.3646 762.11 49.776 761.501 49.375C760.892 48.974 760.178 48.7734 759.36 48.7734C758.543 48.7734 757.829 48.974 757.22 49.375C756.61 49.776 756.136 50.3646 755.798 51.1406C755.465 51.9167 755.298 52.8698 755.298 54C755.298 55.1302 755.465 56.0833 755.798 56.8594C756.136 57.6354 756.61 58.224 757.22 58.625C757.829 59.026 758.543 59.2266 759.36 59.2266C760.178 59.2266 760.892 59.026 761.501 58.625C762.11 58.224 762.582 57.6354 762.915 56.8594C763.254 56.0833 763.423 55.1302 763.423 54ZM782.741 46V62H779.819L772.858 51.9297H772.741V62H769.358V46H772.327L779.233 56.0625H779.374V46H782.741ZM795.472 62.2344C794.368 62.2344 793.414 62.0365 792.612 61.6406C791.81 61.2448 791.193 60.7083 790.761 60.0312C790.334 59.349 790.12 58.5885 790.12 57.75C790.12 57.125 790.245 56.5703 790.495 56.0859C790.745 55.6016 791.094 55.1562 791.542 54.75C791.99 54.3385 792.511 53.9297 793.104 53.5234L796.206 51.4844C796.607 51.2292 796.901 50.9609 797.089 50.6797C797.276 50.3932 797.37 50.0833 797.37 49.75C797.37 49.4323 797.243 49.138 796.987 48.8672C796.732 48.5964 796.37 48.4635 795.901 48.4688C795.589 48.4688 795.318 48.5391 795.089 48.6797C794.86 48.8151 794.68 48.9948 794.55 49.2187C794.425 49.4375 794.362 49.6823 794.362 49.9531C794.362 50.2865 794.456 50.625 794.644 50.9687C794.831 51.3125 795.081 51.6771 795.394 52.0625C795.706 52.4427 796.047 52.8542 796.417 53.2969L804.003 62L800.534 62L794.206 54.9531C793.789 54.4792 793.373 53.9844 792.956 53.4687C792.545 52.9479 792.201 52.3958 791.925 51.8125C791.649 51.224 791.511 50.5859 791.511 49.8984C791.511 49.1224 791.69 48.4245 792.05 47.8047C792.414 47.1849 792.925 46.6953 793.581 46.3359C794.237 45.9714 795.003 45.7891 795.878 45.7891C796.732 45.7891 797.469 45.9635 798.089 46.3125C798.714 46.6562 799.193 47.1146 799.526 47.6875C799.865 48.2552 800.034 48.8802 800.034 49.5625C800.034 50.3177 799.847 51.0026 799.472 51.6172C799.102 52.2266 798.581 52.7734 797.909 53.2578L794.644 55.6094C794.201 55.9323 793.873 56.263 793.659 56.6016C793.451 56.9349 793.347 57.2552 793.347 57.5625C793.347 57.9427 793.44 58.2839 793.628 58.5859C793.815 58.888 794.081 59.1276 794.425 59.3047C794.769 59.4766 795.172 59.5625 795.636 59.5625C796.198 59.5625 796.753 59.4349 797.3 59.1797C797.852 58.9193 798.352 58.5521 798.8 58.0781C799.253 57.599 799.615 57.0313 799.886 56.375C800.157 55.7187 800.292 54.9922 800.292 54.1953H803.05C803.05 55.1745 802.943 56.0573 802.729 56.8438C802.516 57.625 802.219 58.3073 801.839 58.8906C801.459 59.4687 801.024 59.9427 800.534 60.3125C800.378 60.4115 800.227 60.5052 800.081 60.5938C799.935 60.6823 799.784 60.776 799.628 60.875C799.034 61.3542 798.37 61.7005 797.636 61.9141C796.907 62.1276 796.185 62.2344 795.472 62.2344ZM659.627 86V70H665.939C667.148 70 668.179 70.2161 669.033 70.6484C669.893 71.0755 670.546 71.6823 670.994 72.4688C671.447 73.25 671.674 74.1693 671.674 75.2266C671.674 76.2891 671.445 77.2031 670.986 77.9687C670.528 78.7292 669.864 79.3125 668.994 79.7187C668.13 80.125 667.083 80.3281 665.854 80.3281H661.627V77.6094H665.307C665.952 77.6094 666.489 77.5208 666.916 77.3438C667.343 77.1667 667.661 76.901 667.869 76.5469C668.083 76.1927 668.189 75.7526 668.189 75.2266C668.189 74.6953 668.083 74.2474 667.869 73.8828C667.661 73.5182 667.34 73.2422 666.908 73.0547C666.481 72.862 665.942 72.7656 665.291 72.7656H663.01V86H659.627ZM668.268 78.7188L672.244 86H668.51L664.619 78.7188H668.268ZM674.064 86V70H684.846V72.7891H677.447V76.6016H684.291V79.3906H677.447V83.2109H684.877V86H674.064ZM690.426 70L694.293 82.1562H694.441L698.316 70H702.066L696.551 86H692.191L686.668 70H690.426ZM707.375 70V86H703.992V70H707.375ZM710.158 86V70L720.939 70V72.7891L713.541 72.7891V76.6016H720.385V79.3906H713.541V83.2109H720.971V86H710.158ZM727.23 86L722.652 70H726.348L728.996 81.1172H729.129L732.051 70H735.215L738.129 81.1406H738.27L740.918 70H744.613L740.035 86H736.738L733.691 75.5391H733.566L730.527 86H727.23Z" fill="#00A4EF"/>
<path d="M13.457 591.45C6.02515 591.45 0.000201473 585.425 1.17645e-06 577.993L1.26471e-05 446.784L0.247083 446.784L0.247091 356.283C0.247147 316.335 32.6318 283.95 72.5801 283.95C112.529 283.95 144.913 316.335 144.913 356.283L144.913 446.784L458.892 446.784C436.852 463.085 422.561 489.263 422.561 518.78C422.561 548.708 437.252 575.203 459.815 591.45L13.457 591.45Z" fill="white"/>
<circle cx="72.3323" cy="356.284" r="62.2402" fill="#00A4EF"/>
<path d="M69.9878 401.199C68.4777 400.116 68.3975 399.181 69.7472 397.845C70.1748 397.417 70.6559 397.043 71.1103 396.655C71.0702 396.575 71.0301 396.508 71.0034 396.428C70.3085 396.361 69.6136 396.281 68.9187 396.214C53.0298 394.691 39.3057 383.225 35.0027 367.871C29.016 346.53 41.3235 324.761 62.7048 318.894C64.2549 318.467 65.3373 319.055 65.3908 320.338C65.4309 321.246 64.9498 321.848 63.8807 322.142C60.3127 323.117 56.9185 324.52 53.8048 326.538C44.5975 332.525 38.9582 340.904 37.3546 351.808C34.7622 369.461 45.4528 386.218 62.5444 391.43C64.1614 391.925 65.8318 392.232 67.5022 392.553C68.598 392.766 69.7205 392.82 70.9365 392.793C70.402 392.232 69.8408 391.684 69.3196 391.123C68.7717 390.535 68.6648 389.84 69.0523 389.132C69.4399 388.423 70.0813 388.103 70.8697 388.276C71.2439 388.357 71.6181 388.584 71.8987 388.851C73.4221 390.334 74.9322 391.844 76.4288 393.368C77.2707 394.223 77.3242 395.145 76.5224 395.96C74.9856 397.551 73.3954 399.101 71.8185 400.664C71.6047 400.878 71.3107 401.025 71.0568 401.199H70.0145H69.9878Z" fill="white"/>
<path d="M89.1104 379.417V334.61H71.3373C71.3239 334.97 71.2972 335.318 71.2972 335.652C71.2972 339.193 71.2972 342.735 71.2972 346.276C71.2972 348.053 70.7493 348.614 68.9853 348.614C65.2704 348.614 61.5554 348.614 57.8404 348.614C57.4929 348.614 57.1588 348.614 56.758 348.614V379.43C57.0386 379.43 57.3326 379.43 57.6399 379.43C59.9651 379.43 62.3037 379.43 64.6289 379.43C65.992 379.43 66.7403 380.058 66.7136 381.167C66.7002 382.263 65.9385 382.878 64.5755 382.878C61.5019 382.878 58.415 382.878 55.3414 382.878C53.8715 382.878 53.2434 382.236 53.2434 380.766C53.2434 369.595 53.2434 358.436 53.2434 347.265C53.2434 346.49 53.5107 345.902 54.0586 345.367C58.7624 340.864 63.4262 336.347 68.1568 331.87C68.6112 331.443 69.3729 331.149 69.9876 331.149C76.8029 331.095 83.6315 331.108 90.4468 331.122C91.9969 331.122 92.6116 331.737 92.6116 333.26C92.6116 349.095 92.6116 364.918 92.6116 380.753C92.6116 382.236 91.9835 382.891 90.5269 382.891C87.1861 382.891 83.8453 382.891 80.5045 382.891C79.2751 382.891 78.5267 382.156 78.5802 381.06C78.6203 380.085 79.3285 379.457 80.4377 379.443C83.0034 379.43 85.5558 379.443 88.1215 379.443C88.4289 379.443 88.7363 379.443 89.0971 379.443L89.1104 379.417ZM67.7826 336.962C64.9229 339.714 62.1968 342.334 59.3237 345.086H67.7826V336.962Z" fill="white"/>
<path d="M74.9042 321.273C75.4254 321.767 75.9599 322.235 76.4544 322.756C77.2428 323.585 77.2428 324.587 76.5078 325.282C75.8263 325.937 74.784 325.923 74.0356 325.188C72.4721 323.652 70.922 322.115 69.3986 320.551C68.6235 319.763 68.6101 318.814 69.3986 318.012C70.9487 316.422 72.5122 314.859 74.1025 313.309C74.8642 312.56 75.8798 312.6 76.5747 313.309C77.2428 314.003 77.2562 314.952 76.5479 315.714C76 316.289 75.372 316.796 74.6103 317.478C76.441 317.705 77.9644 317.865 79.4745 318.106C87.8666 319.482 95.0293 323.251 101.003 329.278C107.003 335.331 110.651 342.601 111.947 351.02C115.007 370.744 102.753 389.666 83.4968 394.998C83.2162 395.078 82.9489 395.159 82.6549 395.199C81.7462 395.332 80.9444 394.824 80.7173 393.996C80.4634 393.061 80.9177 392.192 81.8665 391.871C83.0692 391.47 84.2986 391.176 85.4746 390.709C98.4771 385.484 106.388 375.982 108.486 362.138C111.386 343.042 98.6641 325.349 79.7284 321.647C78.1782 321.34 76.6014 321.206 75.0379 320.992C74.9978 321.086 74.9577 321.179 74.9176 321.273H74.9042Z" fill="white"/>
<path d="M73.0201 363.194C76.0669 363.194 79.1271 363.194 82.174 363.194C83.6573 363.194 84.2854 363.808 84.2854 365.292C84.2854 367.617 84.2854 369.955 84.2854 372.281C84.2854 373.724 83.6172 374.379 82.1606 374.379C76.0536 374.379 69.9599 374.379 63.8529 374.379C62.3295 374.379 61.7014 373.737 61.7014 372.214C61.7014 369.915 61.7014 367.603 61.7014 365.305C61.7014 363.782 62.3161 363.18 63.8663 363.18C66.9131 363.18 69.9733 363.18 73.0201 363.18V363.194ZM65.2026 370.877H80.7842V366.695H65.2026V370.877Z" fill="white"/>
<path d="M73.2344 357.514C70.1876 357.514 67.1408 357.514 64.0806 357.514C63.359 357.514 62.6908 357.274 62.4637 356.592C62.2899 356.084 62.2632 355.323 62.5438 354.922C62.8512 354.481 63.5594 354.107 64.1073 354.093C70.201 354.04 76.308 354.053 82.4016 354.067C83.4974 354.067 84.2725 354.842 84.2591 355.804C84.2591 356.779 83.4707 357.501 82.3616 357.501C79.3147 357.501 76.2679 357.501 73.2077 357.501L73.2344 357.514Z" fill="white"/>
<path d="M79.9964 345.153C80.8249 345.153 81.6668 345.126 82.4953 345.153C83.5644 345.193 84.286 345.915 84.286 346.864C84.286 347.812 83.5644 348.547 82.4953 348.574C80.7982 348.614 79.101 348.614 77.4173 348.574C76.3215 348.547 75.6533 347.852 75.6533 346.864C75.6533 345.875 76.3348 345.193 77.4173 345.153C78.2725 345.113 79.1411 345.153 79.9964 345.153Z" fill="white"/>
<path d="M72.8066 382.865C71.8845 382.865 71.0694 382.103 71.0293 381.207C70.9892 380.245 71.7776 379.43 72.7532 379.444C73.7019 379.444 74.4503 380.179 74.4637 381.127C74.4637 382.063 73.7153 382.865 72.7932 382.878L72.8066 382.865Z" fill="white"/>
<path d="M113.547 519.267H107.875V503.267H113.594C115.203 503.267 116.588 503.588 117.75 504.228C118.911 504.864 119.805 505.778 120.43 506.97C121.06 508.163 121.375 509.59 121.375 511.252C121.375 512.918 121.06 514.351 120.43 515.549C119.805 516.747 118.906 517.666 117.734 518.306C116.568 518.947 115.172 519.267 113.547 519.267ZM111.258 516.369H113.406C114.406 516.369 115.247 516.192 115.93 515.838C116.617 515.478 117.133 514.924 117.476 514.174C117.825 513.418 118 512.444 118 511.252C118 510.069 117.825 509.103 117.476 508.353C117.133 507.603 116.62 507.051 115.937 506.697C115.255 506.343 114.414 506.166 113.414 506.166H111.258V516.369ZM138.584 511.267C138.584 513.012 138.253 514.497 137.592 515.72C136.935 516.944 136.04 517.879 134.904 518.525C133.774 519.166 132.503 519.486 131.092 519.486C129.67 519.486 128.394 519.163 127.264 518.517C126.133 517.872 125.24 516.937 124.584 515.713C123.928 514.489 123.599 513.007 123.599 511.267C123.599 509.523 123.928 508.038 124.584 506.814C125.24 505.59 126.133 504.658 127.264 504.017C128.394 503.372 129.67 503.049 131.092 503.049C132.503 503.049 133.774 503.372 134.904 504.017C136.04 504.658 136.935 505.59 137.592 506.814C138.253 508.038 138.584 509.523 138.584 511.267ZM135.154 511.267C135.154 510.137 134.985 509.184 134.646 508.408C134.313 507.632 133.842 507.043 133.232 506.642C132.623 506.241 131.909 506.041 131.092 506.041C130.274 506.041 129.56 506.241 128.951 506.642C128.342 507.043 127.868 507.632 127.529 508.408C127.196 509.184 127.029 510.137 127.029 511.267C127.029 512.398 127.196 513.351 127.529 514.127C127.868 514.903 128.342 515.491 128.951 515.892C129.56 516.293 130.274 516.494 131.092 516.494C131.909 516.494 132.623 516.293 133.232 515.892C133.842 515.491 134.313 514.903 134.646 514.127C134.985 513.351 135.154 512.398 135.154 511.267ZM155.207 508.869H151.785C151.723 508.426 151.595 508.033 151.402 507.689C151.209 507.34 150.962 507.043 150.66 506.799C150.358 506.554 150.009 506.366 149.613 506.236C149.223 506.106 148.798 506.041 148.34 506.041C147.512 506.041 146.79 506.247 146.176 506.658C145.561 507.064 145.084 507.658 144.746 508.439C144.407 509.215 144.238 510.158 144.238 511.267C144.238 512.408 144.407 513.366 144.746 514.142C145.09 514.918 145.569 515.504 146.183 515.9C146.798 516.296 147.509 516.494 148.316 516.494C148.769 516.494 149.189 516.434 149.574 516.314C149.965 516.194 150.311 516.02 150.613 515.791C150.915 515.556 151.165 515.273 151.363 514.939C151.566 514.606 151.707 514.226 151.785 513.799L155.207 513.814C155.118 514.549 154.897 515.257 154.543 515.939C154.194 516.616 153.723 517.223 153.129 517.76C152.54 518.291 151.837 518.713 151.019 519.025C150.207 519.332 149.288 519.486 148.262 519.486C146.834 519.486 145.558 519.163 144.433 518.517C143.314 517.872 142.428 516.937 141.777 515.713C141.131 514.489 140.808 513.007 140.808 511.267C140.808 509.523 141.137 508.038 141.793 506.814C142.449 505.59 143.34 504.658 144.465 504.017C145.59 503.372 146.855 503.049 148.262 503.049C149.189 503.049 150.048 503.179 150.84 503.439C151.637 503.7 152.342 504.08 152.957 504.58C153.571 505.075 154.071 505.681 154.457 506.4C154.848 507.119 155.098 507.942 155.207 508.869ZM167.515 503.267H170.898V513.658C170.898 514.825 170.62 515.845 170.062 516.72C169.51 517.595 168.737 518.278 167.742 518.767C166.747 519.252 165.588 519.494 164.265 519.494C162.937 519.494 161.776 519.252 160.781 518.767C159.786 518.278 159.013 517.595 158.461 516.72C157.909 515.845 157.633 514.825 157.633 513.658V503.267H161.015V513.369C161.015 513.978 161.148 514.52 161.414 514.994C161.685 515.468 162.065 515.84 162.555 516.111C163.044 516.382 163.614 516.517 164.265 516.517C164.922 516.517 165.492 516.382 165.976 516.111C166.466 515.84 166.844 515.468 167.109 514.994C167.38 514.52 167.515 513.978 167.515 513.369V503.267ZM173.681 503.267H177.853L182.26 514.017H182.447L186.853 503.267H191.025V519.267H187.744V508.853H187.611L183.471 519.189H181.236L177.096 508.814H176.963V519.267H173.681V503.267ZM193.812 519.267V503.267H204.594V506.056H197.195V509.869H204.039V512.658H197.195V516.478H204.625V519.267H193.812ZM220.666 503.267V519.267H217.744L210.783 509.197H210.666V519.267H207.283V503.267H210.252L217.158 513.33H217.299V503.267H220.666ZM222.851 506.056V503.267H235.992V506.056H231.094V519.267H227.75V506.056H222.851ZM238.959 519.267H235.334L240.857 503.267H245.217L250.732 519.267H247.107L243.099 506.924H242.974L238.959 519.267ZM238.732 512.978H247.295V515.619H238.732V512.978ZM250.094 506.056V503.267H263.234V506.056H258.336V519.267H254.992V506.056H250.094ZM268.781 503.267V519.267H265.398V503.267H268.781ZM286.267 511.267C286.267 513.012 285.937 514.497 285.275 515.72C284.619 516.944 283.723 517.879 282.588 518.525C281.458 519.166 280.187 519.486 278.775 519.486C277.353 519.486 276.077 519.163 274.947 518.517C273.817 517.872 272.924 516.937 272.267 515.713C271.611 514.489 271.283 513.007 271.283 511.267C271.283 509.523 271.611 508.038 272.267 506.814C272.924 505.59 273.817 504.658 274.947 504.017C276.077 503.372 277.353 503.049 278.775 503.049C280.187 503.049 281.458 503.372 282.588 504.017C283.723 504.658 284.619 505.59 285.275 506.814C285.937 508.038 286.267 509.523 286.267 511.267ZM282.838 511.267C282.838 510.137 282.668 509.184 282.33 508.408C281.997 507.632 281.525 507.043 280.916 506.642C280.306 506.241 279.593 506.041 278.775 506.041C277.958 506.041 277.244 506.241 276.635 506.642C276.025 507.043 275.551 507.632 275.213 508.408C274.879 509.184 274.713 510.137 274.713 511.267C274.713 512.398 274.879 513.351 275.213 514.127C275.551 514.903 276.025 515.491 276.635 515.892C277.244 516.293 277.958 516.494 278.775 516.494C279.593 516.494 280.306 516.293 280.916 515.892C281.525 515.491 281.997 514.903 282.33 514.127C282.668 513.351 282.838 512.398 282.838 511.267ZM302.156 503.267V519.267H299.234L292.273 509.197H292.156V519.267H288.773V503.267H291.742L298.648 513.33H298.789V503.267H302.156ZM314.887 519.502C313.782 519.502 312.829 519.304 312.027 518.908C311.225 518.512 310.608 517.976 310.176 517.299C309.749 516.616 309.535 515.856 309.535 515.017C309.535 514.392 309.66 513.838 309.91 513.353C310.16 512.869 310.509 512.424 310.957 512.017C311.405 511.606 311.926 511.197 312.519 510.791L315.621 508.752C316.022 508.497 316.316 508.228 316.504 507.947C316.691 507.661 316.785 507.351 316.785 507.017C316.785 506.7 316.657 506.405 316.402 506.135C316.147 505.864 315.785 505.731 315.316 505.736C315.004 505.736 314.733 505.806 314.504 505.947C314.275 506.082 314.095 506.262 313.965 506.486C313.84 506.705 313.777 506.95 313.777 507.22C313.777 507.554 313.871 507.892 314.058 508.236C314.246 508.58 314.496 508.944 314.808 509.33C315.121 509.71 315.462 510.122 315.832 510.564L323.418 519.267H319.949L313.621 512.22C313.204 511.747 312.788 511.252 312.371 510.736C311.959 510.215 311.616 509.663 311.34 509.08C311.064 508.491 310.926 507.853 310.926 507.166C310.926 506.39 311.105 505.692 311.465 505.072C311.829 504.452 312.34 503.963 312.996 503.603C313.652 503.239 314.418 503.056 315.293 503.056C316.147 503.056 316.884 503.231 317.504 503.58C318.129 503.924 318.608 504.382 318.941 504.955C319.28 505.523 319.449 506.148 319.449 506.83C319.449 507.585 319.262 508.27 318.887 508.885C318.517 509.494 317.996 510.041 317.324 510.525L314.058 512.877C313.616 513.2 313.288 513.53 313.074 513.869C312.866 514.202 312.762 514.523 312.762 514.83C312.762 515.21 312.855 515.551 313.043 515.853C313.23 516.155 313.496 516.395 313.84 516.572C314.183 516.744 314.587 516.83 315.051 516.83C315.613 516.83 316.168 516.702 316.715 516.447C317.267 516.187 317.767 515.819 318.215 515.345C318.668 514.866 319.03 514.299 319.301 513.642C319.571 512.986 319.707 512.26 319.707 511.463H322.465C322.465 512.442 322.358 513.325 322.144 514.111C321.931 514.892 321.634 515.575 321.254 516.158C320.874 516.736 320.439 517.21 319.949 517.58C319.793 517.679 319.642 517.773 319.496 517.861C319.35 517.95 319.199 518.043 319.043 518.142C318.449 518.622 317.785 518.968 317.051 519.181C316.321 519.395 315.6 519.502 314.887 519.502ZM83.8875 543.267V527.267H87.2704V534.322H87.4813L93.2391 527.267H97.2938L91.3563 534.431L97.3641 543.267H93.3172L88.9344 536.689L87.2704 538.72V543.267H83.8875ZM112.438 527.267V543.267H109.516L102.556 533.197H102.438V543.267H99.0555V527.267H102.024L108.931 537.33H109.071V527.267H112.438ZM129.936 535.267C129.936 537.012 129.606 538.497 128.944 539.72C128.288 540.944 127.392 541.879 126.257 542.525C125.126 543.166 123.856 543.486 122.444 543.486C121.022 543.486 119.746 543.163 118.616 542.517C117.486 541.872 116.593 540.937 115.936 539.713C115.28 538.489 114.952 537.007 114.952 535.267C114.952 533.523 115.28 532.038 115.936 530.814C116.593 529.59 117.486 528.658 118.616 528.017C119.746 527.372 121.022 527.049 122.444 527.049C123.856 527.049 125.126 527.372 126.257 528.017C127.392 528.658 128.288 529.59 128.944 530.814C129.606 532.038 129.936 533.523 129.936 535.267ZM126.507 535.267C126.507 534.137 126.337 533.184 125.999 532.408C125.666 531.632 125.194 531.043 124.585 530.642C123.975 530.241 123.262 530.041 122.444 530.041C121.626 530.041 120.913 530.241 120.304 530.642C119.694 531.043 119.22 531.632 118.882 532.408C118.548 533.184 118.382 534.137 118.382 535.267C118.382 536.398 118.548 537.351 118.882 538.127C119.22 538.903 119.694 539.491 120.304 539.892C120.913 540.293 121.626 540.494 122.444 540.494C123.262 540.494 123.975 540.293 124.585 539.892C125.194 539.491 125.666 538.903 125.999 538.127C126.337 537.351 126.507 536.398 126.507 535.267ZM135.442 543.267L130.864 527.267H134.559L137.208 538.385H137.341L140.263 527.267H143.427L146.341 538.408H146.481L149.13 527.267H152.825L148.247 543.267H144.95L141.903 532.806H141.778L138.739 543.267H135.442ZM154.636 543.267V527.267H158.018V540.478H164.878V543.267H154.636ZM167.118 543.267V527.267H177.899V530.056H170.501V533.869H177.345V536.658H170.501V540.478H177.931V543.267H167.118ZM186.261 543.267H180.589V527.267H186.307C187.917 527.267 189.302 527.588 190.464 528.228C191.625 528.864 192.518 529.778 193.143 530.97C193.774 532.163 194.089 533.59 194.089 535.252C194.089 536.918 193.774 538.351 193.143 539.549C192.518 540.747 191.62 541.666 190.448 542.306C189.281 542.947 187.886 543.267 186.261 543.267ZM183.972 540.369H186.12C187.12 540.369 187.961 540.192 188.643 539.838C189.331 539.478 189.847 538.924 190.19 538.174C190.539 537.418 190.714 536.444 190.714 535.252C190.714 534.069 190.539 533.103 190.19 532.353C189.847 531.603 189.334 531.051 188.651 530.697C187.969 530.343 187.128 530.166 186.128 530.166H183.972V540.369ZM207.204 532.439C207.095 532.059 206.941 531.723 206.743 531.431C206.545 531.135 206.303 530.885 206.016 530.681C205.735 530.473 205.412 530.314 205.048 530.205C204.688 530.095 204.29 530.041 203.852 530.041C203.035 530.041 202.316 530.244 201.696 530.65C201.082 531.056 200.602 531.648 200.259 532.424C199.915 533.194 199.743 534.137 199.743 535.252C199.743 536.366 199.912 537.314 200.251 538.095C200.589 538.877 201.069 539.473 201.688 539.885C202.308 540.291 203.04 540.494 203.884 540.494C204.649 540.494 205.303 540.358 205.845 540.088C206.391 539.812 206.808 539.424 207.095 538.924C207.386 538.424 207.532 537.832 207.532 537.15L208.22 537.252H204.095V534.705H210.79V536.72C210.79 538.127 210.493 539.335 209.899 540.345C209.306 541.351 208.488 542.127 207.446 542.674C206.404 543.215 205.212 543.486 203.868 543.486C202.368 543.486 201.05 543.155 199.915 542.494C198.779 541.827 197.894 540.882 197.259 539.658C196.628 538.429 196.313 536.97 196.313 535.283C196.313 533.986 196.501 532.83 196.876 531.814C197.256 530.793 197.787 529.929 198.47 529.22C199.152 528.512 199.946 527.973 200.852 527.603C201.759 527.233 202.74 527.049 203.798 527.049C204.704 527.049 205.548 527.181 206.329 527.447C207.11 527.707 207.803 528.077 208.407 528.556C209.016 529.036 209.514 529.606 209.899 530.267C210.285 530.924 210.532 531.648 210.641 532.439H207.204ZM213.331 543.267V527.267H224.112V530.056H216.714V533.869H223.557V536.658H216.714V540.478H224.143V543.267H213.331ZM231.284 530.056V527.267H244.425V530.056H239.526V543.267H236.182V530.056H231.284ZM246.589 543.267V527.267H252.901C254.11 527.267 255.141 527.483 255.995 527.916C256.854 528.343 257.508 528.95 257.956 529.736C258.409 530.517 258.636 531.437 258.636 532.494C258.636 533.556 258.406 534.47 257.948 535.236C257.49 535.997 256.826 536.58 255.956 536.986C255.091 537.392 254.044 537.595 252.815 537.595H248.589V534.877H252.268C252.914 534.877 253.451 534.788 253.878 534.611C254.305 534.434 254.623 534.168 254.831 533.814C255.044 533.46 255.151 533.02 255.151 532.494C255.151 531.963 255.044 531.515 254.831 531.15C254.623 530.786 254.302 530.51 253.87 530.322C253.443 530.129 252.904 530.033 252.253 530.033H249.972V543.267H246.589ZM255.229 535.986L259.206 543.267H255.472L251.581 535.986H255.229ZM263.784 543.267H260.159L265.682 527.267H270.042L275.557 543.267H271.932L267.925 530.924H267.8L263.784 543.267ZM263.557 536.978H272.12V539.619H263.557V536.978ZM290.866 527.267V543.267H287.944L280.983 533.197H280.866V543.267H277.483V527.267H280.452L287.358 537.33H287.499V527.267H290.866ZM302.341 531.869C302.278 531.239 302.01 530.749 301.536 530.4C301.062 530.051 300.419 529.877 299.606 529.877C299.054 529.877 298.588 529.955 298.208 530.111C297.828 530.262 297.536 530.473 297.333 530.744C297.135 531.015 297.036 531.322 297.036 531.666C297.026 531.952 297.085 532.202 297.216 532.416C297.351 532.629 297.536 532.814 297.77 532.97C298.005 533.122 298.276 533.254 298.583 533.369C298.89 533.478 299.218 533.572 299.567 533.65L301.005 533.994C301.703 534.15 302.343 534.358 302.927 534.619C303.51 534.879 304.015 535.2 304.442 535.58C304.869 535.96 305.2 536.408 305.434 536.924C305.674 537.439 305.796 538.03 305.802 538.697C305.796 539.676 305.546 540.525 305.052 541.244C304.562 541.957 303.854 542.512 302.927 542.908C302.005 543.299 300.893 543.494 299.591 543.494C298.299 543.494 297.174 543.296 296.216 542.9C295.263 542.504 294.518 541.918 293.981 541.142C293.45 540.361 293.171 539.395 293.145 538.244H296.419C296.455 538.78 296.609 539.228 296.88 539.588C297.156 539.942 297.523 540.21 297.981 540.392C298.445 540.569 298.968 540.658 299.552 540.658C300.125 540.658 300.622 540.575 301.044 540.408C301.471 540.241 301.802 540.01 302.036 539.713C302.27 539.416 302.388 539.075 302.388 538.689C302.388 538.33 302.281 538.028 302.067 537.783C301.859 537.538 301.552 537.33 301.145 537.158C300.744 536.986 300.252 536.83 299.669 536.689L297.927 536.252C296.578 535.924 295.513 535.411 294.731 534.713C293.95 534.015 293.562 533.075 293.567 531.892C293.562 530.924 293.82 530.077 294.341 529.353C294.867 528.629 295.588 528.064 296.505 527.658C297.421 527.252 298.463 527.049 299.63 527.049C300.817 527.049 301.854 527.252 302.739 527.658C303.63 528.064 304.322 528.629 304.817 529.353C305.312 530.077 305.567 530.916 305.583 531.869H302.341ZM308.077 543.267V527.267H318.671V530.056H311.46V533.869H317.968V536.658H311.46V543.267H308.077ZM320.946 543.267V527.267H331.727V530.056H324.329V533.869H331.173V536.658H324.329V540.478H331.759V543.267H320.946ZM334.417 543.267V527.267H340.729C341.938 527.267 342.969 527.483 343.823 527.916C344.682 528.343 345.336 528.95 345.784 529.736C346.237 530.517 346.464 531.437 346.464 532.494C346.464 533.556 346.235 534.47 345.776 535.236C345.318 535.997 344.654 536.58 343.784 536.986C342.919 537.392 341.873 537.595 340.643 537.595H336.417V534.877H340.097C340.742 534.877 341.279 534.788 341.706 534.611C342.133 534.434 342.451 534.168 342.659 533.814C342.873 533.46 342.979 533.02 342.979 532.494C342.979 531.963 342.873 531.515 342.659 531.15C342.451 530.786 342.13 530.51 341.698 530.322C341.271 530.129 340.732 530.033 340.081 530.033H337.8V543.267H334.417ZM343.057 535.986L347.034 543.267H343.3L339.409 535.986H343.057Z" fill="#00A4EF"/>
</svg>
