<svg width="911" height="592" viewBox="0 0 911 592" fill="none" xmlns="http://www.w3.org/2000/svg">
<path d="M-1.28638e-05 13.4583C-1.31887e-05 6.02601 6.0248 0.00129574 13.457 0.00122011L72.1992 0.00121755C72.2438 0.00113667 72.2884 0.000241123 72.333 0.000240979L398.674 0.000226714C438.622 0.000259111 471.007 32.3857 471.007 72.3342C471.007 112.283 438.622 144.667 398.674 144.667L144.666 144.667L144.666 306.823C128.365 284.784 102.187 270.492 72.6699 270.492C42.7425 270.492 16.2475 285.184 0 307.747L-1.28638e-05 13.4583Z" fill="#00A4EF"/>
<circle cx="398.674" cy="72.333" r="62.2402" fill="white"/>
<path d="M399.966 33.4919C400.594 33.9329 400.768 34.5343 400.754 35.2826C400.714 37.7014 400.754 40.1201 400.741 42.5389C400.741 43.5411 400.247 44.1558 399.458 44.1291C398.71 44.1024 398.256 43.5278 398.256 42.5389C398.256 40.1201 398.282 37.7014 398.242 35.2826C398.242 34.5209 398.403 33.9329 399.031 33.4919H399.966Z" fill="#00A4EF"/>
<path d="M419.035 97.0341C418.741 96.5263 418.46 96.0585 418.22 95.6443C416.897 95.9516 415.64 96.3525 414.344 96.5263C411.311 96.9539 408.504 96.2189 405.939 94.5886C405.524 94.3347 405.271 94.2946 404.87 94.6019C403.867 95.3637 402.718 95.8982 401.462 95.9249C399.818 95.9516 398.135 96.0452 396.544 95.7245C393.511 95.1098 391.319 92.3703 391.105 89.2566C391.025 88.0005 391.052 86.731 391.025 85.4615C390.972 83.3902 390.21 81.5995 388.86 80.0493C387.832 78.86 386.789 77.6707 385.774 76.468C381.043 70.8554 381.43 61.755 386.081 56.1024C390.691 50.4898 396.691 48.3383 403.707 50.129C410.75 51.933 414.946 56.7572 416.322 63.9065C416.803 66.3921 416.576 68.891 415.934 71.4033C420.986 72.9401 424.34 76.1874 425.369 81.4258C426.398 86.6909 424.474 90.9271 420.331 94.2812C420.531 94.642 420.692 95.0296 420.946 95.3369C421.106 95.524 421.427 95.7111 421.667 95.6977C422.83 95.6443 423.632 96.1387 424.206 97.1276C426.251 100.682 428.309 104.224 430.353 107.791C431.356 109.542 430.901 111.453 429.298 112.348C427.681 113.257 425.863 112.682 424.834 110.918C422.817 107.444 420.825 103.943 418.794 100.468C418.073 99.2524 418.073 98.1432 419.048 97.0073L419.035 97.0341ZM413.369 71.0692C414.064 69.5458 414.331 66.3253 413.85 64.0669C412.567 58.0801 409.026 54.0444 403.079 52.5344C397.199 51.0377 392.161 52.8016 388.219 57.412C384.183 62.1158 383.395 70.3743 388.259 75.5994C388.994 76.3878 389.676 77.2431 390.411 78.0449C391.56 79.3277 392.495 80.7309 393.03 82.3746C393.097 82.5616 393.337 82.8155 393.511 82.8289C394.045 82.8957 394.58 82.8556 395.141 82.8556V70.0135C394.7 70.0135 394.313 70.0135 393.925 70.0135C391.76 69.9334 390.157 68.303 390.183 66.1916C390.21 64.1604 391.854 62.5034 393.885 62.4766C395.97 62.4499 397.613 64.0936 397.68 66.2585C397.68 66.6594 397.68 67.0736 397.68 67.5012H401.248C401.302 66.7395 401.275 66.0179 401.435 65.323C401.85 63.4923 403.707 62.2495 405.511 62.5034C407.516 62.7974 408.879 64.4143 408.812 66.4322C408.745 68.3431 407.208 69.8799 405.204 70.0002C404.749 70.0269 404.295 70.0002 403.867 70.0002V74.7308C407.529 71.8577 408.598 71.4568 413.369 71.0559V71.0692ZM412.888 73.5815C407.195 73.5815 402.611 78.125 402.585 83.8312C402.558 89.5373 407.168 94.1743 412.888 94.1743C418.514 94.1743 423.164 89.5239 423.177 83.8579C423.177 78.2052 418.567 73.5815 412.888 73.5682V73.5815ZM399.899 82.8289C401.703 78.6863 401.382 74.3833 401.275 70.0536H397.76V82.8289H399.899ZM403.413 92.5574C402.576 91.2923 401.426 90.6598 399.965 90.6598H394.099C394.967 93.6264 400.767 94.7623 403.413 92.5574ZM393.591 85.3278V88.1475H400.754C400.58 87.3056 400.433 86.4904 400.219 85.702C400.179 85.5417 399.912 85.3412 399.752 85.3412C397.72 85.3145 395.689 85.3278 393.591 85.3278ZM420.745 98.8916C422.857 102.553 424.941 106.175 427.039 109.783C427.12 109.916 427.2 110.103 427.32 110.13C427.574 110.197 427.908 110.277 428.082 110.17C428.269 110.05 428.376 109.716 428.389 109.462C428.389 109.261 428.215 109.048 428.095 108.847C426.171 105.506 424.233 102.152 422.295 98.8114C422.188 98.6109 422.055 98.4238 421.908 98.21C421.494 98.4506 421.133 98.6644 420.732 98.8916H420.745ZM395.195 67.5012C395.195 67.0335 395.221 66.6059 395.195 66.1783C395.141 65.47 394.62 64.9622 393.952 64.9622C393.324 64.9622 392.763 65.4433 392.682 66.0714C392.602 66.7529 392.99 67.3676 393.685 67.4879C394.152 67.5681 394.647 67.5012 395.195 67.5012ZM403.814 67.5814C404.455 67.528 405.003 67.5413 405.498 67.4077C406.139 67.234 406.46 66.5792 406.3 65.9377C406.126 65.2829 405.671 64.9221 405.003 64.9622C404.349 65.0023 403.894 65.3765 403.814 66.058C403.761 66.5124 403.814 66.9667 403.814 67.5814Z" fill="#00A4EF"/>
<path d="M384.144 49.9286C383.796 50.3161 383.556 50.8239 383.195 50.9308C382.807 51.0511 382.179 50.9442 381.872 50.6903C381.017 49.982 380.282 49.1535 379.493 48.3651C378.424 47.296 377.342 46.2136 376.273 45.1312C375.618 44.463 375.551 43.7681 376.059 43.2202C376.607 42.6456 377.328 42.699 378.023 43.3806C379.814 45.1579 381.605 46.9486 383.382 48.7392C383.676 49.0332 383.85 49.4341 384.144 49.9152V49.9286Z" fill="#00A4EF"/>
<path d="M423.445 43.9948C423.178 44.4358 423.044 44.81 422.79 45.0639C420.959 46.9214 419.129 48.7655 417.271 50.5963C416.656 51.1976 415.935 51.2244 415.414 50.7165C414.893 50.1954 414.906 49.4871 415.507 48.8724C417.351 47.0016 419.222 45.1441 421.08 43.2866C421.507 42.8723 422.029 42.6451 422.55 42.9792C422.897 43.193 423.124 43.6207 423.445 43.9948Z" fill="#00A4EF"/>
<path d="M427.307 65.3765C428.59 65.3765 429.886 65.3765 431.169 65.3765C432.078 65.3765 432.639 65.8709 432.626 66.6192C432.626 67.3542 432.038 67.8487 431.142 67.8487C428.59 67.8487 426.038 67.8487 423.485 67.8487C422.59 67.8487 422.002 67.3542 421.989 66.6326C421.975 65.8709 422.55 65.3898 423.512 65.3765C424.781 65.3765 426.038 65.3765 427.307 65.3765Z" fill="#00A4EF"/>
<path d="M371.73 65.3765C373 65.3765 374.256 65.3765 375.525 65.3765C376.448 65.3765 377.009 65.8442 377.022 66.5792C377.036 67.3141 376.461 67.8487 375.579 67.8487C373 67.8487 370.421 67.8487 367.842 67.8487C366.946 67.8487 366.372 67.3275 366.385 66.5925C366.385 65.8575 366.96 65.3898 367.868 65.3765C369.151 65.3765 370.447 65.3765 371.73 65.3765Z" fill="#00A4EF"/>
<path d="M910.39 578.239C910.39 585.671 904.365 591.696 896.933 591.696L511.716 591.696C471.768 591.696 439.384 559.311 439.383 519.363C439.384 479.415 471.768 447.029 511.716 447.029L765.723 447.029L765.723 284.872C782.024 306.912 808.203 321.204 837.72 321.204C867.648 321.204 894.143 306.512 910.39 283.949L910.39 578.239Z" fill="#00A4EF"/>
<circle cx="511.716" cy="519.117" r="62.2402" fill="white"/>
<path d="M548.664 516.239C548.477 517.107 548.357 517.989 548.09 518.831C546.74 523.041 544.094 525.98 539.711 527.143C539.35 527.237 538.976 527.303 538.602 527.344C538.227 527.384 537.853 527.397 537.412 527.437C537.399 527.731 537.372 527.998 537.372 528.279C537.372 535.549 537.372 542.818 537.372 550.088C537.372 552.948 535.782 555.166 533.23 555.847C532.655 556.008 532.027 556.061 531.426 556.061C518.904 556.061 506.383 556.061 493.861 556.061C490.347 556.061 487.928 553.656 487.915 550.141C487.901 542.872 487.915 535.602 487.915 528.332C487.915 528.052 487.915 527.771 487.915 527.584C486.659 527.29 485.429 527.17 484.32 526.729C479.937 524.992 477.531 521.584 476.81 517.04C476.102 512.55 477.358 508.595 480.672 505.388C481.794 504.292 483.131 503.53 484.601 502.996C484.855 502.902 485.135 502.621 485.202 502.368C487.808 493.16 498.191 489.338 506.142 494.657C506.236 494.724 506.329 494.777 506.476 494.871C506.61 494.617 506.717 494.403 506.837 494.189C509.75 488.403 514.387 485.009 520.828 484.14C520.962 484.127 521.096 484.06 521.216 484.02C522.245 484.02 523.274 484.02 524.316 484.02C524.49 484.06 524.677 484.127 524.851 484.14C527.229 484.407 529.488 485.102 531.532 486.345C537.466 489.966 540.486 495.258 540.499 502.247C540.499 502.608 540.406 502.929 540.913 503.129C544.816 504.639 547.114 507.579 548.21 511.521C548.397 512.19 548.504 512.884 548.651 513.566V516.239H548.664ZM537.372 524.564C539.51 524.564 541.274 523.829 542.704 522.399C545.885 519.205 546.606 515.397 545.163 511.201C544.134 508.221 542.089 506.216 538.962 505.441C537.813 505.147 537.533 504.653 537.573 503.463C537.626 502.114 537.693 500.724 537.492 499.401C536.397 492.479 530.677 487.294 523.768 486.839C516.967 486.385 510.712 490.741 508.614 497.37C508.12 498.92 507.104 499.174 505.902 498.065C502.842 495.245 499.287 494.269 495.305 495.512C491.202 496.782 488.703 499.655 487.794 503.851C487.581 504.826 487.113 505.321 486.178 505.508C484.975 505.735 483.906 506.283 482.997 507.071C479.937 509.731 478.975 513.138 479.67 517.027C480.177 519.86 481.661 522.118 484.186 523.575C485.309 524.23 486.525 524.604 487.915 524.524C487.915 524.216 487.915 523.963 487.915 523.709C487.915 522.279 487.901 520.849 487.915 519.419C487.968 516.506 489.812 514.274 492.619 513.753C493.006 513.686 493.407 513.673 493.808 513.673C506.369 513.673 518.944 513.673 531.506 513.673C534.9 513.673 537.305 516.052 537.359 519.446C537.386 520.809 537.359 522.172 537.359 523.522C537.359 523.842 537.359 524.163 537.359 524.537L537.372 524.564ZM490.774 527.811C490.761 528.065 490.734 528.239 490.734 528.426C490.734 535.669 490.734 542.912 490.734 550.155C490.734 552.092 491.91 553.242 493.861 553.242C506.356 553.242 518.851 553.242 531.345 553.242C533.43 553.242 534.553 552.106 534.553 550.021C534.553 542.872 534.553 535.722 534.553 528.573C534.553 528.319 534.526 528.078 534.512 527.811H490.761H490.774ZM490.761 524.925H534.512C534.512 522.92 534.593 520.943 534.486 518.991C534.406 517.495 533.176 516.506 531.666 516.506C518.984 516.506 506.303 516.506 493.607 516.506C492.084 516.506 490.868 517.495 490.788 518.991C490.681 520.943 490.761 522.92 490.761 524.925Z" fill="#00A4EF"/>
<path d="M498.512 540.533C500.677 542.497 502.762 544.408 504.873 546.306C505.314 546.707 505.742 547.161 505.541 547.749C505.394 548.19 505.02 548.618 504.633 548.872C504.125 549.192 503.59 548.939 503.163 548.551C501.506 547.054 499.862 545.558 498.218 544.061C497.363 543.286 496.521 542.524 495.666 541.736C494.797 540.934 494.771 540.119 495.626 539.33C498.098 537.072 500.584 534.814 503.069 532.569C503.804 531.9 504.619 531.887 505.194 532.488C505.795 533.116 505.715 533.958 504.953 534.653C503.002 536.444 501.038 538.221 499.074 539.999C498.9 540.159 498.74 540.319 498.512 540.533Z" fill="#00A4EF"/>
<path d="M526.789 540.519C525.746 539.57 524.758 538.648 523.755 537.739C522.633 536.71 521.497 535.695 520.374 534.666C519.599 533.958 519.506 533.156 520.08 532.514C520.655 531.873 521.484 531.886 522.259 532.581C524.731 534.813 527.19 537.058 529.648 539.303C530.517 540.091 530.53 540.933 529.675 541.708C527.203 543.967 524.717 546.225 522.232 548.47C521.724 548.938 521.163 549.138 520.495 548.817C519.559 548.363 519.452 547.201 520.308 546.425C521.804 545.049 523.328 543.673 524.824 542.31C525.466 541.722 526.107 541.147 526.789 540.519Z" fill="#00A4EF"/>
<path d="M516.94 533.304C516.82 533.704 516.767 533.985 516.673 534.239C514.856 538.782 513.052 543.313 511.221 547.843C510.86 548.738 510.245 549.126 509.51 548.939C508.615 548.725 508.187 547.883 508.562 546.961C509.484 544.609 510.432 542.27 511.368 539.918C512.277 537.633 513.172 535.348 514.107 533.076C514.522 532.074 515.564 531.713 516.312 532.341C516.606 532.595 516.767 533.01 516.954 533.29L516.94 533.304Z" fill="#00A4EF"/>
<path d="M499.247 520.675C499.274 519.9 499.902 519.312 500.677 519.338C501.425 519.365 502.054 520.02 502.04 520.768C502.027 521.557 501.345 522.185 500.557 522.145C499.795 522.104 499.221 521.463 499.247 520.688V520.675Z" fill="#00A4EF"/>
<path d="M506.302 519.339C507.05 519.339 507.678 519.98 507.691 520.715C507.691 521.477 507.037 522.145 506.275 522.131C505.486 522.131 504.872 521.477 504.898 520.675C504.925 519.913 505.54 519.312 506.302 519.325V519.339Z" fill="#00A4EF"/>
<path d="M496.373 520.755C496.373 521.53 495.759 522.145 494.997 522.145C494.209 522.145 493.58 521.49 493.607 520.702C493.634 519.94 494.262 519.325 495.024 519.352C495.785 519.365 496.387 519.993 496.387 520.768L496.373 520.755Z" fill="#00A4EF"/>
<path d="M897.178 0C904.61 0.000315933 910.635 6.02506 910.635 13.457V144.666H910.388V235.167C910.388 275.115 878.003 307.5 838.055 307.5C798.106 307.5 765.722 275.116 765.722 235.167V144.666L451.742 144.666C473.782 128.365 488.074 102.187 488.074 72.6699C488.074 42.7425 473.382 16.2475 450.819 0L897.178 0Z" fill="white"/>
<circle cx="838.055" cy="235.167" r="62.2402" fill="#00A4EF"/>
<path d="M840.515 197.275C841.958 197.475 843.415 197.676 844.858 197.876C845.139 197.916 845.406 197.969 845.673 198.023C846.622 198.237 847.183 198.972 847.01 199.814C846.836 200.669 846.061 201.11 845.112 201.003C842.68 200.749 840.235 200.268 837.802 200.348C823.905 200.762 813.201 206.963 806.653 219.19C799.637 232.313 800.906 245.262 809.379 257.489C809.526 257.69 809.686 257.877 809.833 258.064C813.561 256.701 816.622 257.556 818.359 260.416C819.936 263.022 819.441 266.403 817.17 268.434C814.898 270.479 811.517 270.626 809.071 268.795C806.412 266.79 805.851 263.65 807.561 260.135C805.69 257.73 804.1 255.124 802.804 252.345C792.755 230.803 804.675 204.972 827.62 198.704C830.012 198.05 832.524 197.822 834.983 197.395C835.21 197.355 835.424 197.301 835.638 197.261C837.255 197.261 838.871 197.261 840.488 197.261L840.515 197.275ZM812.907 260.376C811.076 260.376 809.579 261.859 809.579 263.69C809.579 265.507 811.063 267.031 812.88 267.044C814.737 267.058 816.247 265.548 816.247 263.677C816.247 261.846 814.751 260.363 812.907 260.376Z" fill="white"/>
<path d="M876.929 238.527C876.729 239.957 876.582 241.374 876.341 242.79C873.829 257.837 862.123 270.332 847.289 273.846C841.904 275.116 836.492 275.276 831.04 274.301C830.946 274.287 830.839 274.247 830.746 274.234C829.623 273.993 829.102 273.352 829.262 272.416C829.423 271.508 830.171 271.053 831.28 271.254C839.472 272.737 847.329 271.735 854.666 267.779C864.849 262.3 871.183 253.828 873.281 242.443C875.152 232.3 872.813 223.039 866.786 214.7C866.679 214.553 866.573 214.42 866.466 214.273C866.439 214.233 866.399 214.193 866.452 214.259C865.316 214.473 864.274 214.807 863.218 214.821C860.372 214.888 857.873 212.91 857.125 210.157C856.376 207.431 857.539 204.518 859.931 203.061C862.403 201.564 865.463 201.858 867.588 203.796C869.659 205.707 870.261 208.781 868.951 211.293C868.644 211.881 868.711 212.228 869.098 212.736C873.642 218.79 876.207 225.592 876.809 233.142C876.822 233.369 876.889 233.583 876.929 233.797V238.5V238.527ZM863.258 211.827C865.089 211.827 866.586 210.357 866.613 208.527C866.626 206.669 865.103 205.146 863.245 205.159C861.414 205.159 859.931 206.669 859.944 208.5C859.944 210.331 861.428 211.814 863.258 211.827Z" fill="white"/>
<path d="M817.169 248.256C816.407 246.291 815.726 244.514 815.004 242.737C814.924 242.55 814.617 242.376 814.403 242.363C813.668 242.322 812.933 242.363 812.198 242.336C811.035 242.322 810.461 241.761 810.461 240.612C810.461 237.605 810.461 234.598 810.461 231.592C810.461 230.389 811.022 229.868 812.238 229.841C813.093 229.828 814.149 230.108 814.75 229.708C815.311 229.347 815.352 228.224 815.672 227.476C816.14 226.367 816.661 225.271 817.249 224.001C816.674 223.467 816.02 222.892 815.392 222.264C814.536 221.422 814.536 220.607 815.378 219.765C817.503 217.627 819.628 215.502 821.766 213.391C822.594 212.576 823.383 212.589 824.211 213.391C824.719 213.885 825.227 214.38 825.708 214.901C825.989 215.208 826.202 215.235 826.603 215.048C828.14 214.353 829.704 213.712 831.281 213.097C831.681 212.937 831.855 212.79 831.828 212.362C831.802 211.627 831.815 210.892 831.828 210.157C831.855 209.088 832.403 208.5 833.472 208.5C836.532 208.5 839.592 208.5 842.653 208.5C843.762 208.5 844.31 209.075 844.323 210.197C844.323 210.932 844.296 211.667 844.35 212.389C844.363 212.603 844.537 212.937 844.711 213.003C846.488 213.725 848.265 214.393 850.256 215.168C850.711 214.687 851.299 214.019 851.927 213.404C852.769 212.562 853.57 212.562 854.426 213.404C856.537 215.502 858.649 217.614 860.76 219.725C861.629 220.594 861.615 221.396 860.747 222.291C860.185 222.866 859.611 223.44 859.036 224.015C859.009 224.055 858.996 224.108 859.036 224.015C859.771 225.899 860.439 227.69 861.161 229.454C861.241 229.641 861.548 229.828 861.762 229.841C862.524 229.881 863.272 229.841 864.034 229.868C865.103 229.895 865.691 230.442 865.691 231.498C865.691 234.585 865.691 237.672 865.691 240.746C865.691 241.748 865.09 242.322 864.074 242.349C863.286 242.363 862.51 242.322 861.722 242.376C861.522 242.376 861.228 242.603 861.147 242.79C860.439 244.541 859.758 246.305 858.996 248.242C859.477 248.71 860.132 249.298 860.747 249.926C861.629 250.808 861.629 251.597 860.747 252.492C858.649 254.603 856.537 256.715 854.412 258.813C853.57 259.655 852.755 259.641 851.913 258.786C851.285 258.158 850.711 257.503 850.256 257.009C848.265 257.784 846.475 258.452 844.711 259.174C844.524 259.254 844.35 259.561 844.336 259.775C844.296 260.51 844.336 261.245 844.323 261.966C844.31 263.129 843.762 263.704 842.613 263.704C839.606 263.704 836.599 263.704 833.592 263.704C832.39 263.704 831.855 263.142 831.842 261.926C831.842 261.218 831.828 260.51 831.842 259.802C831.842 259.427 831.735 259.24 831.347 259.093C829.597 258.452 827.873 257.744 825.935 256.982C825.481 257.463 824.893 258.118 824.265 258.733C823.383 259.615 822.581 259.614 821.712 258.746C819.601 256.648 817.49 254.536 815.392 252.412C814.55 251.556 814.55 250.755 815.392 249.913C816.02 249.285 816.674 248.697 817.169 248.229V248.256ZM834.875 211.574C834.875 212.362 834.875 213.11 834.875 213.872C834.862 214.914 834.488 215.409 833.472 215.649C831.12 216.211 828.915 217.119 826.857 218.402C826.015 218.923 825.374 218.843 824.679 218.135C824.131 217.574 823.637 216.972 823.196 216.478C821.552 218.135 820.069 219.632 818.519 221.195C818.986 221.636 819.534 222.131 820.042 222.638C820.83 223.44 820.897 224.041 820.296 225.004C819.066 226.968 818.198 229.079 817.663 231.338C817.369 232.567 816.928 232.888 815.632 232.901C814.937 232.901 814.242 232.901 813.547 232.901V239.329C814.349 239.329 815.098 239.329 815.859 239.329C816.902 239.329 817.383 239.703 817.623 240.732C818.185 243.057 819.066 245.249 820.336 247.28C820.911 248.189 820.83 248.804 820.042 249.579C819.507 250.113 818.92 250.594 818.438 251.035C820.055 252.666 821.552 254.162 823.049 255.672C823.049 255.672 823.089 255.659 823.129 255.619C823.637 255.124 824.131 254.617 824.639 254.122C825.387 253.387 826.002 253.294 826.884 253.842C828.915 255.098 831.093 256.006 833.432 256.554C834.528 256.808 834.875 257.303 834.875 258.452C834.875 259.174 834.875 259.909 834.875 260.657H841.303C841.303 259.895 841.303 259.187 841.303 258.479C841.303 257.276 841.65 256.822 842.786 256.541C845.085 255.993 847.25 255.098 849.254 253.842C850.149 253.28 850.764 253.347 851.499 254.082C852.047 254.63 852.555 255.231 853.009 255.739C854.626 254.109 856.123 252.612 857.673 251.049C857.179 250.581 856.631 250.073 856.096 249.539C855.361 248.804 855.268 248.176 855.816 247.307C857.098 245.249 857.994 243.044 858.555 240.692C858.782 239.717 859.277 239.342 860.279 239.329C861.054 239.329 861.829 239.329 862.604 239.329V232.901C861.789 232.901 861.027 232.915 860.265 232.901C859.263 232.875 858.782 232.5 858.542 231.525C857.98 229.173 857.085 226.968 855.802 224.91C855.254 224.041 855.348 223.413 856.083 222.678C856.617 222.144 857.192 221.649 857.726 221.155C856.123 219.565 854.626 218.068 853.116 216.571C853.116 216.571 853.049 216.585 853.023 216.625C852.542 217.106 852.047 217.587 851.566 218.068C850.724 218.883 850.149 218.963 849.134 218.335C847.143 217.093 845.005 216.237 842.719 215.689C841.664 215.436 841.29 214.968 841.276 213.872C841.276 213.124 841.276 212.375 841.276 211.614H834.849L834.875 211.574Z" fill="white"/>
<path d="M853.571 201.484C853.571 202.326 852.85 203.021 852.021 203.007C851.233 202.98 850.551 202.286 850.538 201.484C850.538 200.642 851.246 199.96 852.088 199.987C852.917 200 853.558 200.669 853.558 201.484H853.571Z" fill="white"/>
<path d="M825.682 270.773C825.669 271.615 825.014 272.243 824.172 272.23C823.343 272.23 822.675 271.561 822.675 270.733C822.675 269.891 823.41 269.183 824.239 269.223C825.067 269.25 825.695 269.931 825.682 270.773Z" fill="white"/>
<path d="M850.618 236.523C850.244 243.552 844.431 248.991 837.669 248.643C830.64 248.282 825.201 242.456 825.548 235.694C825.909 228.678 831.722 223.226 838.497 223.574C845.513 223.934 850.979 229.774 850.618 236.523ZM847.598 236.135C847.638 230.937 843.348 226.62 838.123 226.594C832.912 226.567 828.609 230.843 828.582 236.055C828.555 241.253 832.831 245.57 838.056 245.596C843.255 245.623 847.571 241.347 847.611 236.122L847.598 236.135Z" fill="white"/>
<path d="M840.515 197.275C841.958 197.475 843.415 197.676 844.858 197.876C845.139 197.916 845.406 197.969 845.673 198.023C846.622 198.237 847.183 198.972 847.01 199.814C846.836 200.669 846.061 201.11 845.112 201.003C842.68 200.749 840.235 200.268 837.802 200.348C823.905 200.762 813.201 206.963 806.653 219.19C799.637 232.313 800.906 245.262 809.379 257.489C809.526 257.69 809.686 257.877 809.833 258.064C813.561 256.701 816.622 257.556 818.359 260.416C819.936 263.022 819.441 266.403 817.17 268.434C814.898 270.479 811.517 270.626 809.071 268.795C806.412 266.79 805.851 263.65 807.561 260.135C805.69 257.73 804.1 255.124 802.804 252.345C792.755 230.803 804.675 204.972 827.62 198.704C830.012 198.05 832.524 197.822 834.983 197.395C835.21 197.355 835.424 197.301 835.638 197.261C837.255 197.261 838.871 197.261 840.488 197.261L840.515 197.275ZM812.907 260.376C811.076 260.376 809.579 261.859 809.579 263.69C809.579 265.507 811.063 267.031 812.88 267.044C814.737 267.058 816.247 265.548 816.247 263.677C816.247 261.846 814.751 260.363 812.907 260.376Z" fill="white"/>
<path d="M876.929 238.527C876.729 239.957 876.582 241.374 876.341 242.79C873.829 257.837 862.123 270.332 847.289 273.846C841.904 275.116 836.492 275.276 831.04 274.301C830.946 274.287 830.839 274.247 830.746 274.234C829.623 273.993 829.102 273.352 829.262 272.416C829.423 271.508 830.171 271.053 831.28 271.254C839.472 272.737 847.329 271.735 854.666 267.779C864.849 262.3 871.183 253.828 873.281 242.443C875.152 232.3 872.813 223.039 866.786 214.7C866.679 214.553 866.573 214.42 866.466 214.273C866.439 214.233 866.399 214.193 866.452 214.259C865.316 214.473 864.274 214.807 863.218 214.821C860.372 214.888 857.873 212.91 857.125 210.157C856.376 207.431 857.539 204.518 859.931 203.061C862.403 201.564 865.463 201.858 867.588 203.796C869.659 205.707 870.261 208.781 868.951 211.293C868.644 211.881 868.711 212.228 869.098 212.736C873.642 218.79 876.207 225.592 876.809 233.142C876.822 233.369 876.889 233.583 876.929 233.797V238.5V238.527ZM863.258 211.827C865.089 211.827 866.586 210.357 866.613 208.527C866.626 206.669 865.103 205.146 863.245 205.159C861.414 205.159 859.931 206.669 859.944 208.5C859.944 210.331 861.428 211.814 863.258 211.827Z" fill="white"/>
<path d="M817.169 248.256C816.407 246.291 815.726 244.514 815.004 242.737C814.924 242.55 814.617 242.376 814.403 242.363C813.668 242.322 812.933 242.363 812.198 242.336C811.035 242.322 810.461 241.761 810.461 240.612C810.461 237.605 810.461 234.598 810.461 231.592C810.461 230.389 811.022 229.868 812.238 229.841C813.093 229.828 814.149 230.108 814.75 229.708C815.311 229.347 815.352 228.224 815.672 227.476C816.14 226.367 816.661 225.271 817.249 224.001C816.674 223.467 816.02 222.892 815.392 222.264C814.536 221.422 814.536 220.607 815.378 219.765C817.503 217.627 819.628 215.502 821.766 213.391C822.594 212.576 823.383 212.589 824.211 213.391C824.719 213.885 825.227 214.38 825.708 214.901C825.989 215.208 826.202 215.235 826.603 215.048C828.14 214.353 829.704 213.712 831.281 213.097C831.681 212.937 831.855 212.79 831.828 212.362C831.802 211.627 831.815 210.892 831.828 210.157C831.855 209.088 832.403 208.5 833.472 208.5C836.532 208.5 839.592 208.5 842.653 208.5C843.762 208.5 844.31 209.075 844.323 210.197C844.323 210.932 844.296 211.667 844.35 212.389C844.363 212.603 844.537 212.937 844.711 213.003C846.488 213.725 848.265 214.393 850.256 215.168C850.711 214.687 851.299 214.019 851.927 213.404C852.769 212.562 853.57 212.562 854.426 213.404C856.537 215.502 858.649 217.614 860.76 219.725C861.629 220.594 861.615 221.396 860.747 222.291C860.185 222.866 859.611 223.44 859.036 224.015C859.009 224.055 858.996 224.108 859.036 224.015C859.771 225.899 860.439 227.69 861.161 229.454C861.241 229.641 861.548 229.828 861.762 229.841C862.524 229.881 863.272 229.841 864.034 229.868C865.103 229.895 865.691 230.442 865.691 231.498C865.691 234.585 865.691 237.672 865.691 240.746C865.691 241.748 865.09 242.322 864.074 242.349C863.286 242.363 862.51 242.322 861.722 242.376C861.522 242.376 861.228 242.603 861.147 242.79C860.439 244.541 859.758 246.305 858.996 248.242C859.477 248.71 860.132 249.298 860.747 249.926C861.629 250.808 861.629 251.597 860.747 252.492C858.649 254.603 856.537 256.715 854.412 258.813C853.57 259.655 852.755 259.641 851.913 258.786C851.285 258.158 850.711 257.503 850.256 257.009C848.265 257.784 846.475 258.452 844.711 259.174C844.524 259.254 844.35 259.561 844.336 259.775C844.296 260.51 844.336 261.245 844.323 261.966C844.31 263.129 843.762 263.704 842.613 263.704C839.606 263.704 836.599 263.704 833.592 263.704C832.39 263.704 831.855 263.142 831.842 261.926C831.842 261.218 831.828 260.51 831.842 259.802C831.842 259.427 831.735 259.24 831.347 259.093C829.597 258.452 827.873 257.744 825.935 256.982C825.481 257.463 824.893 258.118 824.265 258.733C823.383 259.615 822.581 259.614 821.712 258.746C819.601 256.648 817.49 254.536 815.392 252.412C814.55 251.556 814.55 250.755 815.392 249.913C816.02 249.285 816.674 248.697 817.169 248.229V248.256ZM834.875 211.574C834.875 212.362 834.875 213.11 834.875 213.872C834.862 214.914 834.488 215.409 833.472 215.649C831.12 216.211 828.915 217.119 826.857 218.402C826.015 218.923 825.374 218.843 824.679 218.135C824.131 217.574 823.637 216.972 823.196 216.478C821.552 218.135 820.069 219.632 818.519 221.195C818.986 221.636 819.534 222.131 820.042 222.638C820.83 223.44 820.897 224.041 820.296 225.004C819.066 226.968 818.198 229.079 817.663 231.338C817.369 232.567 816.928 232.888 815.632 232.901C814.937 232.901 814.242 232.901 813.547 232.901V239.329C814.349 239.329 815.098 239.329 815.859 239.329C816.902 239.329 817.383 239.703 817.623 240.732C818.185 243.057 819.066 245.249 820.336 247.28C820.911 248.189 820.83 248.804 820.042 249.579C819.507 250.113 818.92 250.594 818.438 251.035C820.055 252.666 821.552 254.162 823.049 255.672C823.049 255.672 823.089 255.659 823.129 255.619C823.637 255.124 824.131 254.617 824.639 254.122C825.387 253.387 826.002 253.294 826.884 253.842C828.915 255.098 831.093 256.006 833.432 256.554C834.528 256.808 834.875 257.303 834.875 258.452C834.875 259.174 834.875 259.909 834.875 260.657H841.303C841.303 259.895 841.303 259.187 841.303 258.479C841.303 257.276 841.65 256.822 842.786 256.541C845.085 255.993 847.25 255.098 849.254 253.842C850.149 253.28 850.764 253.347 851.499 254.082C852.047 254.63 852.555 255.231 853.009 255.739C854.626 254.109 856.123 252.612 857.673 251.049C857.179 250.581 856.631 250.073 856.096 249.539C855.361 248.804 855.268 248.176 855.816 247.307C857.098 245.249 857.994 243.044 858.555 240.692C858.782 239.717 859.277 239.342 860.279 239.329C861.054 239.329 861.829 239.329 862.604 239.329V232.901C861.789 232.901 861.027 232.915 860.265 232.901C859.263 232.875 858.782 232.5 858.542 231.525C857.98 229.173 857.085 226.968 855.802 224.91C855.254 224.041 855.348 223.413 856.083 222.678C856.617 222.144 857.192 221.649 857.726 221.155C856.123 219.565 854.626 218.068 853.116 216.571C853.116 216.571 853.049 216.585 853.023 216.625C852.542 217.106 852.047 217.587 851.566 218.068C850.724 218.883 850.149 218.963 849.134 218.335C847.143 217.093 845.005 216.237 842.719 215.689C841.664 215.436 841.29 214.968 841.276 213.872C841.276 213.124 841.276 212.375 841.276 211.614H834.849L834.875 211.574Z" fill="white"/>
<path d="M853.571 201.484C853.571 202.326 852.85 203.021 852.021 203.007C851.233 202.98 850.551 202.286 850.538 201.484C850.538 200.642 851.246 199.96 852.088 199.987C852.917 200 853.558 200.669 853.558 201.484H853.571Z" fill="white"/>
<path d="M825.682 270.773C825.669 271.615 825.014 272.243 824.172 272.23C823.343 272.23 822.675 271.561 822.675 270.733C822.675 269.891 823.41 269.183 824.239 269.223C825.067 269.25 825.695 269.931 825.682 270.773Z" fill="white"/>
<path d="M850.618 236.523C850.244 243.552 844.431 248.991 837.669 248.643C830.64 248.282 825.201 242.456 825.548 235.694C825.909 228.678 831.722 223.226 838.497 223.574C845.513 223.934 850.979 229.774 850.618 236.523ZM847.598 236.135C847.638 230.937 843.348 226.62 838.123 226.594C832.912 226.567 828.609 230.843 828.582 236.055C828.555 241.253 832.831 245.57 838.056 245.596C843.255 245.623 847.571 241.347 847.611 236.122L847.598 236.135Z" fill="white"/>
<path d="M13.457 591.45C6.02515 591.45 0.000201473 585.425 1.17645e-06 577.993L1.26471e-05 446.784L0.247083 446.784L0.247091 356.283C0.247147 316.335 32.6318 283.95 72.5801 283.95C112.529 283.95 144.913 316.335 144.913 356.283L144.913 446.784L458.892 446.784C436.852 463.085 422.561 489.263 422.561 518.78C422.561 548.708 437.252 575.203 459.815 591.45L13.457 591.45Z" fill="white"/>
<circle cx="72.3323" cy="356.284" r="62.2402" fill="#00A4EF"/>
<path d="M69.9878 401.199C68.4777 400.116 68.3975 399.181 69.7472 397.845C70.1748 397.417 70.6559 397.043 71.1103 396.655C71.0702 396.575 71.0301 396.508 71.0034 396.428C70.3085 396.361 69.6136 396.281 68.9187 396.214C53.0298 394.691 39.3057 383.225 35.0027 367.871C29.016 346.53 41.3235 324.761 62.7048 318.894C64.2549 318.467 65.3373 319.055 65.3908 320.338C65.4309 321.246 64.9498 321.848 63.8807 322.142C60.3127 323.117 56.9185 324.52 53.8048 326.538C44.5975 332.525 38.9582 340.904 37.3546 351.808C34.7622 369.461 45.4528 386.218 62.5444 391.43C64.1614 391.925 65.8318 392.232 67.5022 392.553C68.598 392.766 69.7205 392.82 70.9365 392.793C70.402 392.232 69.8408 391.684 69.3196 391.123C68.7717 390.535 68.6648 389.84 69.0523 389.132C69.4399 388.423 70.0813 388.103 70.8697 388.276C71.2439 388.357 71.6181 388.584 71.8987 388.851C73.4221 390.334 74.9322 391.844 76.4288 393.368C77.2707 394.223 77.3242 395.145 76.5224 395.96C74.9856 397.551 73.3954 399.101 71.8185 400.664C71.6047 400.878 71.3107 401.025 71.0568 401.199H70.0145H69.9878Z" fill="white"/>
<path d="M89.1104 379.417V334.61H71.3373C71.3239 334.97 71.2972 335.318 71.2972 335.652C71.2972 339.193 71.2972 342.735 71.2972 346.276C71.2972 348.053 70.7493 348.614 68.9853 348.614C65.2704 348.614 61.5554 348.614 57.8404 348.614C57.4929 348.614 57.1588 348.614 56.758 348.614V379.43C57.0386 379.43 57.3326 379.43 57.6399 379.43C59.9651 379.43 62.3037 379.43 64.6289 379.43C65.992 379.43 66.7403 380.058 66.7136 381.167C66.7002 382.263 65.9385 382.878 64.5755 382.878C61.5019 382.878 58.415 382.878 55.3414 382.878C53.8715 382.878 53.2434 382.236 53.2434 380.766C53.2434 369.595 53.2434 358.436 53.2434 347.265C53.2434 346.49 53.5107 345.902 54.0586 345.367C58.7624 340.864 63.4262 336.347 68.1568 331.87C68.6112 331.443 69.3729 331.149 69.9876 331.149C76.8029 331.095 83.6315 331.108 90.4468 331.122C91.9969 331.122 92.6116 331.737 92.6116 333.26C92.6116 349.095 92.6116 364.918 92.6116 380.753C92.6116 382.236 91.9835 382.891 90.5269 382.891C87.1861 382.891 83.8453 382.891 80.5045 382.891C79.2751 382.891 78.5267 382.156 78.5802 381.06C78.6203 380.085 79.3285 379.457 80.4377 379.443C83.0034 379.43 85.5558 379.443 88.1215 379.443C88.4289 379.443 88.7363 379.443 89.0971 379.443L89.1104 379.417ZM67.7826 336.962C64.9229 339.714 62.1968 342.334 59.3237 345.086H67.7826V336.962Z" fill="white"/>
<path d="M74.9042 321.273C75.4254 321.767 75.9599 322.235 76.4544 322.756C77.2428 323.585 77.2428 324.587 76.5078 325.282C75.8263 325.937 74.784 325.923 74.0356 325.188C72.4721 323.652 70.922 322.115 69.3986 320.551C68.6235 319.763 68.6101 318.814 69.3986 318.012C70.9487 316.422 72.5122 314.859 74.1025 313.309C74.8642 312.56 75.8798 312.6 76.5747 313.309C77.2428 314.003 77.2562 314.952 76.5479 315.714C76 316.289 75.372 316.796 74.6103 317.478C76.441 317.705 77.9644 317.865 79.4745 318.106C87.8666 319.482 95.0293 323.251 101.003 329.278C107.003 335.331 110.651 342.601 111.947 351.02C115.007 370.744 102.753 389.666 83.4968 394.998C83.2162 395.078 82.9489 395.159 82.6549 395.199C81.7462 395.332 80.9444 394.824 80.7173 393.996C80.4634 393.061 80.9177 392.192 81.8665 391.871C83.0692 391.47 84.2986 391.176 85.4746 390.709C98.4771 385.484 106.388 375.982 108.486 362.138C111.386 343.042 98.6641 325.349 79.7284 321.647C78.1782 321.34 76.6014 321.206 75.0379 320.992C74.9978 321.086 74.9577 321.179 74.9176 321.273H74.9042Z" fill="white"/>
<path d="M73.0201 363.194C76.0669 363.194 79.1271 363.194 82.174 363.194C83.6573 363.194 84.2854 363.808 84.2854 365.292C84.2854 367.617 84.2854 369.955 84.2854 372.281C84.2854 373.724 83.6172 374.379 82.1606 374.379C76.0536 374.379 69.9599 374.379 63.8529 374.379C62.3295 374.379 61.7014 373.737 61.7014 372.214C61.7014 369.915 61.7014 367.603 61.7014 365.305C61.7014 363.782 62.3161 363.18 63.8663 363.18C66.9131 363.18 69.9733 363.18 73.0201 363.18V363.194ZM65.2026 370.877H80.7842V366.695H65.2026V370.877Z" fill="white"/>
<path d="M73.2344 357.514C70.1876 357.514 67.1408 357.514 64.0806 357.514C63.359 357.514 62.6908 357.274 62.4637 356.592C62.2899 356.084 62.2632 355.323 62.5438 354.922C62.8512 354.481 63.5594 354.107 64.1073 354.093C70.201 354.04 76.308 354.053 82.4016 354.067C83.4974 354.067 84.2725 354.842 84.2591 355.804C84.2591 356.779 83.4707 357.501 82.3616 357.501C79.3147 357.501 76.2679 357.501 73.2077 357.501L73.2344 357.514Z" fill="white"/>
<path d="M79.9964 345.153C80.8249 345.153 81.6668 345.126 82.4953 345.153C83.5644 345.193 84.286 345.915 84.286 346.864C84.286 347.812 83.5644 348.547 82.4953 348.574C80.7982 348.614 79.101 348.614 77.4173 348.574C76.3215 348.547 75.6533 347.852 75.6533 346.864C75.6533 345.875 76.3348 345.193 77.4173 345.153C78.2725 345.113 79.1411 345.153 79.9964 345.153Z" fill="white"/>
<path d="M72.8066 382.865C71.8845 382.865 71.0694 382.103 71.0293 381.207C70.9892 380.245 71.7776 379.43 72.7532 379.444C73.7019 379.444 74.4503 380.179 74.4637 381.127C74.4637 382.063 73.7153 382.865 72.7932 382.878L72.8066 382.865Z" fill="white"/>
</svg>
