<svg width="20" height="20" viewBox="0 0 20 20" fill="none" xmlns="http://www.w3.org/2000/svg">
<path d="M0 5.53333C0 4.82222 0.244444 4.22222 0.733333 3.73333C1.22222 3.24444 1.82222 3 2.53333 3H17.5333C18.2 3 18.7778 3.24444 19.2667 3.73333C19.7556 4.22222 20 4.82222 20 5.53333V15.5333C20 16.2444 19.7556 16.8333 19.2667 17.3C18.7778 17.7667 18.1778 18 17.4667 18H2.53333C1.82222 18 1.22222 17.7667 0.733333 17.3C0.244444 16.8333 0 16.2444 0 15.5333V5.53333ZM2.53333 4.26667C2.17778 4.26667 1.87778 4.38889 1.63333 4.63333C1.38889 4.87778 1.26667 5.17778 1.26667 5.53333V5.8L10 11.0667L18.7333 5.8V5.53333C18.7333 5.17778 18.6111 4.87778 18.3667 4.63333C18.1222 4.38889 17.8444 4.26667 17.5333 4.26667H2.53333ZM18.7333 7.26667L12.8667 10.8L18.7333 14.4V7.26667ZM18.7333 15.8667L11.6667 11.5333L10 12.5333L8.33333 11.5333L1.26667 15.8667C1.35556 16.1333 1.51111 16.3556 1.73333 16.5333C1.95556 16.7111 2.22222 16.8 2.53333 16.8H17.5333C17.8 16.8 18.0444 16.7111 18.2667 16.5333C18.4889 16.3556 18.6444 16.1333 18.7333 15.8667ZM1.26667 14.4L7.13333 10.8L1.26667 7.26667V14.4Z" fill="black"/>
</svg>
