<svg width="20" height="20" viewBox="0 0 20 20" fill="none" xmlns="http://www.w3.org/2000/svg">
<g clip-path="url(#clip0_838_2711)">
<path d="M4.5957 1.67209C4.41794 1.44988 4.20685 1.33878 3.96242 1.33878C3.718 1.33878 3.48468 1.42766 3.26248 1.60542L1.99592 2.87199C1.68483 3.18307 1.48485 3.5386 1.39596 3.93857C1.30708 4.33853 1.3293 4.71628 1.46263 5.07181C2.57365 8.2271 4.30684 10.9824 6.6622 13.3378C9.01756 15.6932 11.7729 17.4264 14.9282 18.5374C15.2837 18.6707 15.6615 18.6929 16.0614 18.604C16.4614 18.5152 16.8169 18.3152 17.128 18.0041L18.3946 16.7375C18.5723 16.5153 18.6612 16.282 18.6612 16.0376C18.6612 15.7932 18.5501 15.6043 18.3279 15.471L15.4615 13.2045C15.2393 13.0267 14.9949 12.9823 14.7282 13.0712L11.9951 13.7378C11.6396 13.8266 11.2729 13.8155 10.8952 13.7044C10.5174 13.5933 10.1952 13.4045 9.9286 13.1378L6.86218 10.0714C6.59554 9.80475 6.40667 9.48256 6.29556 9.10481C6.18446 8.72706 6.17335 8.36043 6.26223 8.0049L6.92885 5.27179C7.01773 5.00515 6.97329 4.76072 6.79552 4.53852L4.5957 1.67209ZM2.32922 0.672167C2.81807 0.183318 3.38469 -0.0388857 4.02908 0.00555508C4.67347 0.0499959 5.19565 0.338861 5.59562 0.872151L7.8621 3.73858C8.08431 4.00523 8.22874 4.3052 8.2954 4.63851C8.36206 4.97182 8.35095 5.29401 8.26207 5.6051L7.59546 8.33821C7.50658 8.64929 7.57324 8.91594 7.79544 9.13814L10.8619 12.2046C11.0841 12.4268 11.3507 12.4934 11.6618 12.4045L14.3949 11.7379C14.706 11.649 15.0282 11.6379 15.3615 11.7046C15.6948 11.7713 15.9948 11.9157 16.2614 12.1379L19.1278 14.4044C19.6611 14.8043 19.95 15.3265 19.9944 15.9709C20.0389 16.6153 19.8167 17.1819 19.3278 17.6708L18.0613 18.9373C17.5724 19.4262 17.0058 19.7484 16.3614 19.9039C15.717 20.0595 15.0837 20.0261 14.4616 19.8039C11.1285 18.6485 8.20652 16.8153 5.69561 14.3044C3.18471 11.7935 1.35152 8.8715 0.196062 5.53844C-0.0261417 4.91626 -0.0594723 4.28298 0.0960706 3.63859C0.251613 2.9942 0.573809 2.42758 1.06266 1.93873L2.32922 0.672167Z" fill="black"/>
</g>
<defs>
<clipPath id="clip0_838_2711">
<rect width="20" height="20" fill="white"/>
</clipPath>
</defs>
</svg>
