<svg width="48" height="48" viewBox="0 0 48 48" fill="none" xmlns="http://www.w3.org/2000/svg">
<rect width="48" height="48" rx="8" fill="#F0F6FF"/>
<path d="M17 16.8C17 16.3226 17.1844 15.8648 17.5126 15.5272C17.8408 15.1896 18.2859 15 18.75 15H25.75C25.982 15.0001 26.2046 15.0949 26.3686 15.2637L30.7436 19.7637C30.9077 19.9324 31 20.1613 31 20.4V31.2C31 31.6774 30.8156 32.1352 30.4874 32.4728C30.1592 32.8104 29.7141 33 29.25 33H18.75C18.2859 33 17.8408 32.8104 17.5126 32.4728C17.1844 32.1352 17 31.6774 17 31.2V16.8ZM28.8878 20.4L25.75 17.1726V20.4H28.8878ZM24 16.8H18.75V31.2H29.25V22.2H24.875C24.6429 22.2 24.4204 22.1052 24.2563 21.9364C24.0922 21.7676 24 21.5387 24 21.3V16.8ZM20.5 24.9C20.5 24.6613 20.5922 24.4324 20.7563 24.2636C20.9204 24.0948 21.1429 24 21.375 24H26.625C26.8571 24 27.0796 24.0948 27.2437 24.2636C27.4078 24.4324 27.5 24.6613 27.5 24.9C27.5 25.1387 27.4078 25.3676 27.2437 25.5364C27.0796 25.7052 26.8571 25.8 26.625 25.8H21.375C21.1429 25.8 20.9204 25.7052 20.7563 25.5364C20.5922 25.3676 20.5 25.1387 20.5 24.9ZM20.5 28.5C20.5 28.2613 20.5922 28.0324 20.7563 27.8636C20.9204 27.6948 21.1429 27.6 21.375 27.6H26.625C26.8571 27.6 27.0796 27.6948 27.2437 27.8636C27.4078 28.0324 27.5 28.2613 27.5 28.5C27.5 28.7387 27.4078 28.9676 27.2437 29.1364C27.0796 29.3052 26.8571 29.4 26.625 29.4H21.375C21.1429 29.4 20.9204 29.3052 20.7563 29.1364C20.5922 28.9676 20.5 28.7387 20.5 28.5Z" fill="#00A4EF"/>
</svg>
