<svg width="48" height="48" viewBox="0 0 48 48" fill="none" xmlns="http://www.w3.org/2000/svg">
<rect width="48" height="48" rx="8" fill="#00A4EF"/>
<path d="M21 31V25C21 24.4696 20.7893 23.9609 20.4142 23.5858C20.0391 23.2107 19.5304 23 19 23H17C16.4696 23 15.9609 23.2107 15.5858 23.5858C15.2107 23.9609 15 24.4696 15 25V31C15 31.5304 15.2107 32.0391 15.5858 32.4142C15.9609 32.7893 16.4696 33 17 33H19C19.5304 33 20.0391 32.7893 20.4142 32.4142C20.7893 32.0391 21 31.5304 21 31ZM21 31V21C21 20.4696 21.2107 19.9609 21.5858 19.5858C21.9609 19.2107 22.4696 19 23 19H25C25.5304 19 26.0391 19.2107 26.4142 19.5858C26.7893 19.9609 27 20.4696 27 21V31M21 31C21 31.5304 21.2107 32.0391 21.5858 32.4142C21.9609 32.7893 22.4696 33 23 33H25C25.5304 33 26.0391 32.7893 26.4142 32.4142C26.7893 32.0391 27 31.5304 27 31M27 31V17C27 16.4696 27.2107 15.9609 27.5858 15.5858C27.9609 15.2107 28.4696 15 29 15H31C31.5304 15 32.0391 15.2107 32.4142 15.5858C32.7893 15.9609 33 16.4696 33 17V31C33 31.5304 32.7893 32.0391 32.4142 32.4142C32.0391 32.7893 31.5304 33 31 33H29C28.4696 33 27.9609 32.7893 27.5858 32.4142C27.2107 32.0391 27 31.5304 27 31Z" stroke="white" stroke-width="2" stroke-linecap="round" stroke-linejoin="round"/>
</svg>
