<svg width="48" height="48" viewBox="0 0 48 48" fill="none" xmlns="http://www.w3.org/2000/svg">
<rect width="48" height="48" rx="8" fill="#F0F6FF"/>
<path d="M24 23.273C24 26.79 22.991 30.072 21.247 32.844M17.807 30.804L17.861 30.714C19.2635 28.4859 20.0052 25.9057 20 23.273C20 22.2121 20.4214 21.1947 21.1716 20.4446C21.9217 19.6944 22.9391 19.273 24 19.273C25.0609 19.273 26.0783 19.6944 26.8284 20.4446C27.5786 21.1947 28 22.2121 28 23.273C28 24.29 27.93 25.292 27.797 26.273M25.679 33.117C26.2962 31.8855 26.7958 30.5984 27.171 29.273M31.01 30.405C31.655 28.139 32 25.746 32 23.274C32.0005 21.8695 31.6312 20.4896 30.9293 19.273C30.2273 18.0565 29.2174 17.0462 28.0012 16.3437C26.785 15.6412 25.4052 15.2713 24.0007 15.2712C22.5962 15.2711 21.2164 15.6407 20 16.343M15 27.637C15.64 26.318 16 24.837 16 23.273C16 21.816 16.2 20.415 16.571 19.092M18.157 16.164C19.429 15.501 20.866 15.087 22.383 15" stroke="#00A4EF" stroke-width="2" stroke-linecap="round" stroke-linejoin="round"/>
</svg>
