<svg width="48" height="48" viewBox="0 0 48 48" fill="none" xmlns="http://www.w3.org/2000/svg">
<rect width="48" height="48" rx="8" fill="#00A4EF"/>
<path d="M24 23C24 26.517 22.991 29.799 21.247 32.571M17.807 30.531L17.861 30.441C19.2635 28.2129 20.0052 25.6327 20 23C20 21.9391 20.4214 20.9217 21.1716 20.1716C21.9217 19.4214 22.9391 19 24 19C25.0609 19 26.0783 19.4214 26.8284 20.1716C27.5786 20.9217 28 21.9391 28 23C28 24.017 27.93 25.019 27.797 26M25.679 32.844C26.2962 31.6125 26.7958 30.3254 27.171 29M31.01 30.132C31.655 27.866 32 25.473 32 23.001C32.0005 21.5965 31.6312 20.2166 30.9293 19C30.2273 17.7835 29.2174 16.7732 28.0012 16.0707C26.785 15.3682 25.4052 14.9983 24.0007 14.9982C22.5962 14.9981 21.2164 15.3677 20 16.07M15 27.364C15.64 26.045 16 24.564 16 23C16 21.543 16.2 20.142 16.571 18.819M18.157 15.891C19.429 15.228 20.866 14.814 22.383 14.727" stroke="white" stroke-width="2" stroke-linecap="round" stroke-linejoin="round"/>
</svg>
