<svg width="48" height="48" viewBox="0 0 48 48" fill="none" xmlns="http://www.w3.org/2000/svg">
<rect width="48" height="48" rx="8" fill="#00A4EF"/>
<path d="M17 16.49C17 16.0126 17.1844 15.5548 17.5126 15.2172C17.8408 14.8796 18.2859 14.69 18.75 14.69H25.75C25.982 14.6901 26.2046 14.7849 26.3686 14.9537L30.7436 19.4537C30.9077 19.6224 31 19.8513 31 20.09V30.89C31 31.3674 30.8156 31.8252 30.4874 32.1628C30.1592 32.5004 29.7141 32.69 29.25 32.69H18.75C18.2859 32.69 17.8408 32.5004 17.5126 32.1628C17.1844 31.8252 17 31.3674 17 30.89V16.49ZM28.8878 20.09L25.75 16.8626V20.09H28.8878ZM24 16.49H18.75V30.89H29.25V21.89H24.875C24.6429 21.89 24.4204 21.7952 24.2563 21.6264C24.0922 21.4576 24 21.2287 24 20.99V16.49ZM20.5 24.59C20.5 24.3513 20.5922 24.1224 20.7563 23.9536C20.9204 23.7848 21.1429 23.69 21.375 23.69H26.625C26.8571 23.69 27.0796 23.7848 27.2437 23.9536C27.4078 24.1224 27.5 24.3513 27.5 24.59C27.5 24.8287 27.4078 25.0576 27.2437 25.2264C27.0796 25.3952 26.8571 25.49 26.625 25.49H21.375C21.1429 25.49 20.9204 25.3952 20.7563 25.2264C20.5922 25.0576 20.5 24.8287 20.5 24.59ZM20.5 28.19C20.5 27.9513 20.5922 27.7224 20.7563 27.5536C20.9204 27.3848 21.1429 27.29 21.375 27.29H26.625C26.8571 27.29 27.0796 27.3848 27.2437 27.5536C27.4078 27.7224 27.5 27.9513 27.5 28.19C27.5 28.4287 27.4078 28.6576 27.2437 28.8264C27.0796 28.9952 26.8571 29.09 26.625 29.09H21.375C21.1429 29.09 20.9204 28.9952 20.7563 28.8264C20.5922 28.6576 20.5 28.4287 20.5 28.19Z" fill="white"/>
</svg>
