<svg width="48" height="48" viewBox="0 0 48 48" fill="none" xmlns="http://www.w3.org/2000/svg">
<rect width="48" height="48" rx="8" fill="#F0F6FF"/>
<path d="M15 27C15 28.0608 15.4214 29.0783 16.1716 29.8284C16.9217 30.5785 17.9391 31 19 31H28C28.6608 31 29.3151 30.869 29.925 30.6146C30.5348 30.3602 31.0882 29.9874 31.5532 29.5178C32.0181 29.0482 32.3853 28.4911 32.6336 27.8787C32.8819 27.2663 33.0064 26.6108 32.9997 25.95C32.9931 25.2892 32.8556 24.6363 32.5951 24.029C32.3346 23.4217 31.9563 22.872 31.4821 22.4118C31.0079 21.9516 30.4471 21.59 29.8323 21.3478C29.2174 21.1056 28.5607 20.9878 27.9 21.001C27.7734 20.348 27.5178 19.7269 27.1483 19.1739C26.7787 18.6209 26.3026 18.1471 25.7477 17.7804C25.1928 17.4136 24.5704 17.1612 23.9168 17.0379C23.2632 16.9146 22.5916 16.9229 21.9413 17.0622C21.2909 17.2016 20.6749 17.4693 20.1292 17.8496C19.5836 18.2299 19.1193 18.7153 18.7634 19.2772C18.4076 19.8391 18.1674 20.4664 18.057 21.1223C17.9465 21.7782 17.9679 22.4495 18.12 23.097C17.2342 23.2969 16.4428 23.7922 15.8758 24.5015C15.3088 25.2108 15 26.0919 15 27Z" stroke="#00A4EF" stroke-width="2" stroke-linecap="round" stroke-linejoin="round"/>
</svg>
