<svg width="48" height="48" viewBox="0 0 48 48" fill="none" xmlns="http://www.w3.org/2000/svg">
<rect width="48" height="48" rx="8" fill="#F0F6FF"/>
<path d="M21.75 29L21 32L20 33H28L27 32L26.25 29M15 25H33M17 29H31C31.5304 29 32.0391 28.7893 32.4142 28.4142C32.7893 28.0391 33 27.5304 33 27V17C33 16.4696 32.7893 15.9609 32.4142 15.5858C32.0391 15.2107 31.5304 15 31 15H17C16.4696 15 15.9609 15.2107 15.5858 15.5858C15.2107 15.9609 15 16.4696 15 17V27C15 27.5304 15.2107 28.0391 15.5858 28.4142C15.9609 28.7893 16.4696 29 17 29Z" stroke="#00A4EF" stroke-width="2" stroke-linecap="round" stroke-linejoin="round"/>
</svg>
