<svg width="21" height="21" viewBox="0 0 21 21" fill="none" xmlns="http://www.w3.org/2000/svg">
<circle cx="10.5" cy="10.5" r="10.5" fill="white"/>
<path d="M14.4264 7.34631C14.575 7.15471 14.7881 7.03247 15.0201 7.00559C15.2521 6.97872 15.4848 7.04935 15.6687 7.20243C15.759 7.27689 15.8344 7.36987 15.8903 7.47588C15.9463 7.58188 15.9818 7.69875 15.9946 7.81959C16.0074 7.94043 15.9974 8.06279 15.965 8.17942C15.9327 8.29605 15.8787 8.4046 15.8063 8.49865L11.1022 14.6534C11.0235 14.7551 10.9258 14.8382 10.8153 14.8977C10.7048 14.9571 10.584 14.9915 10.4604 14.9986C10.3368 15.0057 10.2132 14.9855 10.0973 14.9391C9.98147 14.8928 9.8759 14.8213 9.78731 14.7293L6.25922 11.0391L6.19791 10.9699C5.91517 10.6075 5.93518 10.0733 6.25922 9.73492C6.58325 9.39654 7.09495 9.37523 7.4415 9.67097L7.50781 9.73492L10.3478 12.6924L14.4389 7.3503L14.4264 7.34631Z" fill="#00A4EF"/>
</svg>
