<svg xmlns:xlink="http://www.w3.org/1999/xlink" xmlns="http://www.w3.org/2000/svg" class="icon" width="24"  height="29" ><defs><symbol viewBox="0 0 24 29" xmlns="http://www.w3.org/2000/svg" id="top">
    <path d="M10.5 27C10.5 27.8284 11.1716 28.5 12 28.5C12.8284 28.5 13.5 27.8284 13.5 27L10.5 27ZM13.0607 1.34918C12.4749 0.76339 11.5251 0.76339 10.9393 1.34918L1.3934 10.8951C0.807612 11.4809 0.807612 12.4307 1.3934 13.0164C1.97919 13.6022 2.92893 13.6022 3.51472 13.0164L12 4.53116L20.4853 13.0164C21.0711 13.6022 22.0208 13.6022 22.6066 13.0164C23.1924 12.4307 23.1924 11.4809 22.6066 10.8951L13.0607 1.34918ZM13.5 27L13.5 2.40984L10.5 2.40984L10.5 27L13.5 27Z" fill="#FFFFFF"></path>
  </symbol></defs><use xlink:href="#top"></use></svg>