<svg width="60" height="60" viewBox="0 0 60 60" fill="none" xmlns="http://www.w3.org/2000/svg">
<g clip-path="url(#clip0_823_2262)">
<path d="M54.4259 17.2828C54.2834 17.0107 54.0388 16.8061 53.7457 16.7141C53.4527 16.622 53.135 16.65 52.8626 16.7918C52.5901 16.9337 52.385 17.1778 52.2923 17.4706C52.1995 17.7635 52.2268 18.0812 52.368 18.354C55.1465 23.6956 55.9216 29.8552 54.5532 35.7186C53.1847 41.5821 49.763 46.7622 44.9069 50.3219C40.0509 53.8817 34.0812 55.586 28.0777 55.1266C22.0743 54.6672 16.4334 52.0744 12.1755 47.8173C12.0135 47.6548 11.8068 47.5441 11.5818 47.4992C11.3568 47.4543 11.1235 47.4772 10.9115 47.565C10.6995 47.6528 10.5183 47.8016 10.3909 47.9924C10.2636 48.1833 10.1957 48.4077 10.1959 48.6371V55.3051C10.1954 55.4577 10.2251 55.6089 10.2831 55.75C10.3412 55.8912 10.4266 56.0195 10.5343 56.1275C10.642 56.2356 10.7701 56.3214 10.911 56.3799C11.0519 56.4384 11.2031 56.4685 11.3557 56.4685C11.5083 56.4685 11.6594 56.4384 11.8003 56.3799C11.9413 56.3214 12.0693 56.2356 12.177 56.1275C12.2848 56.0195 12.3701 55.8912 12.4282 55.75C12.4863 55.6089 12.5159 55.4577 12.5154 55.3051V51.2584C17.4174 55.2867 23.5603 57.4984 29.9051 57.5195C36.2499 57.5406 42.4073 55.3699 47.3361 51.3743C52.2648 47.3787 55.6624 41.8035 56.9543 35.5916C58.2461 29.3796 57.353 22.9121 54.4259 17.2828Z" fill="white"/>
<path d="M12.1756 12.1691C22.0056 2.3401 37.9969 2.34216 47.8248 12.1681C47.9869 12.3305 48.1935 12.4412 48.4185 12.4861C48.6436 12.531 48.8769 12.5081 49.0888 12.4203C49.3008 12.3325 49.482 12.1837 49.6094 11.9929C49.7368 11.802 49.8047 11.5777 49.8044 11.3482V4.68024C49.8044 4.37265 49.6822 4.07767 49.4647 3.86017C49.2472 3.64268 48.9523 3.52049 48.6447 3.52049C48.3371 3.52049 48.0421 3.64268 47.8246 3.86017C47.6071 4.07767 47.4849 4.37265 47.4849 4.68024V8.72906C36.6826 -0.164788 20.6316 0.432599 10.5358 10.5283C6.37984 14.6575 3.65577 20.0093 2.76292 25.7993C1.87008 31.5894 2.85541 37.5132 5.57449 42.7025C5.64422 42.8386 5.7402 42.9597 5.8569 43.0586C5.97359 43.1575 6.1087 43.2323 6.25444 43.2788C6.40018 43.3253 6.55368 43.3425 6.70609 43.3294C6.85851 43.3164 7.00683 43.2733 7.14252 43.2026C7.27821 43.132 7.39859 43.0352 7.49673 42.9179C7.59487 42.8005 7.66883 42.6649 7.71435 42.5189C7.75988 42.3728 7.77606 42.2192 7.76198 42.0669C7.7479 41.9146 7.70383 41.7666 7.6323 41.6313C5.14264 36.8794 4.24051 31.4549 5.0581 26.153C5.8757 20.851 8.37004 15.9503 12.1756 12.1691Z" fill="white"/>
<path d="M13.2209 18.4166V31.6757C13.221 34.4802 13.9788 37.2326 15.4142 39.642C16.8497 42.0513 18.9094 44.0281 21.3757 45.3632L30.0002 50.032L38.6246 45.3632C41.091 44.0281 43.1508 42.0514 44.5862 39.6421C46.0217 37.2327 46.7794 34.4803 46.7794 31.6757V18.4166L30.0002 13.1179L13.2209 18.4166ZM31.7964 23.2028C31.8062 23.1712 31.8021 23.1385 31.815 23.1074L32.6534 21.0822L32.5648 21.0454C32.4237 20.9872 32.2955 20.9019 32.1875 20.7941C32.0795 20.6864 31.9938 20.5585 31.9352 20.4176C31.8767 20.2767 31.8466 20.1257 31.8465 19.9731C31.8464 19.8205 31.8764 19.6695 31.9347 19.5285C31.9931 19.3876 32.0787 19.2595 32.1866 19.1517C32.2945 19.0438 32.4226 18.9583 32.5635 18.9C32.7045 18.8417 32.8556 18.8118 33.0082 18.812C33.1607 18.8121 33.3118 18.8424 33.4526 18.901L34.6118 19.3817L34.6134 19.382L34.6144 19.3827L35.7752 19.864C36.0595 19.9817 36.2855 20.2076 36.4033 20.4919C36.5211 20.7762 36.5212 21.0957 36.4035 21.3801C36.2857 21.6645 36.0599 21.8904 35.7755 22.0082C35.4912 22.1261 35.1717 22.1261 34.8874 22.0084L34.7972 21.971L33.9593 23.9952C33.9464 24.0262 33.9243 24.0493 33.9089 24.0786C34.947 24.7067 35.817 25.5775 36.4441 26.6162C36.4735 26.601 36.4936 26.5749 36.525 26.5619L38.5499 25.723L38.5128 25.6339C38.3957 25.3496 38.3961 25.0305 38.5141 24.7466C38.632 24.4627 38.8578 24.2372 39.1418 24.1195C39.4259 24.0019 39.745 24.0019 40.0291 24.1193C40.3133 24.2368 40.5391 24.4622 40.6572 24.7461L41.1377 25.9061L41.1382 25.9068V25.9079L41.6192 27.0686C41.6778 27.2095 41.708 27.3605 41.7082 27.5131C41.7084 27.6656 41.6784 27.8167 41.6202 27.9577C41.5619 28.0987 41.4764 28.2268 41.3685 28.3347C41.2607 28.4426 41.1326 28.5282 40.9917 28.5865C40.8507 28.6449 40.6996 28.6749 40.5471 28.6748C40.3945 28.6747 40.2435 28.6445 40.1026 28.586C39.9617 28.5275 39.8338 28.4418 39.726 28.3337C39.6183 28.2257 39.5329 28.0975 39.4748 27.9565L39.4377 27.8671L37.4128 28.7063C37.3819 28.7192 37.349 28.7153 37.3175 28.7253C37.609 29.9046 37.6091 31.137 37.3181 32.3163C37.3495 32.3264 37.3819 32.322 37.4128 32.3349L39.4383 33.1734L39.4749 33.0847C39.533 32.9436 39.6184 32.8154 39.7261 32.7074C39.8338 32.5994 39.9618 32.5137 40.1027 32.4551C40.2435 32.3966 40.3946 32.3665 40.5471 32.3664C40.6997 32.3663 40.8508 32.3963 40.9917 32.4546C41.1327 32.513 41.2607 32.5986 41.3686 32.7065C41.4764 32.8144 41.5619 32.9425 41.6202 33.0835C41.6785 33.2244 41.7084 33.3755 41.7083 33.5281C41.7081 33.6806 41.6779 33.8317 41.6193 33.9725L40.6573 36.2951C40.5991 36.4361 40.5138 36.5643 40.4061 36.6724C40.2983 36.7804 40.1704 36.8661 40.0295 36.9246C39.8886 36.9832 39.7376 37.0133 39.585 37.0134C39.4325 37.0135 39.2814 36.9835 39.1404 36.9251C38.9995 36.8668 38.8714 36.7812 38.7636 36.6733C38.6557 36.5654 38.5702 36.4373 38.5119 36.2963C38.4536 36.1553 38.4237 36.0043 38.4239 35.8517C38.424 35.6991 38.4543 35.5481 38.5129 35.4073L38.55 35.3176L36.525 34.4792C36.4936 34.4663 36.474 34.4404 36.4447 34.4252C35.8162 35.4647 34.9445 36.3359 33.9048 36.964C33.9202 36.9935 33.9465 37.0135 33.9594 37.0449L34.7978 39.0698L34.8874 39.0327C35.0283 38.974 35.1793 38.9436 35.332 38.9433C35.4846 38.9431 35.6358 38.9729 35.7769 39.0312C35.918 39.0894 36.0462 39.1749 36.1542 39.2828C36.2622 39.3907 36.3478 39.5188 36.4062 39.6599C36.4646 39.8009 36.4946 39.9521 36.4945 40.1047C36.4944 40.2574 36.4641 40.4085 36.4055 40.5494C36.3469 40.6904 36.261 40.8184 36.1529 40.9261C36.0447 41.0338 35.9164 41.1191 35.7752 41.1771L33.4526 42.1391C33.1684 42.2563 32.8492 42.2558 32.5653 42.1379C32.2814 42.0199 32.0559 41.7942 31.9383 41.5101C31.8207 41.226 31.8206 40.9069 31.938 40.6228C32.0555 40.3387 32.2809 40.1128 32.5648 39.9947L32.6534 39.9579L31.815 37.9327C31.8021 37.9016 31.8062 37.8691 31.7964 37.8375C30.617 38.129 29.3844 38.1292 28.2049 37.8382C28.1946 37.8696 28.1993 37.9018 28.1864 37.9327L27.3475 39.9577L27.4365 39.9947C27.5776 40.0528 27.7058 40.1382 27.8138 40.2459C27.9218 40.3536 28.0076 40.4816 28.0661 40.6225C28.1246 40.7633 28.1548 40.9144 28.1548 41.0669C28.1549 41.2195 28.1249 41.3706 28.0666 41.5115C28.0082 41.6525 27.9226 41.7805 27.8147 41.8884C27.7068 41.9962 27.5787 42.0817 27.4378 42.14C27.2968 42.1983 27.1457 42.2282 26.9931 42.2281C26.8406 42.2279 26.6896 42.1977 26.5487 42.1391L24.2251 41.1771C24.0841 41.1189 23.9559 41.0336 23.8478 40.9259C23.7398 40.8181 23.6541 40.6902 23.5956 40.5493C23.537 40.4084 23.5069 40.2574 23.5068 40.1048C23.5067 39.9523 23.5367 39.8012 23.5951 39.6602C23.6534 39.5193 23.739 39.3912 23.8469 39.2834C23.9548 39.1755 24.0829 39.09 24.2239 39.0317C24.3649 38.9734 24.5159 38.9435 24.6685 38.9437C24.8211 38.9439 24.9721 38.9741 25.1129 39.0327L25.2031 39.0699L26.042 37.0449C26.0549 37.0137 26.0806 36.994 26.096 36.9648C25.056 36.3367 24.1845 35.4649 23.5567 34.4246C23.5268 34.4401 23.5067 34.4662 23.4753 34.4792L21.4504 35.3176L21.4874 35.4072C21.5457 35.548 21.5757 35.6989 21.5757 35.8513C21.5757 36.0037 21.5456 36.1546 21.4873 36.2954C21.429 36.4362 21.3435 36.5641 21.2357 36.6719C21.1279 36.7796 21 36.8651 20.8592 36.9234C20.7184 36.9817 20.5675 37.0116 20.4151 37.0116C20.2627 37.0116 20.1118 36.9816 19.971 36.9232C19.8302 36.8649 19.7023 36.7794 19.5945 36.6716C19.4868 36.5638 19.4013 36.4359 19.343 36.2951L18.3811 33.9725C18.2639 33.6882 18.2644 33.3691 18.3823 33.0852C18.5002 32.8013 18.726 32.5757 19.0101 32.4581C19.2941 32.3405 19.6132 32.3404 19.8974 32.4579C20.1815 32.5754 20.4074 32.8008 20.5255 33.0847L20.562 33.1734L22.5875 32.3348C22.6189 32.322 22.6513 32.3263 22.6832 32.3163C22.3919 31.137 22.3916 29.9046 22.6822 28.7252C22.6508 28.7153 22.6184 28.719 22.5875 28.7063L20.5626 27.8671L20.5255 27.9565C20.4674 28.0975 20.382 28.2257 20.2743 28.3338C20.1665 28.4418 20.0386 28.5275 19.8977 28.586C19.7568 28.6445 19.6058 28.6747 19.4532 28.6748C19.3007 28.6749 19.1496 28.6449 19.0086 28.5865C18.8677 28.5282 18.7396 28.4426 18.6318 28.3347C18.5239 28.2268 18.4384 28.0987 18.3801 27.9577C18.3218 27.8167 18.2919 27.6656 18.2921 27.5131C18.2923 27.3605 18.3225 27.2095 18.3811 27.0686L18.8621 25.9079V25.9068L18.8626 25.9061L19.3431 24.7461C19.4608 24.4617 19.6867 24.2358 19.971 24.1179C20.2553 24.0001 20.5748 24.0001 20.8592 24.1178C21.1435 24.2355 21.3695 24.4614 21.4873 24.7457C21.6051 25.0301 21.6052 25.3495 21.4875 25.6339L21.4504 25.723L23.4753 26.5619C23.5062 26.5748 23.5263 26.6008 23.5556 26.6161C24.1832 25.5773 25.0538 24.7065 26.0924 24.0786C26.077 24.0494 26.0549 24.0262 26.042 23.9952L25.2031 21.9711L25.1129 22.0084C24.9721 22.0667 24.8212 22.0967 24.6688 22.0967C24.5164 22.0966 24.3655 22.0666 24.2248 22.0083C24.084 21.9499 23.9561 21.8644 23.8483 21.7566C23.7406 21.6489 23.6551 21.5209 23.5968 21.3801C23.5385 21.2393 23.5085 21.0884 23.5086 20.936C23.5086 20.7836 23.5386 20.6327 23.597 20.4919C23.6553 20.3511 23.7408 20.2232 23.8486 20.1155C23.9564 20.0077 24.0843 19.9223 24.2251 19.864L25.3849 19.3833C25.3859 19.383 25.3859 19.3822 25.3869 19.382C25.388 19.3817 25.3885 19.3818 25.389 19.3815L26.5487 18.901C26.833 18.7839 27.1521 18.7843 27.436 18.9022C27.7199 19.0202 27.9455 19.2459 28.0631 19.53C28.1807 19.8141 28.1808 20.1332 28.0633 20.4173C27.9458 20.7014 27.7204 20.9273 27.4366 21.0454L27.3475 21.0825L28.1864 23.1074C28.1993 23.1388 28.1952 23.1712 28.2049 23.203C29.3844 22.9118 30.6169 22.9117 31.7964 23.2028Z" fill="white"/>
</g>
<defs>
<clipPath id="clip0_823_2262">
<rect width="60" height="60" fill="white"/>
</clipPath>
</defs>
</svg>
