<svg width="60" height="60" viewBox="0 0 60 60" fill="none" xmlns="http://www.w3.org/2000/svg">
<g clip-path="url(#clip0_823_2248)">
<g clip-path="url(#clip1_823_2248)">
<g clip-path="url(#clip2_823_2248)">
<path d="M30 35V55H10C10 49.6957 12.1071 44.6086 15.8579 40.8579C19.6086 37.1071 24.6957 35 30 35ZM45 53.75L37.6525 57.6125L39.055 49.4325L33.1125 43.6375L41.3275 42.4425L45 35L48.675 42.4425L56.8875 43.6375L50.945 49.4325L52.345 57.6125L45 53.75ZM30 32.5C21.7125 32.5 15 25.7875 15 17.5C15 9.2125 21.7125 2.5 30 2.5C38.2875 2.5 45 9.2125 45 17.5C45 25.7875 38.2875 32.5 30 32.5Z" fill="white"/>
</g>
</g>
</g>
<defs>
<clipPath id="clip0_823_2248">
<rect width="60" height="60" fill="white"/>
</clipPath>
<clipPath id="clip1_823_2248">
<rect width="60" height="60" fill="white"/>
</clipPath>
<clipPath id="clip2_823_2248">
<rect width="60" height="60" fill="white"/>
</clipPath>
</defs>
</svg>
