<svg width="60" height="60" viewBox="0 0 60 60" fill="none" xmlns="http://www.w3.org/2000/svg">
<g clip-path="url(#clip0_823_2241)">
<g clip-path="url(#clip1_823_2241)">
<path fill-rule="evenodd" clip-rule="evenodd" d="M32.5 7.5L32.4999 47.5H35V17.5H52.5L52.5 47.5L55 47.5V52.5L32.4999 52.4999L32.5 52.5H7.5L7.49996 52.4999L5 52.5V47.5L7.49996 47.5L7.5 7.5H32.5ZM22.5 40H17.5V47.5H22.5V40ZM45 37.5H40V42.5H45V37.5ZM45 27.5H40V32.5H45V27.5ZM22.5 27.5H17.5V32.5H22.5V27.5ZM22.5 17.5H17.5V22.5H22.5V17.5Z" fill="white"/>
</g>
</g>
<defs>
<clipPath id="clip0_823_2241">
<rect width="60" height="60" fill="white"/>
</clipPath>
<clipPath id="clip1_823_2241">
<rect width="60" height="60" fill="white"/>
</clipPath>
</defs>
</svg>
