<svg width="60" height="60" viewBox="0 0 60 60" fill="none" xmlns="http://www.w3.org/2000/svg">
<g clip-path="url(#clip0_823_2255)">
<g clip-path="url(#clip1_823_2255)">
<path fill-rule="evenodd" clip-rule="evenodd" d="M22.2282 52.6968L22.3652 52.8288L22.376 52.8393C24.8865 55.245 27.3207 56.894 30.074 56.8623C32.8147 56.8308 35.239 55.1388 37.748 52.6958C41.1867 49.3638 45.6362 44.8693 48.8507 39.5373C52.0775 34.1853 54.1597 27.823 52.593 20.8399C47.2992 -2.76032 12.7283 -2.78797 7.40689 20.8148C5.88454 27.6 7.80784 33.8068 10.875 39.067C13.9305 44.3078 18.206 48.7573 21.6348 52.1178C21.8346 52.3135 22.0318 52.5058 22.2259 52.6945L22.2282 52.6968ZM30 15.6253C25.5127 15.6253 21.875 19.263 21.875 23.7503C21.875 28.2375 25.5127 31.8753 30 31.8753C34.4872 31.8753 38.125 28.2375 38.125 23.7503C38.125 19.263 34.4872 15.6253 30 15.6253Z" fill="white"/>
</g>
</g>
<defs>
<clipPath id="clip0_823_2255">
<rect width="60" height="60" fill="white"/>
</clipPath>
<clipPath id="clip1_823_2255">
<rect width="60" height="60" fill="white"/>
</clipPath>
</defs>
</svg>
